<svg width="128" height="128" viewBox="0 0 128 128" fill="none" xmlns="http://www.w3.org/2000/svg">
<path d="M84.7248 100.737H41.1642C38.0928 100.737 35.2462 101.703 33.6356 104.898C32.8865 106.384 33.748 108.279 35.1713 108.279H90.7177C92.141 108.279 93.0024 106.384 92.2533 104.898C90.6428 101.703 87.7961 100.737 84.7248 100.737Z" fill="#09C93A"/>
<path d="M107.797 121.579C105.7 117.381 101.992 114.855 98.0216 114.855H28.2796C27.6803 114.855 27.2683 114.818 26.6316 115.003L25.5454 115.412C22.8486 116.452 20.3765 118.235 18.9532 120.725C18.9532 120.725 18.9532 120.762 18.9532 120.799C18.7659 121.059 18.6536 121.319 18.5037 121.579C17.7921 122.916 18.1666 124.588 19.0656 125.406C19.3652 125.666 19.7398 125.851 20.1143 125.926C20.2267 126 20.3391 126 20.4889 126H105.85C107.685 126 108.846 123.511 107.835 121.579H107.797Z" fill="#09C93A"/>
<path d="M110.344 54.8943L87.0096 21.1613C86.4852 20.4182 85.6238 19.9724 84.7248 19.9724H82.3651C82.3651 19.9724 82.3651 19.9724 82.3277 19.9724C80.7171 19.4895 79.5934 18.0406 79.556 16.3688C79.556 16.3688 79.556 16.3316 79.556 16.2945L84.0506 5.85509C84.575 4.70342 84.0881 3.32883 82.9644 2.73442C80.3425 1.39699 71.99 2.25146 68.5816 2.47436C51.0899 3.62604 33.748 12.9138 24.9085 28.1456C13.3348 48.0214 19.103 68.5286 22.2492 89.556C22.5114 91.3021 23.8223 92.8253 25.5827 93.0111C27.4555 93.234 30.0025 92.1938 29.6279 89.5932C29.2159 86.8069 28.7665 84.9122 28.2795 81.9401C25.2456 63.3647 21.8372 42.3373 34.1975 27.4398C41.8009 18.3006 56.9704 11.0191 68.7688 10.8705C68.8063 10.8705 68.8812 10.8705 68.9561 10.8705C70.4543 11.0191 71.6154 12.245 71.6154 13.7311C71.6154 15.2171 70.3045 16.6289 68.6939 16.6289L65.3978 17.1118C63.9371 17.3347 62.5138 17.5948 61.0905 17.9291C59.8919 18.1892 58.6184 18.4864 58.581 18.4864C47.3818 21.3099 37.6059 29.706 33.7106 39.8482C29.4407 51.0306 31.1261 61.5443 33.6357 77.5192C34.2724 81.6058 34.7968 84.9493 35.5084 89.9276C35.883 93.5683 38.6921 94.8686 41.8384 94.9058H82.7771C86.4478 94.9058 89.4817 92.008 89.6315 88.3672C89.7064 86.2868 89.1071 84.2806 87.9085 82.5717L72.6642 60.987C71.6154 59.2409 73.3384 57.1233 75.2861 57.792L85.0245 61.1356C85.5863 61.3957 85.9983 61.9158 86.1481 62.5102L86.9722 65.668C87.122 66.2624 87.5714 66.7826 88.1333 67.0426L99.7445 72.058C100.568 72.4666 101.58 72.2809 102.217 71.6122L108.958 65.7795C109.37 65.3337 109.633 64.7393 109.745 64.0705L110.569 55.9716C110.494 55.6744 110.382 55.2658 110.307 54.9686L110.344 54.8943Z" fill="#09C93A"/>
<path d="M100.473 73C85.569 73 73.5 85.096 73.5 100C73.5 114.904 85.569 127 100.473 127C115.404 127 127.5 114.904 127.5 100C127.5 85.096 115.404 73 100.473 73ZM119.184 89.2H111.219C110.355 85.825 109.113 82.585 107.493 79.588C112.461 81.289 116.592 84.745 119.184 89.2ZM100.5 78.508C102.741 81.748 104.496 85.339 105.657 89.2H95.343C96.504 85.339 98.259 81.748 100.5 78.508ZM79.602 105.4C79.17 103.672 78.9 101.863 78.9 100C78.9 98.137 79.17 96.328 79.602 94.6H88.728C88.512 96.382 88.35 98.164 88.35 100C88.35 101.836 88.512 103.618 88.728 105.4H79.602ZM81.816 110.8H89.781C90.645 114.175 91.887 117.415 93.507 120.412C88.539 118.711 84.408 115.282 81.816 110.8ZM89.781 89.2H81.816C84.408 84.718 88.539 81.289 93.507 79.588C91.887 82.585 90.645 85.825 89.781 89.2ZM100.5 121.492C98.259 118.252 96.504 114.661 95.343 110.8H105.657C104.496 114.661 102.741 118.252 100.5 121.492ZM106.818 105.4H94.182C93.939 103.618 93.75 101.836 93.75 100C93.75 98.164 93.939 96.355 94.182 94.6H106.818C107.061 96.355 107.25 98.164 107.25 100C107.25 101.836 107.061 103.618 106.818 105.4ZM107.493 120.412C109.113 117.415 110.355 114.175 111.219 110.8H119.184C116.592 115.255 112.461 118.711 107.493 120.412ZM112.272 105.4C112.488 103.618 112.65 101.836 112.65 100C112.65 98.164 112.488 96.382 112.272 94.6H121.398C121.83 96.328 122.1 98.137 122.1 100C122.1 101.863 121.83 103.672 121.398 105.4H112.272Z" fill="white"/>
</svg>
