<svg width="224" height="492" viewBox="0 0 224 492" fill="none" xmlns="http://www.w3.org/2000/svg">
<g filter="url(#filter0_d_12359_231)">
<path d="M180.602 116.243L42.4399 116.766L95.7059 26.3576C102.638 14.5923 119.633 14.528 126.653 26.2405L180.602 116.243ZM180.602 116.243L181.861 448.986C181.899 458.928 173.871 467.017 163.929 467.054L61.7671 467.441C51.8261 467.479 43.7367 459.45 43.6991 449.509L42.4399 116.766L180.602 116.243Z" fill="#2E7D32"/>
<g filter="url(#filter1_d_12359_231)">
<path d="M58.7672 467.452C50.483 467.484 43.7419 460.794 43.7105 452.509L43.3827 365.87L181.545 365.347L181.873 451.986C181.904 460.271 175.214 467.012 166.929 467.043L58.7672 467.452Z" fill="white"/>
</g>
<path d="M124.744 436.344H100.241C98.5134 436.344 96.9122 436.887 96.0062 438.684C95.5849 439.52 96.0694 440.586 96.8701 440.586H128.115C128.915 440.586 129.4 439.52 128.979 438.684C128.073 436.887 126.472 436.344 124.744 436.344Z" fill="#09C93A"/>
<path d="M137.722 448.067C136.542 445.706 134.457 444.285 132.223 444.285H92.9935C92.6564 444.285 92.4246 444.264 92.0665 444.368L91.4555 444.598C89.9385 445.183 88.548 446.186 87.7474 447.586C87.7474 447.586 87.7474 447.607 87.7474 447.628C87.642 447.774 87.5788 447.921 87.4946 448.067C87.0943 448.819 87.3049 449.76 87.8106 450.219C87.9791 450.366 88.1898 450.47 88.4005 450.512C88.4637 450.554 88.5269 450.554 88.6112 450.554H136.627C137.659 450.554 138.312 449.154 137.743 448.067H137.722Z" fill="#09C93A"/>
<path d="M139.155 410.557L126.029 391.582C125.734 391.164 125.25 390.913 124.744 390.913H123.417C123.417 390.913 123.417 390.913 123.396 390.913C122.49 390.642 121.857 389.827 121.836 388.886C121.836 388.886 121.836 388.865 121.836 388.844L124.365 382.972C124.66 382.324 124.386 381.551 123.754 381.217C122.279 380.465 117.581 380.945 115.663 381.071C105.824 381.718 96.0694 386.943 91.0972 395.511C84.587 406.691 87.8316 418.226 89.6014 430.054C89.7488 431.036 90.4862 431.893 91.4765 431.998C92.5299 432.123 93.9626 431.538 93.7519 430.075C93.5201 428.508 93.2673 427.442 92.9934 425.77C91.2869 415.321 89.3696 403.494 96.3223 395.114C100.599 389.973 109.132 385.877 115.769 385.793C115.79 385.793 115.832 385.793 115.874 385.793C116.717 385.877 117.37 386.567 117.37 387.403C117.37 388.238 116.632 389.033 115.727 389.033L113.872 389.304C113.051 389.43 112.25 389.576 111.45 389.764C110.775 389.91 110.059 390.077 110.038 390.077C103.738 391.666 98.2395 396.388 96.0484 402.093C93.6465 408.384 94.5946 414.297 96.0062 423.283C96.3644 425.582 96.6594 427.463 97.0597 430.263C97.2704 432.311 98.8505 433.042 100.62 433.063H123.648C125.713 433.063 127.42 431.433 127.504 429.385C127.546 428.215 127.209 427.087 126.535 426.125L117.96 413.984C117.37 413.002 118.339 411.811 119.435 412.187L124.912 414.068C125.228 414.214 125.46 414.506 125.545 414.841L126.008 416.617C126.092 416.951 126.345 417.244 126.661 417.39L133.192 420.211C133.656 420.441 134.225 420.337 134.583 419.961L138.375 416.68C138.607 416.429 138.755 416.095 138.818 415.718L139.281 411.163C139.239 410.996 139.176 410.766 139.134 410.599L139.155 410.557Z" fill="#09C93A"/>
<path d="M97.7459 75.9775H99.6991C99.6366 76.7223 99.4282 77.3863 99.0741 77.9697C98.7199 78.5478 98.2225 79.0035 97.5819 79.3369C96.9412 79.6702 96.1626 79.8369 95.2459 79.8369C94.5428 79.8369 93.91 79.7119 93.3475 79.4619C92.785 79.2067 92.3032 78.8473 91.9022 78.3837C91.5011 77.915 91.1939 77.3499 90.9803 76.6884C90.772 76.027 90.6678 75.2874 90.6678 74.4697V73.5244C90.6678 72.7067 90.7746 71.9671 90.9881 71.3056C91.2069 70.6442 91.5194 70.0791 91.9256 69.6103C92.3319 69.1363 92.8189 68.7744 93.3866 68.5244C93.9595 68.2744 94.6027 68.1494 95.3162 68.1494C96.2225 68.1494 96.9881 68.316 97.6131 68.6494C98.2381 68.9827 98.7225 69.4436 99.0662 70.0322C99.4152 70.6207 99.6287 71.2952 99.7069 72.0556H97.7537C97.7017 71.566 97.5871 71.1468 97.41 70.7978C97.2381 70.4488 96.9829 70.1832 96.6444 70.0009C96.3058 69.8134 95.8631 69.7197 95.3162 69.7197C94.8683 69.7197 94.4777 69.803 94.1444 69.9697C93.811 70.1363 93.5324 70.3811 93.3084 70.7041C93.0845 71.027 92.9152 71.4254 92.8006 71.8994C92.6912 72.3681 92.6366 72.9046 92.6366 73.5087V74.4697C92.6366 75.0426 92.686 75.5634 92.785 76.0322C92.8892 76.4957 93.0454 76.8942 93.2537 77.2275C93.4673 77.5608 93.7381 77.8186 94.0662 78.0009C94.3944 78.1832 94.7876 78.2744 95.2459 78.2744C95.8032 78.2744 96.2537 78.1858 96.5975 78.0087C96.9465 77.8317 97.2095 77.5738 97.3866 77.2353C97.5689 76.8916 97.6886 76.4723 97.7459 75.9775ZM108.605 78.1259V79.6806H102.894V78.1259H108.605ZM103.441 68.3056V79.6806H101.48V68.3056H103.441ZM112.215 68.3056V79.6806H110.254V68.3056H112.215ZM121.371 75.9775H123.324C123.262 76.7223 123.053 77.3863 122.699 77.9697C122.345 78.5478 121.847 79.0035 121.207 79.3369C120.566 79.6702 119.788 79.8369 118.871 79.8369C118.168 79.8369 117.535 79.7119 116.972 79.4619C116.41 79.2067 115.928 78.8473 115.527 78.3837C115.126 77.915 114.819 77.3499 114.605 76.6884C114.397 76.027 114.293 75.2874 114.293 74.4697V73.5244C114.293 72.7067 114.4 71.9671 114.613 71.3056C114.832 70.6442 115.144 70.0791 115.551 69.6103C115.957 69.1363 116.444 68.7744 117.012 68.5244C117.584 68.2744 118.228 68.1494 118.941 68.1494C119.847 68.1494 120.613 68.316 121.238 68.6494C121.863 68.9827 122.347 69.4436 122.691 70.0322C123.04 70.6207 123.254 71.2952 123.332 72.0556H121.379C121.327 71.566 121.212 71.1468 121.035 70.7978C120.863 70.4488 120.608 70.1832 120.269 70.0009C119.931 69.8134 119.488 69.7197 118.941 69.7197C118.493 69.7197 118.103 69.803 117.769 69.9697C117.436 70.1363 117.157 70.3811 116.933 70.7041C116.709 71.027 116.54 71.4254 116.426 71.8994C116.316 72.3681 116.262 72.9046 116.262 73.5087V74.4697C116.262 75.0426 116.311 75.5634 116.41 76.0322C116.514 76.4957 116.67 76.8942 116.879 77.2275C117.092 77.5608 117.363 77.8186 117.691 78.0009C118.019 78.1832 118.413 78.2744 118.871 78.2744C119.428 78.2744 119.879 78.1858 120.222 78.0087C120.571 77.8317 120.834 77.5738 121.012 77.2353C121.194 76.8916 121.314 76.4723 121.371 75.9775ZM127.066 68.3056V79.6806H125.105V68.3056H127.066ZM133.902 68.3056L129.293 73.7822L126.668 76.5634L126.324 74.6181L128.199 72.3056L131.512 68.3056H133.902ZM131.793 79.6806L128.051 74.29L129.402 72.9541L134.121 79.6806H131.793ZM82.285 87.3056V98.6806H80.3397V87.3056H82.285ZM85.8553 87.3056V88.8681H76.8006V87.3056H85.8553ZM96.2069 92.6806V93.3056C96.2069 94.165 96.0949 94.9358 95.8709 95.6181C95.647 96.3004 95.3267 96.8811 94.91 97.3603C94.4985 97.8395 94.0037 98.2067 93.4256 98.4619C92.8475 98.7119 92.2069 98.8369 91.5037 98.8369C90.8058 98.8369 90.1678 98.7119 89.5897 98.4619C89.0168 98.2067 88.5194 97.8395 88.0975 97.3603C87.6756 96.8811 87.3475 96.3004 87.1131 95.6181C86.884 94.9358 86.7694 94.165 86.7694 93.3056V92.6806C86.7694 91.8212 86.884 91.053 87.1131 90.3759C87.3423 89.6936 87.6652 89.1129 88.0819 88.6337C88.5037 88.1494 89.0011 87.7822 89.5741 87.5322C90.1522 87.277 90.7902 87.1494 91.4881 87.1494C92.1912 87.1494 92.8319 87.277 93.41 87.5322C93.9881 87.7822 94.4855 88.1494 94.9022 88.6337C95.3189 89.1129 95.6392 89.6936 95.8631 90.3759C96.0923 91.053 96.2069 91.8212 96.2069 92.6806ZM94.2459 93.3056V92.665C94.2459 92.0296 94.1834 91.4697 94.0584 90.9853C93.9386 90.4957 93.759 90.0869 93.5194 89.7587C93.285 89.4254 92.9959 89.1754 92.6522 89.0087C92.3084 88.8369 91.9204 88.7509 91.4881 88.7509C91.0558 88.7509 90.6704 88.8369 90.3319 89.0087C89.9933 89.1754 89.7043 89.4254 89.4647 89.7587C89.2303 90.0869 89.0506 90.4957 88.9256 90.9853C88.8006 91.4697 88.7381 92.0296 88.7381 92.665V93.3056C88.7381 93.941 88.8006 94.5035 88.9256 94.9931C89.0506 95.4827 89.2329 95.8968 89.4725 96.2353C89.7173 96.5686 90.009 96.8212 90.3475 96.9931C90.686 97.1598 91.0715 97.2431 91.5037 97.2431C91.9412 97.2431 92.3293 97.1598 92.6678 96.9931C93.0064 96.8212 93.2928 96.5686 93.5272 96.2353C93.7616 95.8968 93.9386 95.4827 94.0584 94.9931C94.1834 94.5035 94.2459 93.941 94.2459 93.3056ZM107.238 92.6806V93.3056C107.238 94.165 107.126 94.9358 106.902 95.6181C106.678 96.3004 106.358 96.8811 105.941 97.3603C105.53 97.8395 105.035 98.2067 104.457 98.4619C103.879 98.7119 103.238 98.8369 102.535 98.8369C101.837 98.8369 101.199 98.7119 100.621 98.4619C100.048 98.2067 99.5506 97.8395 99.1287 97.3603C98.7069 96.8811 98.3787 96.3004 98.1444 95.6181C97.9152 94.9358 97.8006 94.165 97.8006 93.3056V92.6806C97.8006 91.8212 97.9152 91.053 98.1444 90.3759C98.3735 89.6936 98.6965 89.1129 99.1131 88.6337C99.535 88.1494 100.032 87.7822 100.605 87.5322C101.183 87.277 101.821 87.1494 102.519 87.1494C103.222 87.1494 103.863 87.277 104.441 87.5322C105.019 87.7822 105.517 88.1494 105.933 88.6337C106.35 89.1129 106.67 89.6936 106.894 90.3759C107.124 91.053 107.238 91.8212 107.238 92.6806ZM105.277 93.3056V92.665C105.277 92.0296 105.215 91.4697 105.09 90.9853C104.97 90.4957 104.79 90.0869 104.551 89.7587C104.316 89.4254 104.027 89.1754 103.683 89.0087C103.34 88.8369 102.952 88.7509 102.519 88.7509C102.087 88.7509 101.702 88.8369 101.363 89.0087C101.025 89.1754 100.736 89.4254 100.496 89.7587C100.262 90.0869 100.082 90.4957 99.9569 90.9853C99.8319 91.4697 99.7694 92.0296 99.7694 92.665V93.3056C99.7694 93.941 99.8319 94.5035 99.9569 94.9931C100.082 95.4827 100.264 95.8968 100.504 96.2353C100.749 96.5686 101.04 96.8212 101.379 96.9931C101.717 97.1598 102.103 97.2431 102.535 97.2431C102.972 97.2431 103.361 97.1598 103.699 96.9931C104.038 96.8212 104.324 96.5686 104.558 96.2353C104.793 95.8968 104.97 95.4827 105.09 94.9931C105.215 94.5035 105.277 93.941 105.277 93.3056ZM116.324 97.1259V98.6806H110.613V97.1259H116.324ZM111.16 87.3056V98.6806H109.199V87.3056H111.16ZM122.105 93.54H119.207L119.191 92.1103H121.722C122.15 92.1103 122.512 92.0478 122.808 91.9228C123.111 91.7926 123.34 91.6077 123.496 91.3681C123.652 91.1233 123.73 90.8291 123.73 90.4853C123.73 90.1051 123.657 89.7952 123.512 89.5556C123.366 89.316 123.142 89.1416 122.84 89.0322C122.543 88.9228 122.163 88.8681 121.699 88.8681H119.801V98.6806H117.84V87.3056H121.699C122.324 87.3056 122.881 87.3655 123.371 87.4853C123.866 87.6051 124.285 87.7926 124.629 88.0478C124.978 88.2978 125.241 88.6155 125.418 89.0009C125.6 89.3863 125.691 89.8447 125.691 90.3759C125.691 90.8447 125.579 91.2744 125.355 91.665C125.131 92.0504 124.801 92.3655 124.363 92.6103C123.926 92.8551 123.381 93.0009 122.73 93.0478L122.105 93.54ZM122.019 98.6806H118.59L119.472 97.1259H122.019C122.462 97.1259 122.832 97.053 123.129 96.9072C123.426 96.7561 123.647 96.5504 123.793 96.29C123.944 96.0244 124.019 95.7145 124.019 95.3603C124.019 94.9905 123.954 94.6702 123.824 94.3994C123.694 94.1233 123.488 93.9124 123.207 93.7666C122.926 93.6155 122.558 93.54 122.105 93.54H119.902L119.918 92.1103H122.785L123.23 92.6494C123.855 92.6702 124.368 92.8082 124.769 93.0634C125.176 93.3186 125.478 93.6494 125.676 94.0556C125.874 94.4619 125.972 94.8994 125.972 95.3681C125.972 96.0921 125.814 96.6988 125.496 97.1884C125.183 97.678 124.733 98.0504 124.144 98.3056C123.556 98.5556 122.847 98.6806 122.019 98.6806ZM132.379 88.8212L128.98 98.6806H126.926L131.207 87.3056H132.519L132.379 88.8212ZM135.223 98.6806L131.816 88.8212L131.668 87.3056H132.988L137.285 98.6806H135.223ZM135.058 94.4619V96.0166H128.871V94.4619H135.058ZM138.558 87.3056H142.582C143.446 87.3056 144.183 87.4358 144.793 87.6962C145.402 87.9567 145.868 88.3421 146.191 88.8525C146.519 89.3577 146.683 89.9827 146.683 90.7275C146.683 91.2952 146.579 91.7952 146.371 92.2275C146.163 92.6598 145.868 93.0244 145.488 93.3212C145.108 93.6129 144.655 93.8395 144.129 94.0009L143.535 94.29H139.918L139.902 92.7353H142.613C143.082 92.7353 143.473 92.652 143.785 92.4853C144.098 92.3186 144.332 92.0921 144.488 91.8056C144.65 91.514 144.73 91.1858 144.73 90.8212C144.73 90.4254 144.652 90.0817 144.496 89.79C144.345 89.4931 144.111 89.2666 143.793 89.1103C143.475 88.9488 143.071 88.8681 142.582 88.8681H140.519V98.6806H138.558V87.3056ZM145.051 98.6806L142.379 93.5712L144.433 93.5634L147.144 98.5791V98.6806H145.051ZM69.6053 109.384V108.321C69.6053 107.993 69.6626 107.655 69.7772 107.306C69.897 106.951 70.061 106.616 70.2694 106.298C70.4829 105.975 70.7251 105.699 70.9959 105.47L71.9334 106.056C71.7251 106.384 71.5532 106.73 71.4178 107.095C71.2876 107.454 71.2225 107.86 71.2225 108.313V109.384H69.6053ZM76.7772 117.681H74.3475L74.3631 116.126H76.7772C77.4803 116.126 78.0689 115.972 78.5428 115.665C79.022 115.358 79.3814 114.918 79.6209 114.345C79.8657 113.772 79.9881 113.089 79.9881 112.298V111.681C79.9881 111.066 79.9178 110.522 79.7772 110.048C79.6418 109.574 79.4386 109.175 79.1678 108.852C78.9022 108.53 78.5741 108.285 78.1834 108.118C77.798 107.951 77.3527 107.868 76.8475 107.868H74.3006V106.306H76.8475C77.6027 106.306 78.2928 106.433 78.9178 106.688C79.5428 106.938 80.0819 107.3 80.535 107.774C80.9933 108.248 81.3449 108.816 81.5897 109.477C81.8345 110.139 81.9569 110.879 81.9569 111.696V112.298C81.9569 113.116 81.8345 113.855 81.5897 114.517C81.3449 115.178 80.9933 115.746 80.535 116.22C80.0767 116.688 79.5298 117.05 78.8944 117.306C78.2642 117.556 77.5584 117.681 76.7772 117.681ZM75.4334 106.306V117.681H73.4725V106.306H75.4334ZM83.3787 113.548V113.368C83.3787 112.759 83.4673 112.194 83.6444 111.673C83.8215 111.147 84.0767 110.691 84.41 110.306C84.7485 109.915 85.16 109.613 85.6444 109.399C86.134 109.181 86.686 109.071 87.3006 109.071C87.9204 109.071 88.4725 109.181 88.9569 109.399C89.4465 109.613 89.8605 109.915 90.1991 110.306C90.5376 110.691 90.7954 111.147 90.9725 111.673C91.1496 112.194 91.2381 112.759 91.2381 113.368V113.548C91.2381 114.157 91.1496 114.722 90.9725 115.243C90.7954 115.764 90.5376 116.22 90.1991 116.61C89.8605 116.996 89.4491 117.298 88.9647 117.517C88.4803 117.73 87.9308 117.837 87.3162 117.837C86.6965 117.837 86.1418 117.73 85.6522 117.517C85.1678 117.298 84.7564 116.996 84.4178 116.61C84.0793 116.22 83.8215 115.764 83.6444 115.243C83.4673 114.722 83.3787 114.157 83.3787 113.548ZM85.2616 113.368V113.548C85.2616 113.928 85.3006 114.287 85.3787 114.626C85.4569 114.964 85.5793 115.261 85.7459 115.517C85.9126 115.772 86.1261 115.972 86.3866 116.118C86.647 116.264 86.9569 116.337 87.3162 116.337C87.6652 116.337 87.9673 116.264 88.2225 116.118C88.4829 115.972 88.6965 115.772 88.8631 115.517C89.0298 115.261 89.1522 114.964 89.2303 114.626C89.3136 114.287 89.3553 113.928 89.3553 113.548V113.368C89.3553 112.993 89.3136 112.639 89.2303 112.306C89.1522 111.967 89.0272 111.668 88.8553 111.407C88.6886 111.147 88.4751 110.944 88.2147 110.798C87.9595 110.647 87.6548 110.571 87.3006 110.571C86.9465 110.571 86.6392 110.647 86.3787 110.798C86.1235 110.944 85.9126 111.147 85.7459 111.407C85.5793 111.668 85.4569 111.967 85.3787 112.306C85.3006 112.639 85.2616 112.993 85.2616 113.368ZM95.1131 115.806L97.0662 109.227H98.2694L97.9412 111.196L95.9725 117.681H94.8944L95.1131 115.806ZM93.9647 109.227L95.4881 115.837L95.6131 117.681H94.41L92.1209 109.227H93.9647ZM100.097 115.759L101.574 109.227H103.41L101.129 117.681H99.9256L100.097 115.759ZM98.4725 109.227L100.402 115.727L100.644 117.681H99.5662L97.5741 111.188L97.2459 109.227H98.4725ZM106.558 111.032V117.681H104.676V109.227H106.449L106.558 111.032ZM106.222 113.142L105.613 113.134C105.618 112.535 105.702 111.985 105.863 111.485C106.03 110.985 106.259 110.556 106.551 110.196C106.847 109.837 107.202 109.561 107.613 109.368C108.025 109.17 108.483 109.071 108.988 109.071C109.394 109.071 109.762 109.129 110.09 109.243C110.423 109.352 110.707 109.532 110.941 109.782C111.181 110.032 111.363 110.358 111.488 110.759C111.613 111.155 111.676 111.642 111.676 112.22V117.681H109.785V112.212C109.785 111.806 109.725 111.485 109.605 111.251C109.491 111.011 109.321 110.842 109.097 110.743C108.879 110.639 108.605 110.587 108.277 110.587C107.954 110.587 107.665 110.655 107.41 110.79C107.155 110.925 106.939 111.11 106.762 111.345C106.59 111.579 106.457 111.85 106.363 112.157C106.269 112.464 106.222 112.793 106.222 113.142ZM115.613 105.681V117.681H113.722V105.681H115.613ZM117.316 113.548V113.368C117.316 112.759 117.405 112.194 117.582 111.673C117.759 111.147 118.014 110.691 118.347 110.306C118.686 109.915 119.097 109.613 119.582 109.399C120.071 109.181 120.624 109.071 121.238 109.071C121.858 109.071 122.41 109.181 122.894 109.399C123.384 109.613 123.798 109.915 124.137 110.306C124.475 110.691 124.733 111.147 124.91 111.673C125.087 112.194 125.176 112.759 125.176 113.368V113.548C125.176 114.157 125.087 114.722 124.91 115.243C124.733 115.764 124.475 116.22 124.137 116.61C123.798 116.996 123.387 117.298 122.902 117.517C122.418 117.73 121.868 117.837 121.254 117.837C120.634 117.837 120.079 117.73 119.59 117.517C119.105 117.298 118.694 116.996 118.355 116.61C118.017 116.22 117.759 115.764 117.582 115.243C117.405 114.722 117.316 114.157 117.316 113.548ZM119.199 113.368V113.548C119.199 113.928 119.238 114.287 119.316 114.626C119.394 114.964 119.517 115.261 119.683 115.517C119.85 115.772 120.064 115.972 120.324 116.118C120.584 116.264 120.894 116.337 121.254 116.337C121.603 116.337 121.905 116.264 122.16 116.118C122.42 115.972 122.634 115.772 122.801 115.517C122.967 115.261 123.09 114.964 123.168 114.626C123.251 114.287 123.293 113.928 123.293 113.548V113.368C123.293 112.993 123.251 112.639 123.168 112.306C123.09 111.967 122.965 111.668 122.793 111.407C122.626 111.147 122.413 110.944 122.152 110.798C121.897 110.647 121.592 110.571 121.238 110.571C120.884 110.571 120.577 110.647 120.316 110.798C120.061 110.944 119.85 111.147 119.683 111.407C119.517 111.668 119.394 111.967 119.316 112.306C119.238 112.639 119.199 112.993 119.199 113.368ZM131.519 115.985V111.954C131.519 111.652 131.465 111.392 131.355 111.173C131.246 110.954 131.079 110.785 130.855 110.665C130.637 110.545 130.361 110.485 130.027 110.485C129.72 110.485 129.454 110.537 129.23 110.642C129.006 110.746 128.832 110.886 128.707 111.063C128.582 111.241 128.519 111.441 128.519 111.665H126.644C126.644 111.332 126.725 111.009 126.887 110.696C127.048 110.384 127.282 110.105 127.59 109.86C127.897 109.616 128.264 109.423 128.691 109.282C129.118 109.142 129.598 109.071 130.129 109.071C130.764 109.071 131.327 109.178 131.816 109.392C132.311 109.605 132.699 109.928 132.98 110.36C133.267 110.787 133.41 111.324 133.41 111.97V115.727C133.41 116.113 133.436 116.459 133.488 116.767C133.545 117.069 133.626 117.332 133.73 117.556V117.681H131.801C131.712 117.477 131.642 117.22 131.59 116.907C131.543 116.589 131.519 116.282 131.519 115.985ZM131.793 112.54L131.808 113.704H130.457C130.108 113.704 129.801 113.738 129.535 113.806C129.269 113.868 129.048 113.962 128.871 114.087C128.694 114.212 128.561 114.363 128.473 114.54C128.384 114.717 128.34 114.918 128.34 115.142C128.34 115.366 128.392 115.571 128.496 115.759C128.6 115.941 128.751 116.084 128.949 116.188C129.152 116.293 129.397 116.345 129.683 116.345C130.069 116.345 130.405 116.267 130.691 116.11C130.983 115.949 131.212 115.754 131.379 115.524C131.545 115.29 131.634 115.069 131.644 114.86L132.254 115.696C132.191 115.91 132.084 116.139 131.933 116.384C131.782 116.629 131.584 116.863 131.34 117.087C131.1 117.306 130.811 117.485 130.473 117.626C130.139 117.767 129.754 117.837 129.316 117.837C128.764 117.837 128.272 117.727 127.84 117.509C127.407 117.285 127.069 116.985 126.824 116.61C126.579 116.23 126.457 115.8 126.457 115.321C126.457 114.873 126.54 114.477 126.707 114.134C126.879 113.785 127.129 113.493 127.457 113.259C127.79 113.024 128.196 112.847 128.676 112.727C129.155 112.602 129.702 112.54 130.316 112.54H131.793ZM140.535 115.931V105.681H142.426V117.681H140.715L140.535 115.931ZM135.035 113.548V113.384C135.035 112.743 135.111 112.16 135.262 111.634C135.413 111.102 135.631 110.647 135.918 110.267C136.204 109.881 136.553 109.587 136.965 109.384C137.376 109.175 137.84 109.071 138.355 109.071C138.866 109.071 139.314 109.17 139.699 109.368C140.084 109.566 140.413 109.85 140.683 110.22C140.954 110.584 141.17 111.022 141.332 111.532C141.493 112.037 141.608 112.6 141.676 113.22V113.743C141.608 114.347 141.493 114.899 141.332 115.399C141.17 115.899 140.954 116.332 140.683 116.696C140.413 117.061 140.082 117.342 139.691 117.54C139.306 117.738 138.855 117.837 138.34 117.837C137.829 117.837 137.368 117.73 136.957 117.517C136.551 117.303 136.204 117.004 135.918 116.618C135.631 116.233 135.413 115.78 135.262 115.259C135.111 114.733 135.035 114.162 135.035 113.548ZM136.918 113.384V113.548C136.918 113.933 136.952 114.293 137.019 114.626C137.092 114.959 137.204 115.254 137.355 115.509C137.506 115.759 137.702 115.957 137.941 116.102C138.186 116.243 138.478 116.313 138.816 116.313C139.243 116.313 139.595 116.22 139.871 116.032C140.147 115.845 140.363 115.592 140.519 115.274C140.681 114.951 140.79 114.592 140.848 114.196V112.782C140.816 112.475 140.751 112.188 140.652 111.923C140.558 111.657 140.431 111.425 140.269 111.227C140.108 111.024 139.907 110.868 139.668 110.759C139.433 110.644 139.155 110.587 138.832 110.587C138.488 110.587 138.196 110.66 137.957 110.806C137.717 110.951 137.519 111.152 137.363 111.407C137.212 111.662 137.1 111.959 137.027 112.298C136.954 112.636 136.918 112.998 136.918 113.384ZM149.137 115.392C149.137 115.204 149.09 115.035 148.996 114.884C148.902 114.727 148.723 114.587 148.457 114.462C148.196 114.337 147.811 114.222 147.301 114.118C146.853 114.019 146.441 113.902 146.066 113.767C145.696 113.626 145.379 113.457 145.113 113.259C144.848 113.061 144.642 112.826 144.496 112.556C144.35 112.285 144.277 111.972 144.277 111.618C144.277 111.274 144.353 110.949 144.504 110.642C144.655 110.334 144.871 110.063 145.152 109.829C145.433 109.595 145.775 109.41 146.176 109.274C146.582 109.139 147.035 109.071 147.535 109.071C148.243 109.071 148.85 109.191 149.355 109.431C149.866 109.665 150.256 109.985 150.527 110.392C150.798 110.793 150.933 111.246 150.933 111.751H149.051C149.051 111.527 148.993 111.319 148.879 111.126C148.769 110.928 148.603 110.769 148.379 110.649C148.155 110.524 147.874 110.462 147.535 110.462C147.212 110.462 146.944 110.514 146.73 110.618C146.522 110.717 146.366 110.847 146.262 111.009C146.163 111.17 146.113 111.347 146.113 111.54C146.113 111.681 146.139 111.808 146.191 111.923C146.249 112.032 146.342 112.134 146.473 112.227C146.603 112.316 146.78 112.399 147.004 112.477C147.233 112.556 147.519 112.631 147.863 112.704C148.509 112.839 149.064 113.014 149.527 113.227C149.996 113.436 150.355 113.707 150.605 114.04C150.855 114.368 150.98 114.785 150.98 115.29C150.98 115.665 150.9 116.009 150.738 116.321C150.582 116.629 150.353 116.897 150.051 117.126C149.749 117.35 149.387 117.524 148.965 117.649C148.548 117.774 148.079 117.837 147.558 117.837C146.793 117.837 146.144 117.701 145.613 117.431C145.082 117.155 144.678 116.803 144.402 116.376C144.131 115.944 143.996 115.496 143.996 115.032H145.816C145.837 115.381 145.933 115.66 146.105 115.868C146.282 116.071 146.501 116.22 146.762 116.313C147.027 116.402 147.301 116.446 147.582 116.446C147.92 116.446 148.204 116.402 148.433 116.313C148.663 116.22 148.837 116.095 148.957 115.938C149.077 115.777 149.137 115.595 149.137 115.392ZM154.418 105.681V106.782C154.418 107.11 154.358 107.451 154.238 107.806C154.124 108.155 153.962 108.491 153.754 108.813C153.545 109.131 153.306 109.407 153.035 109.642L152.09 109.048C152.303 108.725 152.475 108.384 152.605 108.024C152.741 107.66 152.808 107.251 152.808 106.798V105.681H154.418ZM96.5272 125.306V136.681H94.5662V125.306H96.5272ZM105.683 132.977H107.637C107.574 133.722 107.366 134.386 107.012 134.97C106.657 135.548 106.16 136.004 105.519 136.337C104.879 136.67 104.1 136.837 103.183 136.837C102.48 136.837 101.847 136.712 101.285 136.462C100.722 136.207 100.241 135.847 99.8397 135.384C99.4386 134.915 99.1314 134.35 98.9178 133.688C98.7095 133.027 98.6053 132.287 98.6053 131.47V130.524C98.6053 129.707 98.7121 128.967 98.9256 128.306C99.1444 127.644 99.4569 127.079 99.8631 126.61C100.269 126.136 100.756 125.774 101.324 125.524C101.897 125.274 102.54 125.149 103.254 125.149C104.16 125.149 104.926 125.316 105.551 125.649C106.176 125.983 106.66 126.444 107.004 127.032C107.353 127.621 107.566 128.295 107.644 129.056H105.691C105.639 128.566 105.525 128.147 105.347 127.798C105.176 127.449 104.92 127.183 104.582 127.001C104.243 126.813 103.801 126.72 103.254 126.72C102.806 126.72 102.415 126.803 102.082 126.97C101.749 127.136 101.47 127.381 101.246 127.704C101.022 128.027 100.853 128.425 100.738 128.899C100.629 129.368 100.574 129.905 100.574 130.509V131.47C100.574 132.043 100.624 132.563 100.722 133.032C100.827 133.496 100.983 133.894 101.191 134.227C101.405 134.561 101.676 134.819 102.004 135.001C102.332 135.183 102.725 135.274 103.183 135.274C103.741 135.274 104.191 135.186 104.535 135.009C104.884 134.832 105.147 134.574 105.324 134.235C105.506 133.892 105.626 133.472 105.683 132.977ZM118.488 130.681V131.306C118.488 132.165 118.376 132.936 118.152 133.618C117.928 134.3 117.608 134.881 117.191 135.36C116.78 135.839 116.285 136.207 115.707 136.462C115.129 136.712 114.488 136.837 113.785 136.837C113.087 136.837 112.449 136.712 111.871 136.462C111.298 136.207 110.801 135.839 110.379 135.36C109.957 134.881 109.629 134.3 109.394 133.618C109.165 132.936 109.051 132.165 109.051 131.306V130.681C109.051 129.821 109.165 129.053 109.394 128.376C109.624 127.694 109.946 127.113 110.363 126.634C110.785 126.149 111.282 125.782 111.855 125.532C112.433 125.277 113.071 125.149 113.769 125.149C114.472 125.149 115.113 125.277 115.691 125.532C116.269 125.782 116.767 126.149 117.183 126.634C117.6 127.113 117.92 127.694 118.144 128.376C118.374 129.053 118.488 129.821 118.488 130.681ZM116.527 131.306V130.665C116.527 130.03 116.465 129.47 116.34 128.985C116.22 128.496 116.04 128.087 115.801 127.759C115.566 127.425 115.277 127.175 114.933 127.009C114.59 126.837 114.202 126.751 113.769 126.751C113.337 126.751 112.952 126.837 112.613 127.009C112.275 127.175 111.986 127.425 111.746 127.759C111.512 128.087 111.332 128.496 111.207 128.985C111.082 129.47 111.019 130.03 111.019 130.665V131.306C111.019 131.941 111.082 132.504 111.207 132.993C111.332 133.483 111.514 133.897 111.754 134.235C111.999 134.569 112.29 134.821 112.629 134.993C112.967 135.16 113.353 135.243 113.785 135.243C114.222 135.243 114.611 135.16 114.949 134.993C115.288 134.821 115.574 134.569 115.808 134.235C116.043 133.897 116.22 133.483 116.34 132.993C116.465 132.504 116.527 131.941 116.527 131.306ZM129.473 125.306V136.681H127.512L122.41 128.532V136.681H120.449V125.306H122.41L127.527 133.47V125.306H129.473ZM115.832 168.446V170.142H108.035V168.446H115.832ZM112.847 165.259V173.54H111.027V165.259H112.847ZM97.7459 208.977H99.6991C99.6366 209.722 99.4282 210.386 99.0741 210.97C98.7199 211.548 98.2225 212.004 97.5819 212.337C96.9412 212.67 96.1626 212.837 95.2459 212.837C94.5428 212.837 93.91 212.712 93.3475 212.462C92.785 212.207 92.3032 211.847 91.9022 211.384C91.5011 210.915 91.1939 210.35 90.9803 209.688C90.772 209.027 90.6678 208.287 90.6678 207.47V206.524C90.6678 205.707 90.7746 204.967 90.9881 204.306C91.2069 203.644 91.5194 203.079 91.9256 202.61C92.3319 202.136 92.8189 201.774 93.3866 201.524C93.9595 201.274 94.6027 201.149 95.3162 201.149C96.2225 201.149 96.9881 201.316 97.6131 201.649C98.2381 201.983 98.7225 202.444 99.0662 203.032C99.4152 203.621 99.6287 204.295 99.7069 205.056H97.7537C97.7017 204.566 97.5871 204.147 97.41 203.798C97.2381 203.449 96.9829 203.183 96.6444 203.001C96.3058 202.813 95.8631 202.72 95.3162 202.72C94.8683 202.72 94.4777 202.803 94.1444 202.97C93.811 203.136 93.5324 203.381 93.3084 203.704C93.0845 204.027 92.9152 204.425 92.8006 204.899C92.6912 205.368 92.6366 205.905 92.6366 206.509V207.47C92.6366 208.043 92.686 208.563 92.785 209.032C92.8892 209.496 93.0454 209.894 93.2537 210.227C93.4673 210.561 93.7381 210.819 94.0662 211.001C94.3944 211.183 94.7876 211.274 95.2459 211.274C95.8032 211.274 96.2537 211.186 96.5975 211.009C96.9465 210.832 97.2095 210.574 97.3866 210.235C97.5689 209.892 97.6886 209.472 97.7459 208.977ZM108.605 211.126V212.681H102.894V211.126H108.605ZM103.441 201.306V212.681H101.48V201.306H103.441ZM112.215 201.306V212.681H110.254V201.306H112.215ZM121.371 208.977H123.324C123.262 209.722 123.053 210.386 122.699 210.97C122.345 211.548 121.847 212.004 121.207 212.337C120.566 212.67 119.788 212.837 118.871 212.837C118.168 212.837 117.535 212.712 116.972 212.462C116.41 212.207 115.928 211.847 115.527 211.384C115.126 210.915 114.819 210.35 114.605 209.688C114.397 209.027 114.293 208.287 114.293 207.47V206.524C114.293 205.707 114.4 204.967 114.613 204.306C114.832 203.644 115.144 203.079 115.551 202.61C115.957 202.136 116.444 201.774 117.012 201.524C117.584 201.274 118.228 201.149 118.941 201.149C119.847 201.149 120.613 201.316 121.238 201.649C121.863 201.983 122.347 202.444 122.691 203.032C123.04 203.621 123.254 204.295 123.332 205.056H121.379C121.327 204.566 121.212 204.147 121.035 203.798C120.863 203.449 120.608 203.183 120.269 203.001C119.931 202.813 119.488 202.72 118.941 202.72C118.493 202.72 118.103 202.803 117.769 202.97C117.436 203.136 117.157 203.381 116.933 203.704C116.709 204.027 116.54 204.425 116.426 204.899C116.316 205.368 116.262 205.905 116.262 206.509V207.47C116.262 208.043 116.311 208.563 116.41 209.032C116.514 209.496 116.67 209.894 116.879 210.227C117.092 210.561 117.363 210.819 117.691 211.001C118.019 211.183 118.413 211.274 118.871 211.274C119.428 211.274 119.879 211.186 120.222 211.009C120.571 210.832 120.834 210.574 121.012 210.235C121.194 209.892 121.314 209.472 121.371 208.977ZM127.066 201.306V212.681H125.105V201.306H127.066ZM133.902 201.306L129.293 206.782L126.668 209.563L126.324 207.618L128.199 205.306L131.512 201.306H133.902ZM131.793 212.681L128.051 207.29L129.402 205.954L134.121 212.681H131.793ZM79.9725 223.384L80.1287 222.329C80.186 221.949 80.2954 221.587 80.4569 221.243C80.6235 220.894 80.8267 220.571 81.0662 220.274C81.3058 219.972 81.5741 219.701 81.8709 219.462L82.8006 220.071C82.5506 220.415 82.3293 220.769 82.1366 221.134C81.9439 221.493 81.8084 221.886 81.7303 222.313L81.5428 223.384H79.9725ZM85.0584 220.306H86.6912L88.3553 229.063L93.0584 220.306H94.8397L88.6522 231.681H87.2928L85.0584 220.306ZM84.2459 220.306H85.8709L84.8319 227.97L84.1834 231.681H82.2694L84.2459 220.306ZM93.9412 220.306H95.5819L93.6053 231.681H91.6912L92.3709 227.806L93.9412 220.306ZM100.613 229.985L101.254 225.931C101.285 225.66 101.267 225.415 101.199 225.196C101.131 224.977 101.006 224.806 100.824 224.681C100.647 224.55 100.413 224.483 100.121 224.477C99.8605 224.472 99.6157 224.517 99.3866 224.61C99.1574 224.699 98.9621 224.832 98.8006 225.009C98.6444 225.186 98.5402 225.402 98.4881 225.657L96.6522 225.665C96.6834 225.222 96.8136 224.837 97.0428 224.509C97.2772 224.175 97.5715 223.902 97.9256 223.688C98.285 223.47 98.6704 223.311 99.0819 223.212C99.4985 223.108 99.9048 223.058 100.301 223.063C100.874 223.074 101.381 223.196 101.824 223.431C102.267 223.665 102.603 223.996 102.832 224.423C103.066 224.85 103.155 225.366 103.097 225.97L102.48 229.735C102.433 230.032 102.4 230.337 102.379 230.649C102.363 230.957 102.405 231.254 102.504 231.54L102.488 231.681L100.668 231.688C100.59 231.412 100.551 231.131 100.551 230.845C100.551 230.553 100.571 230.267 100.613 229.985ZM101.465 226.54L101.277 227.704L100.058 227.696C99.8084 227.696 99.5506 227.72 99.285 227.767C99.0246 227.813 98.7798 227.894 98.5506 228.009C98.3215 228.123 98.1287 228.28 97.9725 228.477C97.8162 228.67 97.7199 228.912 97.6834 229.204C97.6574 229.438 97.6834 229.642 97.7616 229.813C97.8449 229.98 97.9699 230.113 98.1366 230.212C98.3032 230.311 98.5011 230.363 98.7303 230.368C99.0376 230.373 99.3397 230.313 99.6366 230.188C99.9386 230.063 100.199 229.886 100.418 229.657C100.642 229.423 100.795 229.155 100.879 228.852L101.371 229.696C101.256 230.014 101.095 230.306 100.887 230.571C100.683 230.837 100.446 231.066 100.176 231.259C99.9048 231.451 99.6079 231.6 99.285 231.704C98.9673 231.808 98.6392 231.858 98.3006 231.852C97.8319 231.842 97.4048 231.735 97.0194 231.532C96.634 231.324 96.3293 231.035 96.1053 230.665C95.8814 230.295 95.7824 229.868 95.8084 229.384C95.8345 228.837 95.9725 228.381 96.2225 228.017C96.4777 227.647 96.8032 227.355 97.1991 227.142C97.6001 226.923 98.0376 226.767 98.5116 226.673C98.9855 226.579 99.4543 226.532 99.9178 226.532L101.465 226.54ZM106.91 230.11L109.972 223.227H111.941L107.762 231.681H106.535L106.91 230.11ZM106.433 223.227L107.402 230.306L107.277 231.681H106.129L104.582 223.227H106.433ZM115.316 231.837C114.738 231.826 114.225 231.714 113.777 231.501C113.334 231.282 112.967 230.988 112.676 230.618C112.384 230.243 112.173 229.813 112.043 229.329C111.913 228.839 111.868 228.319 111.91 227.767L111.941 227.446C111.999 226.879 112.137 226.332 112.355 225.806C112.574 225.274 112.866 224.803 113.23 224.392C113.6 223.975 114.035 223.647 114.535 223.407C115.035 223.168 115.592 223.056 116.207 223.071C116.795 223.082 117.293 223.204 117.699 223.438C118.105 223.673 118.428 223.985 118.668 224.376C118.907 224.761 119.066 225.199 119.144 225.688C119.228 226.178 119.241 226.686 119.183 227.212L119.074 228.017H112.73L112.949 226.665L117.426 226.673L117.457 226.509C117.504 226.181 117.486 225.871 117.402 225.579C117.324 225.287 117.178 225.048 116.965 224.86C116.751 224.673 116.465 224.574 116.105 224.563C115.715 224.553 115.379 224.634 115.097 224.806C114.821 224.977 114.592 225.209 114.41 225.501C114.228 225.793 114.084 226.11 113.98 226.454C113.881 226.793 113.811 227.123 113.769 227.446L113.738 227.759C113.707 228.066 113.715 228.371 113.762 228.673C113.808 228.975 113.9 229.251 114.035 229.501C114.17 229.746 114.358 229.946 114.597 230.102C114.837 230.254 115.134 230.334 115.488 230.345C115.931 230.355 116.332 230.264 116.691 230.071C117.056 229.873 117.387 229.618 117.683 229.306L118.59 230.267C118.35 230.626 118.053 230.923 117.699 231.157C117.35 231.392 116.97 231.566 116.558 231.681C116.152 231.79 115.738 231.842 115.316 231.837ZM122.848 224.931L121.676 231.681H119.84L121.308 223.227H123.051L122.848 224.931ZM125.598 223.157L125.394 224.915C125.275 224.894 125.152 224.876 125.027 224.86C124.907 224.845 124.788 224.837 124.668 224.837C124.35 224.832 124.064 224.876 123.808 224.97C123.553 225.063 123.329 225.199 123.137 225.376C122.944 225.548 122.782 225.756 122.652 226.001C122.522 226.241 122.42 226.509 122.348 226.806L121.91 226.837C121.962 226.425 122.051 225.998 122.176 225.556C122.306 225.113 122.486 224.701 122.715 224.321C122.944 223.936 123.236 223.626 123.59 223.392C123.944 223.152 124.374 223.037 124.879 223.048C124.999 223.048 125.118 223.058 125.238 223.079C125.358 223.1 125.478 223.126 125.598 223.157ZM128.746 223.227L127.277 231.681H125.441L126.91 223.227H128.746ZM127.168 221.04C127.163 220.738 127.262 220.491 127.465 220.298C127.668 220.105 127.918 220.006 128.215 220.001C128.501 219.996 128.746 220.084 128.949 220.267C129.157 220.444 129.262 220.681 129.262 220.977C129.267 221.28 129.165 221.524 128.957 221.712C128.754 221.899 128.506 221.996 128.215 222.001C127.928 222.006 127.683 221.923 127.48 221.751C127.277 221.574 127.173 221.337 127.168 221.04ZM132.894 230.345C133.202 230.35 133.483 230.293 133.738 230.173C133.993 230.053 134.204 229.881 134.371 229.657C134.543 229.433 134.663 229.175 134.73 228.884L136.473 228.876C136.405 229.48 136.191 230.006 135.832 230.454C135.478 230.902 135.035 231.248 134.504 231.493C133.978 231.733 133.42 231.847 132.832 231.837C132.233 231.826 131.72 231.704 131.293 231.47C130.871 231.235 130.53 230.92 130.269 230.524C130.009 230.129 129.827 229.681 129.723 229.181C129.624 228.675 129.6 228.152 129.652 227.61L129.683 227.329C129.746 226.751 129.884 226.204 130.098 225.688C130.316 225.173 130.605 224.717 130.965 224.321C131.329 223.92 131.759 223.608 132.254 223.384C132.749 223.16 133.306 223.056 133.926 223.071C134.551 223.082 135.09 223.225 135.543 223.501C135.996 223.777 136.342 224.155 136.582 224.634C136.821 225.108 136.939 225.649 136.933 226.259L135.207 226.251C135.207 225.959 135.157 225.688 135.058 225.438C134.965 225.183 134.814 224.977 134.605 224.821C134.402 224.66 134.137 224.574 133.808 224.563C133.423 224.553 133.092 224.629 132.816 224.79C132.545 224.951 132.319 225.17 132.137 225.446C131.959 225.722 131.819 226.027 131.715 226.36C131.616 226.688 131.548 227.014 131.512 227.337L131.48 227.61C131.454 227.886 131.444 228.183 131.449 228.501C131.459 228.813 131.509 229.108 131.598 229.384C131.686 229.66 131.832 229.886 132.035 230.063C132.243 230.241 132.53 230.334 132.894 230.345ZM141.316 219.681L139.23 231.681H137.387L139.473 219.681H141.316ZM145.863 223.227L141.621 227.274L139.223 229.407L139.004 227.688L140.754 225.86L143.504 223.227H145.863ZM142.558 231.681L140.543 227.634L141.855 226.384L144.582 231.681H142.558ZM65.1053 247.696C65.1522 247.389 65.1235 247.131 65.0194 246.923C64.9152 246.709 64.7642 246.532 64.5662 246.392C64.3735 246.246 64.1548 246.123 63.91 246.024C63.6652 245.925 63.423 245.832 63.1834 245.743C62.7876 245.602 62.397 245.436 62.0116 245.243C61.6261 245.05 61.2772 244.821 60.9647 244.556C60.6574 244.29 60.4178 243.977 60.2459 243.618C60.0741 243.254 60.0037 242.829 60.035 242.345C60.0767 241.798 60.2303 241.324 60.4959 240.923C60.7668 240.517 61.1105 240.181 61.5272 239.915C61.9439 239.649 62.3996 239.454 62.8944 239.329C63.3892 239.199 63.8814 239.139 64.3709 239.149C65.0636 239.165 65.6808 239.313 66.2225 239.595C66.7642 239.876 67.1886 240.274 67.4959 240.79C67.8032 241.306 67.9439 241.918 67.9178 242.626H66.0116C66.0428 242.23 65.9933 241.892 65.8631 241.61C65.7381 241.324 65.5402 241.102 65.2694 240.946C64.9985 240.785 64.6626 240.701 64.2616 240.696C63.9022 240.686 63.5558 240.741 63.2225 240.86C62.8892 240.975 62.6053 241.155 62.3709 241.399C62.1418 241.644 61.9985 241.959 61.9412 242.345C61.8996 242.616 61.936 242.85 62.0506 243.048C62.1704 243.246 62.3345 243.412 62.5428 243.548C62.7511 243.683 62.9751 243.798 63.2147 243.892C63.4543 243.985 63.6782 244.069 63.8866 244.142C64.3084 244.287 64.7121 244.462 65.0975 244.665C65.4881 244.863 65.8345 245.1 66.1366 245.376C66.4386 245.652 66.6704 245.98 66.8319 246.36C66.9933 246.735 67.0558 247.175 67.0194 247.681C66.9725 248.238 66.8162 248.72 66.5506 249.126C66.285 249.527 65.9465 249.855 65.535 250.11C65.1235 250.366 64.6704 250.553 64.1756 250.673C63.6808 250.793 63.1808 250.847 62.6756 250.837C62.1392 250.832 61.6314 250.748 61.1522 250.587C60.6782 250.425 60.2616 250.191 59.9022 249.884C59.5428 249.571 59.2642 249.194 59.0662 248.751C58.8735 248.308 58.7876 247.803 58.8084 247.235L60.7147 247.243C60.6939 247.576 60.7251 247.873 60.8084 248.134C60.897 248.389 61.0324 248.602 61.2147 248.774C61.397 248.946 61.6183 249.076 61.8787 249.165C62.1444 249.254 62.4412 249.298 62.7694 249.298C63.1235 249.308 63.4673 249.259 63.8006 249.149C64.1392 249.04 64.4256 248.868 64.66 248.634C64.8996 248.394 65.048 248.082 65.1053 247.696ZM72.9491 248.985L73.5897 244.931C73.6209 244.66 73.6027 244.415 73.535 244.196C73.4673 243.977 73.3423 243.806 73.16 243.681C72.9829 243.55 72.7485 243.483 72.4569 243.477C72.1965 243.472 71.9517 243.517 71.7225 243.61C71.4933 243.699 71.298 243.832 71.1366 244.009C70.9803 244.186 70.8761 244.402 70.8241 244.657L68.9881 244.665C69.0194 244.222 69.1496 243.837 69.3787 243.509C69.6131 243.175 69.9074 242.902 70.2616 242.688C70.6209 242.47 71.0064 242.311 71.4178 242.212C71.8345 242.108 72.2407 242.058 72.6366 242.063C73.2095 242.074 73.7173 242.196 74.16 242.431C74.6027 242.665 74.9386 242.996 75.1678 243.423C75.4022 243.85 75.4907 244.366 75.4334 244.97L74.8162 248.735C74.7694 249.032 74.7355 249.337 74.7147 249.649C74.6991 249.957 74.7407 250.254 74.8397 250.54L74.8241 250.681L73.0037 250.688C72.9256 250.412 72.8866 250.131 72.8866 249.845C72.8866 249.553 72.9074 249.267 72.9491 248.985ZM73.8006 245.54L73.6131 246.704L72.3944 246.696C72.1444 246.696 71.8866 246.72 71.6209 246.767C71.3605 246.813 71.1157 246.894 70.8866 247.009C70.6574 247.123 70.4647 247.28 70.3084 247.477C70.1522 247.67 70.0558 247.912 70.0194 248.204C69.9933 248.438 70.0194 248.642 70.0975 248.813C70.1808 248.98 70.3058 249.113 70.4725 249.212C70.6392 249.311 70.8371 249.363 71.0662 249.368C71.3735 249.373 71.6756 249.313 71.9725 249.188C72.2746 249.063 72.535 248.886 72.7537 248.657C72.9777 248.423 73.1314 248.155 73.2147 247.852L73.7069 248.696C73.5923 249.014 73.4308 249.306 73.2225 249.571C73.0194 249.837 72.7824 250.066 72.5116 250.259C72.2407 250.451 71.9439 250.6 71.6209 250.704C71.3032 250.808 70.9751 250.858 70.6366 250.852C70.1678 250.842 69.7407 250.735 69.3553 250.532C68.9699 250.324 68.6652 250.035 68.4412 249.665C68.2173 249.295 68.1183 248.868 68.1444 248.384C68.1704 247.837 68.3084 247.381 68.5584 247.017C68.8136 246.647 69.1392 246.355 69.535 246.142C69.936 245.923 70.3735 245.767 70.8475 245.673C71.3215 245.579 71.7902 245.532 72.2537 245.532L73.8006 245.54ZM78.8709 250.681H77.0272L78.6053 241.415C78.6782 240.821 78.8553 240.306 79.1366 239.868C79.4178 239.425 79.7876 239.084 80.2459 238.845C80.7043 238.605 81.2407 238.488 81.8553 238.493C82.0428 238.498 82.2303 238.514 82.4178 238.54C82.6053 238.566 82.7902 238.6 82.9725 238.642L82.7928 240.11C82.6782 240.084 82.561 240.063 82.4412 240.048C82.3267 240.032 82.2095 240.022 82.0897 240.017C81.7928 240.017 81.5298 240.074 81.3006 240.188C81.0767 240.303 80.8918 240.464 80.7459 240.673C80.6053 240.876 80.5116 241.123 80.4647 241.415L78.8709 250.681ZM82.0272 242.227L81.7772 243.602H76.9959L77.2459 242.227H82.0272ZM85.4803 250.837C84.9022 250.826 84.3892 250.714 83.9412 250.501C83.4985 250.282 83.1314 249.988 82.8397 249.618C82.548 249.243 82.3371 248.813 82.2069 248.329C82.0767 247.839 82.0324 247.319 82.0741 246.767L82.1053 246.446C82.1626 245.879 82.3006 245.332 82.5194 244.806C82.7381 244.274 83.0298 243.803 83.3944 243.392C83.7642 242.975 84.1991 242.647 84.6991 242.407C85.1991 242.168 85.7564 242.056 86.3709 242.071C86.9595 242.082 87.4569 242.204 87.8631 242.438C88.2694 242.673 88.5923 242.985 88.8319 243.376C89.0715 243.761 89.2303 244.199 89.3084 244.688C89.3918 245.178 89.4048 245.686 89.3475 246.212L89.2381 247.017H82.8944L83.1131 245.665L87.5897 245.673L87.6209 245.509C87.6678 245.181 87.6496 244.871 87.5662 244.579C87.4881 244.287 87.3423 244.048 87.1287 243.86C86.9152 243.673 86.6287 243.574 86.2694 243.563C85.8787 243.553 85.5428 243.634 85.2616 243.806C84.9855 243.977 84.7564 244.209 84.5741 244.501C84.3918 244.793 84.2485 245.11 84.1444 245.454C84.0454 245.793 83.9751 246.123 83.9334 246.446L83.9022 246.759C83.8709 247.066 83.8787 247.371 83.9256 247.673C83.9725 247.975 84.0636 248.251 84.1991 248.501C84.3345 248.746 84.522 248.946 84.7616 249.102C85.0011 249.254 85.298 249.334 85.6522 249.345C86.0949 249.355 86.4959 249.264 86.8553 249.071C87.2199 248.873 87.5506 248.618 87.8475 248.306L88.7537 249.267C88.5142 249.626 88.2173 249.923 87.8631 250.157C87.5142 250.392 87.134 250.566 86.7225 250.681C86.3162 250.79 85.9022 250.842 85.4803 250.837ZM100.433 247.696C100.48 247.389 100.452 247.131 100.347 246.923C100.243 246.709 100.092 246.532 99.8944 246.392C99.7017 246.246 99.4829 246.123 99.2381 246.024C98.9933 245.925 98.7511 245.832 98.5116 245.743C98.1157 245.602 97.7251 245.436 97.3397 245.243C96.9543 245.05 96.6053 244.821 96.2928 244.556C95.9855 244.29 95.7459 243.977 95.5741 243.618C95.4022 243.254 95.3319 242.829 95.3631 242.345C95.4048 241.798 95.5584 241.324 95.8241 240.923C96.0949 240.517 96.4386 240.181 96.8553 239.915C97.272 239.649 97.7277 239.454 98.2225 239.329C98.7173 239.199 99.2095 239.139 99.6991 239.149C100.392 239.165 101.009 239.313 101.551 239.595C102.092 239.876 102.517 240.274 102.824 240.79C103.131 241.306 103.272 241.918 103.246 242.626H101.34C101.371 242.23 101.321 241.892 101.191 241.61C101.066 241.324 100.868 241.102 100.597 240.946C100.327 240.785 99.9907 240.701 99.5897 240.696C99.2303 240.686 98.884 240.741 98.5506 240.86C98.2173 240.975 97.9334 241.155 97.6991 241.399C97.4699 241.644 97.3267 241.959 97.2694 242.345C97.2277 242.616 97.2642 242.85 97.3787 243.048C97.4985 243.246 97.6626 243.412 97.8709 243.548C98.0793 243.683 98.3032 243.798 98.5428 243.892C98.7824 243.985 99.0064 244.069 99.2147 244.142C99.6366 244.287 100.04 244.462 100.426 244.665C100.816 244.863 101.163 245.1 101.465 245.376C101.767 245.652 101.999 245.98 102.16 246.36C102.321 246.735 102.384 247.175 102.347 247.681C102.301 248.238 102.144 248.72 101.879 249.126C101.613 249.527 101.275 249.855 100.863 250.11C100.452 250.366 99.9985 250.553 99.5037 250.673C99.009 250.793 98.509 250.847 98.0037 250.837C97.4673 250.832 96.9595 250.748 96.4803 250.587C96.0064 250.425 95.5897 250.191 95.2303 249.884C94.8709 249.571 94.5923 249.194 94.3944 248.751C94.2017 248.308 94.1157 247.803 94.1366 247.235L96.0428 247.243C96.022 247.576 96.0532 247.873 96.1366 248.134C96.2251 248.389 96.3605 248.602 96.5428 248.774C96.7251 248.946 96.9465 249.076 97.2069 249.165C97.4725 249.254 97.7694 249.298 98.0975 249.298C98.4517 249.308 98.7954 249.259 99.1287 249.149C99.4673 249.04 99.7537 248.868 99.9881 248.634C100.228 248.394 100.376 248.082 100.433 247.696ZM107.137 250.837C106.558 250.826 106.045 250.714 105.597 250.501C105.155 250.282 104.788 249.988 104.496 249.618C104.204 249.243 103.993 248.813 103.863 248.329C103.733 247.839 103.689 247.319 103.73 246.767L103.762 246.446C103.819 245.879 103.957 245.332 104.176 244.806C104.394 244.274 104.686 243.803 105.051 243.392C105.42 242.975 105.855 242.647 106.355 242.407C106.855 242.168 107.413 242.056 108.027 242.071C108.616 242.082 109.113 242.204 109.519 242.438C109.926 242.673 110.249 242.985 110.488 243.376C110.728 243.761 110.887 244.199 110.965 244.688C111.048 245.178 111.061 245.686 111.004 246.212L110.894 247.017H104.551L104.769 245.665L109.246 245.673L109.277 245.509C109.324 245.181 109.306 244.871 109.222 244.579C109.144 244.287 108.999 244.048 108.785 243.86C108.571 243.673 108.285 243.574 107.926 243.563C107.535 243.553 107.199 243.634 106.918 243.806C106.642 243.977 106.413 244.209 106.23 244.501C106.048 244.793 105.905 245.11 105.801 245.454C105.702 245.793 105.631 246.123 105.59 246.446L105.558 246.759C105.527 247.066 105.535 247.371 105.582 247.673C105.629 247.975 105.72 248.251 105.855 248.501C105.991 248.746 106.178 248.946 106.418 249.102C106.657 249.254 106.954 249.334 107.308 249.345C107.751 249.355 108.152 249.264 108.512 249.071C108.876 248.873 109.207 248.618 109.504 248.306L110.41 249.267C110.17 249.626 109.874 249.923 109.519 250.157C109.17 250.392 108.79 250.566 108.379 250.681C107.972 250.79 107.558 250.842 107.137 250.837ZM116.887 242.227L116.644 243.602H112.019L112.254 242.227H116.887ZM113.949 240.157H115.785L114.387 248.36C114.366 248.543 114.366 248.701 114.387 248.837C114.413 248.972 114.472 249.079 114.566 249.157C114.665 249.23 114.816 249.269 115.019 249.274C115.129 249.28 115.238 249.274 115.347 249.259C115.462 249.243 115.577 249.227 115.691 249.212L115.558 250.665C115.371 250.722 115.178 250.764 114.98 250.79C114.788 250.816 114.592 250.826 114.394 250.821C113.926 250.816 113.548 250.709 113.262 250.501C112.975 250.287 112.775 250.004 112.66 249.649C112.545 249.295 112.509 248.899 112.551 248.462L113.949 240.157ZM122.121 248.595L123.222 242.227H125.066L123.597 250.681H121.863L122.121 248.595ZM122.637 246.931L123.246 246.907C123.183 247.418 123.069 247.912 122.902 248.392C122.736 248.866 122.509 249.29 122.222 249.665C121.936 250.04 121.579 250.334 121.152 250.548C120.725 250.761 120.222 250.86 119.644 250.845C119.181 250.829 118.79 250.738 118.472 250.571C118.16 250.399 117.913 250.168 117.73 249.876C117.548 249.584 117.426 249.251 117.363 248.876C117.306 248.501 117.298 248.105 117.34 247.688L118.254 242.227H120.09L119.168 247.712C119.152 247.915 119.152 248.11 119.168 248.298C119.183 248.485 119.228 248.655 119.301 248.806C119.374 248.957 119.48 249.079 119.621 249.173C119.767 249.261 119.957 249.311 120.191 249.321C120.691 249.337 121.108 249.241 121.441 249.032C121.78 248.819 122.045 248.527 122.238 248.157C122.436 247.787 122.569 247.379 122.637 246.931ZM128.48 243.962L126.746 253.931H124.902L126.933 242.227H128.629L128.48 243.962ZM133.387 246.329L133.371 246.493C133.308 247.004 133.186 247.519 133.004 248.04C132.827 248.556 132.584 249.03 132.277 249.462C131.975 249.889 131.603 250.23 131.16 250.485C130.717 250.741 130.196 250.86 129.598 250.845C129.071 250.834 128.629 250.709 128.269 250.47C127.91 250.225 127.624 249.907 127.41 249.517C127.196 249.126 127.045 248.699 126.957 248.235C126.874 247.767 126.842 247.303 126.863 246.845L126.941 246.22C127.025 245.725 127.165 245.23 127.363 244.735C127.566 244.241 127.827 243.79 128.144 243.384C128.462 242.972 128.84 242.647 129.277 242.407C129.715 242.168 130.217 242.056 130.785 242.071C131.363 242.087 131.834 242.225 132.199 242.485C132.564 242.746 132.84 243.084 133.027 243.501C133.22 243.918 133.34 244.373 133.387 244.868C133.439 245.363 133.439 245.85 133.387 246.329ZM131.527 246.485L131.551 246.313C131.577 246.048 131.584 245.759 131.574 245.446C131.569 245.134 131.525 244.839 131.441 244.563C131.358 244.282 131.215 244.05 131.012 243.868C130.814 243.686 130.538 243.589 130.183 243.579C129.861 243.563 129.569 243.616 129.308 243.735C129.048 243.85 128.819 244.011 128.621 244.22C128.423 244.428 128.256 244.665 128.121 244.931C127.991 245.196 127.897 245.472 127.84 245.759L127.598 247.29C127.582 247.634 127.629 247.962 127.738 248.274C127.853 248.582 128.03 248.834 128.269 249.032C128.514 249.23 128.824 249.334 129.199 249.345C129.584 249.355 129.915 249.274 130.191 249.102C130.467 248.931 130.696 248.701 130.879 248.415C131.061 248.123 131.204 247.808 131.308 247.47C131.418 247.126 131.491 246.798 131.527 246.485ZM134.441 249.774C134.436 249.467 134.538 249.212 134.746 249.009C134.954 248.806 135.209 248.701 135.512 248.696C135.814 248.691 136.066 248.785 136.269 248.977C136.478 249.165 136.582 249.41 136.582 249.712C136.587 250.019 136.486 250.274 136.277 250.477C136.069 250.675 135.811 250.777 135.504 250.782C135.212 250.787 134.962 250.696 134.754 250.509C134.545 250.321 134.441 250.076 134.441 249.774ZM142.308 250.837C141.73 250.826 141.217 250.714 140.769 250.501C140.327 250.282 139.959 249.988 139.668 249.618C139.376 249.243 139.165 248.813 139.035 248.329C138.905 247.839 138.861 247.319 138.902 246.767L138.933 246.446C138.991 245.879 139.129 245.332 139.348 244.806C139.566 244.274 139.858 243.803 140.223 243.392C140.592 242.975 141.027 242.647 141.527 242.407C142.027 242.168 142.584 242.056 143.199 242.071C143.788 242.082 144.285 242.204 144.691 242.438C145.098 242.673 145.42 242.985 145.66 243.376C145.9 243.761 146.058 244.199 146.137 244.688C146.22 245.178 146.233 245.686 146.176 246.212L146.066 247.017H139.723L139.941 245.665L144.418 245.673L144.449 245.509C144.496 245.181 144.478 244.871 144.394 244.579C144.316 244.287 144.17 244.048 143.957 243.86C143.743 243.673 143.457 243.574 143.098 243.563C142.707 243.553 142.371 243.634 142.09 243.806C141.814 243.977 141.584 244.209 141.402 244.501C141.22 244.793 141.077 245.11 140.973 245.454C140.874 245.793 140.803 246.123 140.762 246.446L140.73 246.759C140.699 247.066 140.707 247.371 140.754 247.673C140.801 247.975 140.892 248.251 141.027 248.501C141.163 248.746 141.35 248.946 141.59 249.102C141.829 249.254 142.126 249.334 142.48 249.345C142.923 249.355 143.324 249.264 143.683 249.071C144.048 248.873 144.379 248.618 144.676 248.306L145.582 249.267C145.342 249.626 145.045 249.923 144.691 250.157C144.342 250.392 143.962 250.566 143.551 250.681C143.144 250.79 142.73 250.842 142.308 250.837ZM149.582 242.227L150.691 245.017L152.723 242.227H154.84L151.644 246.47L153.512 250.681H151.598L150.387 247.767L148.269 250.681H146.152L149.465 246.29L147.668 242.227H149.582ZM158.277 250.837C157.699 250.826 157.186 250.714 156.738 250.501C156.295 250.282 155.928 249.988 155.637 249.618C155.345 249.243 155.134 248.813 155.004 248.329C154.874 247.839 154.829 247.319 154.871 246.767L154.902 246.446C154.959 245.879 155.098 245.332 155.316 244.806C155.535 244.274 155.827 243.803 156.191 243.392C156.561 242.975 156.996 242.647 157.496 242.407C157.996 242.168 158.553 242.056 159.168 242.071C159.756 242.082 160.254 242.204 160.66 242.438C161.066 242.673 161.389 242.985 161.629 243.376C161.868 243.761 162.027 244.199 162.105 244.688C162.189 245.178 162.202 245.686 162.144 246.212L162.035 247.017H155.691L155.91 245.665L160.387 245.673L160.418 245.509C160.465 245.181 160.446 244.871 160.363 244.579C160.285 244.287 160.139 244.048 159.926 243.86C159.712 243.673 159.426 243.574 159.066 243.563C158.676 243.553 158.34 243.634 158.058 243.806C157.782 243.977 157.553 244.209 157.371 244.501C157.189 244.793 157.045 245.11 156.941 245.454C156.842 245.793 156.772 246.123 156.73 246.446L156.699 246.759C156.668 247.066 156.676 247.371 156.723 247.673C156.769 247.975 156.861 248.251 156.996 248.501C157.131 248.746 157.319 248.946 157.558 249.102C157.798 249.254 158.095 249.334 158.449 249.345C158.892 249.355 159.293 249.264 159.652 249.071C160.017 248.873 160.348 248.618 160.644 248.306L161.551 249.267C161.311 249.626 161.014 249.923 160.66 250.157C160.311 250.392 159.931 250.566 159.519 250.681C159.113 250.79 158.699 250.842 158.277 250.837ZM166.043 238.681L165.871 239.774C165.814 240.16 165.704 240.527 165.543 240.876C165.381 241.22 165.181 241.543 164.941 241.845C164.702 242.142 164.436 242.41 164.144 242.649L163.191 242.032C163.446 241.688 163.67 241.337 163.863 240.977C164.056 240.613 164.191 240.22 164.269 239.798L164.465 238.681H166.043ZM109.324 258.306V269.681H107.379V258.306H109.324ZM112.894 258.306V259.868H103.84V258.306H112.894ZM123.246 263.681V264.306C123.246 265.165 123.134 265.936 122.91 266.618C122.686 267.3 122.366 267.881 121.949 268.36C121.538 268.839 121.043 269.207 120.465 269.462C119.887 269.712 119.246 269.837 118.543 269.837C117.845 269.837 117.207 269.712 116.629 269.462C116.056 269.207 115.558 268.839 115.137 268.36C114.715 267.881 114.387 267.3 114.152 266.618C113.923 265.936 113.808 265.165 113.808 264.306V263.681C113.808 262.821 113.923 262.053 114.152 261.376C114.381 260.694 114.704 260.113 115.121 259.634C115.543 259.149 116.04 258.782 116.613 258.532C117.191 258.277 117.829 258.149 118.527 258.149C119.23 258.149 119.871 258.277 120.449 258.532C121.027 258.782 121.525 259.149 121.941 259.634C122.358 260.113 122.678 260.694 122.902 261.376C123.131 262.053 123.246 262.821 123.246 263.681ZM121.285 264.306V263.665C121.285 263.03 121.222 262.47 121.097 261.985C120.978 261.496 120.798 261.087 120.558 260.759C120.324 260.425 120.035 260.175 119.691 260.009C119.347 259.837 118.959 259.751 118.527 259.751C118.095 259.751 117.709 259.837 117.371 260.009C117.032 260.175 116.743 260.425 116.504 260.759C116.269 261.087 116.09 261.496 115.965 261.985C115.84 262.47 115.777 263.03 115.777 263.665V264.306C115.777 264.941 115.84 265.504 115.965 265.993C116.09 266.483 116.272 266.897 116.512 267.235C116.756 267.569 117.048 267.821 117.387 267.993C117.725 268.16 118.111 268.243 118.543 268.243C118.98 268.243 119.368 268.16 119.707 267.993C120.045 267.821 120.332 267.569 120.566 267.235C120.801 266.897 120.978 266.483 121.097 265.993C121.222 265.504 121.285 264.941 121.285 264.306ZM94.8084 285.751C94.8084 285.517 94.772 285.308 94.6991 285.126C94.6314 284.944 94.509 284.777 94.3319 284.626C94.1548 284.475 93.9048 284.329 93.5819 284.188C93.2642 284.043 92.8579 283.894 92.3631 283.743C91.8215 283.576 91.3215 283.392 90.8631 283.188C90.41 282.98 90.0142 282.741 89.6756 282.47C89.3371 282.194 89.0741 281.879 88.8866 281.524C88.6991 281.165 88.6053 280.751 88.6053 280.282C88.6053 279.819 88.7017 279.397 88.8944 279.017C89.0923 278.636 89.3709 278.308 89.7303 278.032C90.0949 277.751 90.5246 277.535 91.0194 277.384C91.5142 277.227 92.061 277.149 92.66 277.149C93.5037 277.149 94.2303 277.306 94.8397 277.618C95.4543 277.931 95.9256 278.35 96.2537 278.876C96.5871 279.402 96.7537 279.983 96.7537 280.618H94.8084C94.8084 280.243 94.7277 279.912 94.5662 279.626C94.41 279.334 94.1704 279.105 93.8475 278.938C93.5298 278.772 93.1261 278.688 92.6366 278.688C92.173 278.688 91.7876 278.759 91.4803 278.899C91.173 279.04 90.9439 279.23 90.7928 279.47C90.6418 279.709 90.5662 279.98 90.5662 280.282C90.5662 280.496 90.6157 280.691 90.7147 280.868C90.8136 281.04 90.9647 281.201 91.1678 281.352C91.3709 281.498 91.6261 281.636 91.9334 281.767C92.2407 281.897 92.6027 282.022 93.0194 282.142C93.6496 282.329 94.1991 282.537 94.6678 282.767C95.1366 282.991 95.5272 283.246 95.8397 283.532C96.1522 283.819 96.3866 284.144 96.5428 284.509C96.6991 284.868 96.7772 285.277 96.7772 285.735C96.7772 286.214 96.6808 286.647 96.4881 287.032C96.2954 287.412 96.0194 287.738 95.66 288.009C95.3058 288.274 94.8787 288.48 94.3787 288.626C93.884 288.767 93.3319 288.837 92.7225 288.837C92.1756 288.837 91.6366 288.764 91.1053 288.618C90.5793 288.472 90.1001 288.251 89.6678 287.954C89.2355 287.652 88.8918 287.277 88.6366 286.829C88.3814 286.376 88.2537 285.847 88.2537 285.243H90.2147C90.2147 285.613 90.2772 285.928 90.4022 286.188C90.5324 286.449 90.7121 286.662 90.9412 286.829C91.1704 286.991 91.436 287.11 91.7381 287.188C92.0454 287.267 92.3735 287.306 92.7225 287.306C93.1808 287.306 93.5636 287.241 93.8709 287.11C94.1834 286.98 94.4178 286.798 94.5741 286.563C94.7303 286.329 94.8084 286.058 94.8084 285.751ZM103.191 277.306V288.681H101.246V277.306H103.191ZM106.762 277.306V278.868H97.7069V277.306H106.762ZM111.941 278.821L108.543 288.681H106.488L110.769 277.306H112.082L111.941 278.821ZM114.785 288.681L111.379 278.821L111.23 277.306H112.551L116.847 288.681H114.785ZM114.621 284.462V286.017H108.433V284.462H114.621ZM118.121 277.306H122.144C123.009 277.306 123.746 277.436 124.355 277.696C124.965 277.957 125.431 278.342 125.754 278.852C126.082 279.358 126.246 279.983 126.246 280.727C126.246 281.295 126.142 281.795 125.933 282.227C125.725 282.66 125.431 283.024 125.051 283.321C124.67 283.613 124.217 283.839 123.691 284.001L123.097 284.29H119.48L119.465 282.735H122.176C122.644 282.735 123.035 282.652 123.347 282.485C123.66 282.319 123.894 282.092 124.051 281.806C124.212 281.514 124.293 281.186 124.293 280.821C124.293 280.425 124.215 280.082 124.058 279.79C123.907 279.493 123.673 279.267 123.355 279.11C123.038 278.949 122.634 278.868 122.144 278.868H120.082V288.681H118.121V277.306ZM124.613 288.681L121.941 283.571L123.996 283.563L126.707 288.579V288.681H124.613ZM132.348 277.306V288.681H130.402V277.306H132.348ZM135.918 277.306V278.868H126.863V277.306H135.918ZM70.5819 296.306V307.681H68.6209V296.306H70.5819ZM82.0428 296.306V307.681H80.0819L74.9803 299.532V307.681H73.0194V296.306H74.9803L80.0975 304.47V296.306H82.0428ZM90.3631 304.751C90.3631 304.517 90.3267 304.308 90.2537 304.126C90.186 303.944 90.0636 303.777 89.8866 303.626C89.7095 303.475 89.4595 303.329 89.1366 303.188C88.8189 303.043 88.4126 302.894 87.9178 302.743C87.3761 302.576 86.8761 302.392 86.4178 302.188C85.9647 301.98 85.5689 301.741 85.2303 301.47C84.8918 301.194 84.6287 300.879 84.4412 300.524C84.2537 300.165 84.16 299.751 84.16 299.282C84.16 298.819 84.2564 298.397 84.4491 298.017C84.647 297.636 84.9256 297.308 85.285 297.032C85.6496 296.751 86.0793 296.535 86.5741 296.384C87.0689 296.227 87.6157 296.149 88.2147 296.149C89.0584 296.149 89.785 296.306 90.3944 296.618C91.009 296.931 91.4803 297.35 91.8084 297.876C92.1418 298.402 92.3084 298.983 92.3084 299.618H90.3631C90.3631 299.243 90.2824 298.912 90.1209 298.626C89.9647 298.334 89.7251 298.105 89.4022 297.938C89.0845 297.772 88.6808 297.688 88.1912 297.688C87.7277 297.688 87.3423 297.759 87.035 297.899C86.7277 298.04 86.4985 298.23 86.3475 298.47C86.1965 298.709 86.1209 298.98 86.1209 299.282C86.1209 299.496 86.1704 299.691 86.2694 299.868C86.3683 300.04 86.5194 300.201 86.7225 300.352C86.9256 300.498 87.1808 300.636 87.4881 300.767C87.7954 300.897 88.1574 301.022 88.5741 301.142C89.2043 301.329 89.7537 301.537 90.2225 301.767C90.6912 301.991 91.0819 302.246 91.3944 302.532C91.7069 302.819 91.9412 303.144 92.0975 303.509C92.2537 303.868 92.3319 304.277 92.3319 304.735C92.3319 305.214 92.2355 305.647 92.0428 306.032C91.8501 306.412 91.5741 306.738 91.2147 307.009C90.8605 307.274 90.4334 307.48 89.9334 307.626C89.4386 307.767 88.8866 307.837 88.2772 307.837C87.7303 307.837 87.1912 307.764 86.66 307.618C86.134 307.472 85.6548 307.251 85.2225 306.954C84.7902 306.652 84.4465 306.277 84.1912 305.829C83.936 305.376 83.8084 304.847 83.8084 304.243H85.7694C85.7694 304.613 85.8319 304.928 85.9569 305.188C86.0871 305.449 86.2668 305.662 86.4959 305.829C86.7251 305.991 86.9907 306.11 87.2928 306.188C87.6001 306.267 87.9282 306.306 88.2772 306.306C88.7355 306.306 89.1183 306.241 89.4256 306.11C89.7381 305.98 89.9725 305.798 90.1287 305.563C90.285 305.329 90.3631 305.058 90.3631 304.751ZM98.7459 296.306V307.681H96.8006V296.306H98.7459ZM102.316 296.306V297.868H93.2616V296.306H102.316ZM107.496 297.821L104.097 307.681H102.043L106.324 296.306H107.637L107.496 297.821ZM110.34 307.681L106.933 297.821L106.785 296.306H108.105L112.402 307.681H110.34ZM110.176 303.462V305.017H103.988V303.462H110.176ZM120.801 306.126V307.681H115.09V306.126H120.801ZM115.637 296.306V307.681H113.676V296.306H115.637ZM129.441 306.126V307.681H123.73V306.126H129.441ZM124.277 296.306V307.681H122.316V296.306H124.277ZM133.051 296.306V307.681H131.09V296.306H133.051ZM144.512 296.306V307.681H142.551L137.449 299.532V307.681H135.488V296.306H137.449L142.566 304.47V296.306H144.512ZM155.582 301.868V306.212C155.42 306.425 155.168 306.66 154.824 306.915C154.486 307.165 154.035 307.381 153.473 307.563C152.91 307.746 152.209 307.837 151.371 307.837C150.657 307.837 150.004 307.717 149.41 307.477C148.816 307.233 148.303 306.876 147.871 306.407C147.444 305.938 147.113 305.368 146.879 304.696C146.644 304.019 146.527 303.248 146.527 302.384V301.595C146.527 300.735 146.634 299.97 146.848 299.298C147.066 298.621 147.379 298.048 147.785 297.579C148.191 297.11 148.681 296.756 149.254 296.517C149.832 296.272 150.486 296.149 151.215 296.149C152.147 296.149 152.918 296.306 153.527 296.618C154.142 296.925 154.616 297.352 154.949 297.899C155.282 298.446 155.493 299.071 155.582 299.774H153.66C153.598 299.379 153.475 299.024 153.293 298.712C153.116 298.399 152.861 298.155 152.527 297.977C152.199 297.795 151.772 297.704 151.246 297.704C150.793 297.704 150.394 297.79 150.051 297.962C149.707 298.134 149.42 298.386 149.191 298.72C148.967 299.053 148.798 299.459 148.683 299.938C148.569 300.418 148.512 300.964 148.512 301.579V302.384C148.512 303.009 148.577 303.563 148.707 304.048C148.842 304.532 149.035 304.941 149.285 305.274C149.54 305.608 149.85 305.86 150.215 306.032C150.579 306.199 150.991 306.282 151.449 306.282C151.897 306.282 152.264 306.246 152.551 306.173C152.837 306.095 153.064 306.004 153.23 305.899C153.402 305.79 153.535 305.686 153.629 305.587V303.329H151.262V301.868H155.582Z" fill="white"/>
</g>
<defs>
<filter id="filter0_d_12359_231" x="-4" y="0" width="231.929" height="475.509" filterUnits="userSpaceOnUse" color-interpolation-filters="sRGB">
<feFlood flood-opacity="0" result="BackgroundImageFix"/>
<feColorMatrix in="SourceAlpha" type="matrix" values="0 0 0 0 0 0 0 0 0 0 0 0 0 0 0 0 0 0 127 0" result="hardAlpha"/>
<feOffset dy="4"/>
<feGaussianBlur stdDeviation="2"/>
<feComposite in2="hardAlpha" operator="out"/>
<feColorMatrix type="matrix" values="0 0 0 0 0 0 0 0 0 0 0 0 0 0 0 0 0 0 0.25 0"/>
<feBlend mode="normal" in2="BackgroundImageFix" result="effect1_dropShadow_12359_231"/>
<feBlend mode="normal" in="SourceGraphic" in2="effect1_dropShadow_12359_231" result="shape"/>
</filter>
<filter id="filter1_d_12359_231" x="25.3827" y="353.347" width="174.49" height="138.106" filterUnits="userSpaceOnUse" color-interpolation-filters="sRGB">
<feFlood flood-opacity="0" result="BackgroundImageFix"/>
<feColorMatrix in="SourceAlpha" type="matrix" values="0 0 0 0 0 0 0 0 0 0 0 0 0 0 0 0 0 0 127 0" result="hardAlpha"/>
<feOffset dy="6"/>
<feGaussianBlur stdDeviation="9"/>
<feComposite in2="hardAlpha" operator="out"/>
<feColorMatrix type="matrix" values="0 0 0 0 0.0141021 0 0 0 0 0.163044 0 0 0 0 0.267253 0 0 0 0.05 0"/>
<feBlend mode="normal" in2="BackgroundImageFix" result="effect1_dropShadow_12359_231"/>
<feBlend mode="normal" in="SourceGraphic" in2="effect1_dropShadow_12359_231" result="shape"/>
</filter>
</defs>
</svg>
