<svg width="239" height="146" viewBox="0 0 239 146" fill="none" xmlns="http://www.w3.org/2000/svg">
<g filter="url(#filter0_d_11932_445)">
<path d="M182.865 125.872V10.7364L228.245 57.9047C233.832 63.7122 233.832 72.8966 228.245 78.704L182.865 125.872ZM182.865 125.872L30.75 125.872C22.4657 125.872 15.75 119.157 15.75 110.872L15.75 25.7364C15.75 17.4521 22.4657 10.7364 30.75 10.7364L182.865 10.7364V125.872Z" fill="#2E7D32"/>
<g filter="url(#filter1_d_11932_445)">
<path d="M15.75 23.2364C15.75 16.3329 21.3464 10.7364 28.25 10.7364H95.75V125.872H28.25C21.3464 125.872 15.75 120.276 15.75 113.372V23.2364Z" fill="white"/>
</g>
<path d="M125.845 33.7647H127.676C127.618 34.463 127.422 35.0855 127.09 35.6324C126.758 36.1744 126.292 36.6017 125.691 36.9142C125.091 37.2267 124.361 37.3829 123.501 37.3829C122.842 37.3829 122.249 37.2657 121.722 37.0313C121.194 36.7921 120.743 36.4552 120.367 36.0206C119.991 35.5811 119.703 35.0514 119.502 34.4312C119.307 33.8111 119.209 33.1178 119.209 32.3512V31.4649C119.209 30.6983 119.31 30.005 119.51 29.3849C119.715 28.7647 120.008 28.235 120.389 27.7955C120.77 27.3512 121.226 27.0118 121.758 26.7774C122.295 26.5431 122.898 26.4259 123.567 26.4259C124.417 26.4259 125.135 26.5821 125.721 26.8946C126.307 27.2071 126.761 27.6393 127.083 28.191C127.41 28.7428 127.61 29.3751 127.684 30.088H125.853C125.804 29.629 125.696 29.2359 125.53 28.9088C125.369 28.5816 125.13 28.3326 124.812 28.1617C124.495 27.9859 124.08 27.898 123.567 27.898C123.147 27.898 122.781 27.9762 122.469 28.1324C122.156 28.2887 121.895 28.5182 121.685 28.8209C121.475 29.1236 121.316 29.4972 121.209 29.9415C121.106 30.381 121.055 30.8839 121.055 31.4503V32.3512C121.055 32.8883 121.102 33.3766 121.194 33.816C121.292 34.2506 121.438 34.6241 121.634 34.9366C121.834 35.2491 122.088 35.4908 122.396 35.6617C122.703 35.8326 123.072 35.9181 123.501 35.9181C124.024 35.9181 124.446 35.8351 124.769 35.669C125.096 35.503 125.342 35.2613 125.508 34.9439C125.679 34.6217 125.792 34.2286 125.845 33.7647ZM136.026 35.7789V37.2364H130.672V35.7789H136.026ZM131.185 26.5724V37.2364H129.346V26.5724H131.185ZM139.41 26.5724V37.2364H137.571V26.5724H139.41ZM147.994 33.7647H149.825C149.766 34.463 149.571 35.0855 149.239 35.6324C148.907 36.1744 148.44 36.6017 147.84 36.9142C147.239 37.2267 146.509 37.3829 145.65 37.3829C144.991 37.3829 144.397 37.2657 143.87 37.0313C143.343 36.7921 142.891 36.4552 142.515 36.0206C142.139 35.5811 141.851 35.0514 141.651 34.4312C141.456 33.8111 141.358 33.1178 141.358 32.3512V31.4649C141.358 30.6983 141.458 30.005 141.658 29.3849C141.863 28.7647 142.156 28.235 142.537 27.7955C142.918 27.3512 143.375 27.0118 143.907 26.7774C144.444 26.5431 145.047 26.4259 145.716 26.4259C146.565 26.4259 147.283 26.5821 147.869 26.8946C148.455 27.2071 148.909 27.6393 149.231 28.191C149.559 28.7428 149.759 29.3751 149.832 30.088H148.001C147.952 29.629 147.845 29.2359 147.679 28.9088C147.518 28.5816 147.278 28.3326 146.961 28.1617C146.644 27.9859 146.229 27.898 145.716 27.898C145.296 27.898 144.93 27.9762 144.617 28.1324C144.305 28.2887 144.043 28.5182 143.833 28.8209C143.624 29.1236 143.465 29.4972 143.357 29.9415C143.255 30.381 143.204 30.8839 143.204 31.4503V32.3512C143.204 32.8883 143.25 33.3766 143.343 33.816C143.44 34.2506 143.587 34.6241 143.782 34.9366C143.982 35.2491 144.236 35.4908 144.544 35.6617C144.852 35.8326 145.22 35.9181 145.65 35.9181C146.172 35.9181 146.595 35.8351 146.917 35.669C147.244 35.503 147.491 35.2613 147.657 34.9439C147.828 34.6217 147.94 34.2286 147.994 33.7647ZM153.333 26.5724V37.2364H151.495V26.5724H153.333ZM159.742 26.5724L155.42 31.7066L152.959 34.3141L152.637 32.4903L154.395 30.3224L157.5 26.5724H159.742ZM157.764 37.2364L154.256 32.1827L155.523 30.9303L159.947 37.2364H157.764ZM168.86 27.9933L165.674 37.2364H163.748L167.762 26.5724H168.992L168.86 27.9933ZM171.526 37.2364L168.333 27.9933L168.194 26.5724H169.432L173.46 37.2364H171.526ZM171.373 33.2813V34.7389H165.572V33.2813H171.373ZM178.118 26.5724V37.2364H176.294V26.5724H178.118ZM181.465 26.5724V28.0372H172.977V26.5724H181.465ZM127.771 44.5724H131.543C132.354 44.5724 133.045 44.6944 133.616 44.9386C134.188 45.1827 134.625 45.544 134.927 46.0226C135.235 46.4962 135.389 47.0821 135.389 47.7804C135.389 48.3126 135.291 48.7813 135.096 49.1866C134.9 49.5919 134.625 49.9337 134.268 50.212C133.912 50.4854 133.487 50.6978 132.994 50.8492L132.437 51.1202H129.046L129.031 49.6627H131.573C132.012 49.6627 132.378 49.5846 132.671 49.4283C132.964 49.2721 133.184 49.0597 133.331 48.7911C133.482 48.5177 133.558 48.2101 133.558 47.8683C133.558 47.4972 133.484 47.1749 133.338 46.9015C133.196 46.6231 132.977 46.4107 132.679 46.2643C132.381 46.1129 132.002 46.0372 131.543 46.0372H129.61V55.2364H127.771V44.5724ZM133.858 55.2364L131.353 50.4464L133.279 50.4391L135.821 55.1412V55.2364H133.858ZM139.183 44.5724V55.2364H137.344V44.5724H139.183ZM149.656 49.7872V53.8595C149.505 54.0597 149.268 54.2794 148.946 54.5186C148.628 54.753 148.206 54.9557 147.679 55.1266C147.151 55.2975 146.495 55.3829 145.708 55.3829C145.04 55.3829 144.427 55.2706 143.87 55.046C143.313 54.8165 142.833 54.482 142.427 54.0426C142.027 53.6031 141.717 53.0685 141.497 52.4386C141.277 51.8038 141.167 51.0811 141.167 50.2706V49.5309C141.167 48.7252 141.268 48.0074 141.468 47.3775C141.673 46.7428 141.966 46.2057 142.347 45.7662C142.728 45.3268 143.187 44.9947 143.724 44.7701C144.266 44.5406 144.878 44.4259 145.562 44.4259C146.436 44.4259 147.159 44.5724 147.73 44.8653C148.306 45.1534 148.75 45.5538 149.063 46.0665C149.375 46.5792 149.573 47.1651 149.656 47.8243H147.854C147.796 47.4532 147.681 47.1212 147.51 46.8282C147.344 46.5352 147.105 46.3058 146.792 46.1397C146.485 45.9688 146.084 45.8834 145.591 45.8834C145.167 45.8834 144.793 45.964 144.471 46.1251C144.148 46.2862 143.88 46.523 143.665 46.8355C143.455 47.148 143.296 47.5289 143.189 47.9781C143.082 48.4273 143.028 48.94 143.028 49.5162V50.2706C143.028 50.8565 143.089 51.3766 143.211 51.8307C143.338 52.2848 143.519 52.6681 143.753 52.9806C143.992 53.2931 144.283 53.5299 144.625 53.691C144.966 53.8473 145.352 53.9254 145.782 53.9254C146.202 53.9254 146.546 53.8912 146.814 53.8228C147.083 53.7496 147.295 53.6642 147.452 53.5665C147.613 53.464 147.737 53.3663 147.825 53.2735V51.1568H145.606V49.7872H149.656ZM158.738 49.0255V50.483H153.077V49.0255H158.738ZM153.531 44.5724V55.2364H151.692V44.5724H153.531ZM160.152 44.5724V55.2364H158.321V44.5724H160.152ZM166.509 44.5724V55.2364H164.686V44.5724H166.509ZM169.856 44.5724V46.0372H161.368V44.5724H169.856ZM145.958 62.5724V73.2364H144.134V62.5724H145.958ZM149.305 62.5724V64.0372H140.816V62.5724H149.305ZM159.009 67.6114V68.1974C159.009 69.003 158.904 69.7257 158.694 70.3653C158.484 71.005 158.184 71.5494 157.793 71.9986C157.408 72.4478 156.944 72.7921 156.402 73.0313C155.86 73.2657 155.259 73.3829 154.6 73.3829C153.946 73.3829 153.348 73.2657 152.806 73.0313C152.269 72.7921 151.802 72.4478 151.407 71.9986C151.011 71.5494 150.704 71.005 150.484 70.3653C150.269 69.7257 150.162 69.003 150.162 68.1974V67.6114C150.162 66.8058 150.269 66.0855 150.484 65.4508C150.699 64.8111 151.001 64.2667 151.392 63.8175C151.788 63.3634 152.254 63.0191 152.791 62.7848C153.333 62.5455 153.931 62.4259 154.585 62.4259C155.245 62.4259 155.845 62.5455 156.387 62.7848C156.929 63.0191 157.396 63.3634 157.786 63.8175C158.177 64.2667 158.477 64.8111 158.687 65.4508C158.902 66.0855 159.009 66.8058 159.009 67.6114ZM157.171 68.1974V67.5968C157.171 67.0011 157.112 66.4762 156.995 66.0221C156.883 65.5631 156.714 65.1798 156.49 64.8722C156.27 64.5597 155.999 64.3253 155.677 64.169C155.354 64.0079 154.991 63.9273 154.585 63.9273C154.18 63.9273 153.819 64.0079 153.501 64.169C153.184 64.3253 152.913 64.5597 152.688 64.8722C152.469 65.1798 152.3 65.5631 152.183 66.0221C152.066 66.4762 152.007 67.0011 152.007 67.5968V68.1974C152.007 68.7931 152.066 69.3204 152.183 69.7794C152.3 70.2384 152.471 70.6266 152.696 70.9439C152.925 71.2564 153.199 71.4933 153.516 71.6544C153.833 71.8106 154.195 71.8888 154.6 71.8888C155.01 71.8888 155.374 71.8106 155.691 71.6544C156.009 71.4933 156.277 71.2564 156.497 70.9439C156.717 70.6266 156.883 70.2384 156.995 69.7794C157.112 69.3204 157.171 68.7931 157.171 68.1974ZM134.041 88.4898C134.041 88.2701 134.007 88.0748 133.938 87.9039C133.875 87.733 133.76 87.5768 133.594 87.4352C133.428 87.2935 133.194 87.1568 132.891 87.025C132.593 86.8883 132.212 86.7491 131.749 86.6075C131.241 86.4513 130.772 86.2779 130.342 86.0875C129.917 85.8922 129.546 85.6676 129.229 85.4137C128.912 85.1549 128.665 84.8595 128.489 84.5274C128.313 84.1905 128.226 83.8023 128.226 83.3629C128.226 82.9283 128.316 82.5328 128.497 82.1764C128.682 81.8199 128.943 81.5123 129.28 81.2535C129.622 80.9898 130.025 80.7872 130.489 80.6456C130.953 80.4991 131.465 80.4259 132.027 80.4259C132.818 80.4259 133.499 80.5724 134.07 80.8653C134.646 81.1583 135.088 81.5514 135.396 82.0445C135.708 82.5377 135.865 83.0821 135.865 83.6778H134.041C134.041 83.3263 133.965 83.0162 133.814 82.7477C133.667 82.4742 133.443 82.2594 133.14 82.1031C132.842 81.9469 132.464 81.8687 132.005 81.8687C131.57 81.8687 131.209 81.9347 130.921 82.0665C130.633 82.1983 130.418 82.3766 130.276 82.6012C130.135 82.8258 130.064 83.0797 130.064 83.3629C130.064 83.5631 130.11 83.7462 130.203 83.9122C130.296 84.0733 130.438 84.2247 130.628 84.3663C130.818 84.503 131.058 84.6324 131.346 84.7545C131.634 84.8766 131.973 84.9937 132.364 85.106C132.955 85.2818 133.47 85.4771 133.909 85.692C134.349 85.9019 134.715 86.1412 135.008 86.4098C135.301 86.6783 135.521 86.9835 135.667 87.3253C135.813 87.6622 135.887 88.0455 135.887 88.4752C135.887 88.9244 135.796 89.3297 135.616 89.691C135.435 90.0475 135.176 90.3526 134.839 90.6065C134.507 90.8556 134.107 91.0484 133.638 91.1852C133.174 91.317 132.657 91.3829 132.085 91.3829C131.573 91.3829 131.067 91.3145 130.569 91.1778C130.076 91.0411 129.627 90.8336 129.222 90.5553C128.816 90.2721 128.494 89.9205 128.255 89.5006C128.016 89.0758 127.896 88.5802 127.896 88.0138H129.734C129.734 88.3604 129.793 88.6559 129.91 88.9C130.032 89.1441 130.201 89.3443 130.416 89.5006C130.63 89.6519 130.879 89.7643 131.163 89.8375C131.451 89.9107 131.758 89.9474 132.085 89.9474C132.515 89.9474 132.874 89.8863 133.162 89.7643C133.455 89.6422 133.675 89.4713 133.821 89.2516C133.968 89.0318 134.041 88.7779 134.041 88.4898ZM141.9 80.5724V91.2364H140.076V80.5724H141.9ZM145.247 80.5724V82.0372H136.758V80.5724H145.247ZM150.103 81.9933L146.917 91.2364H144.991L149.004 80.5724H150.235L150.103 81.9933ZM152.769 91.2364L149.576 81.9933L149.437 80.5724H150.674L154.703 91.2364H152.769ZM152.615 87.2813V88.7389H146.814V87.2813H152.615ZM155.896 80.5724H159.668C160.479 80.5724 161.17 80.6944 161.741 80.9386C162.312 81.1827 162.75 81.544 163.052 82.0226C163.36 82.4962 163.514 83.0821 163.514 83.7804C163.514 84.3126 163.416 84.7813 163.221 85.1866C163.025 85.5919 162.75 85.9337 162.393 86.212C162.037 86.4854 161.612 86.6978 161.119 86.8492L160.562 87.1202H157.171L157.156 85.6627H159.698C160.137 85.6627 160.503 85.5846 160.796 85.4283C161.089 85.2721 161.309 85.0597 161.456 84.7911C161.607 84.5177 161.683 84.2101 161.683 83.8683C161.683 83.4972 161.609 83.1749 161.463 82.9015C161.321 82.6231 161.102 82.4107 160.804 82.2643C160.506 82.1129 160.127 82.0372 159.668 82.0372H157.735V91.2364H155.896V80.5724ZM161.983 91.2364L159.478 86.4464L161.404 86.4391L163.946 91.1412V91.2364H161.983ZM169.234 80.5724V91.2364H167.41V80.5724H169.234ZM172.581 80.5724V82.0372H164.092V80.5724H172.581ZM111.329 98.5724V109.236H109.49V98.5724H111.329ZM122.073 98.5724V109.236H120.235L115.452 101.597V109.236H113.614V98.5724H115.452L120.25 106.226V98.5724H122.073ZM129.874 106.49C129.874 106.27 129.839 106.075 129.771 105.904C129.708 105.733 129.593 105.577 129.427 105.435C129.261 105.294 129.026 105.157 128.724 105.025C128.426 104.888 128.045 104.749 127.581 104.608C127.073 104.451 126.604 104.278 126.175 104.087C125.75 103.892 125.379 103.668 125.062 103.414C124.744 103.155 124.498 102.859 124.322 102.527C124.146 102.191 124.058 101.802 124.058 101.363C124.058 100.928 124.148 100.533 124.329 100.176C124.515 99.8199 124.776 99.5123 125.113 99.2535C125.455 98.9898 125.857 98.7872 126.321 98.6456C126.785 98.4991 127.298 98.4259 127.859 98.4259C128.65 98.4259 129.332 98.5724 129.903 98.8653C130.479 99.1583 130.921 99.5514 131.229 100.045C131.541 100.538 131.697 101.082 131.697 101.678H129.874C129.874 101.326 129.798 101.016 129.646 100.748C129.5 100.474 129.275 100.259 128.973 100.103C128.675 99.9469 128.296 99.8687 127.837 99.8687C127.403 99.8687 127.042 99.9347 126.753 100.066C126.465 100.198 126.25 100.377 126.109 100.601C125.967 100.826 125.896 101.08 125.896 101.363C125.896 101.563 125.943 101.746 126.036 101.912C126.128 102.073 126.27 102.225 126.46 102.366C126.651 102.503 126.89 102.632 127.178 102.754C127.466 102.877 127.806 102.994 128.196 103.106C128.787 103.282 129.302 103.477 129.742 103.692C130.181 103.902 130.547 104.141 130.84 104.41C131.133 104.678 131.353 104.983 131.5 105.325C131.646 105.662 131.719 106.046 131.719 106.475C131.719 106.924 131.629 107.33 131.448 107.691C131.268 108.047 131.009 108.353 130.672 108.607C130.34 108.856 129.939 109.048 129.471 109.185C129.007 109.317 128.489 109.383 127.918 109.383C127.405 109.383 126.9 109.315 126.402 109.178C125.909 109.041 125.459 108.834 125.054 108.555C124.649 108.272 124.327 107.921 124.087 107.501C123.848 107.076 123.729 106.58 123.729 106.014H125.567C125.567 106.36 125.625 106.656 125.743 106.9C125.865 107.144 126.033 107.344 126.248 107.501C126.463 107.652 126.712 107.764 126.995 107.837C127.283 107.911 127.591 107.947 127.918 107.947C128.348 107.947 128.707 107.886 128.995 107.764C129.288 107.642 129.507 107.471 129.654 107.252C129.8 107.032 129.874 106.778 129.874 106.49ZM137.732 98.5724V109.236H135.909V98.5724H137.732ZM141.08 98.5724V100.037H132.591V98.5724H141.08ZM145.936 99.9933L142.75 109.236H140.823L144.837 98.5724H146.067L145.936 99.9933ZM148.602 109.236L145.408 99.9933L145.269 98.5724H146.507L150.535 109.236H148.602ZM148.448 105.281V106.739H142.647V105.281H148.448ZM158.409 107.779V109.236H153.055V107.779H158.409ZM153.567 98.5724V109.236H151.729V98.5724H153.567ZM166.509 107.779V109.236H161.155V107.779H166.509ZM161.668 98.5724V109.236H159.83V98.5724H161.668ZM169.893 98.5724V109.236H168.055V98.5724H169.893ZM180.638 98.5724V109.236H178.799L174.017 101.597V109.236H172.178V98.5724H174.017L178.814 106.226V98.5724H180.638ZM191.016 103.787V107.859C190.865 108.06 190.628 108.279 190.306 108.519C189.988 108.753 189.566 108.956 189.039 109.127C188.511 109.297 187.854 109.383 187.068 109.383C186.399 109.383 185.787 109.271 185.23 109.046C184.673 108.816 184.192 108.482 183.787 108.043C183.387 107.603 183.077 107.068 182.857 106.439C182.637 105.804 182.527 105.081 182.527 104.271V103.531C182.527 102.725 182.627 102.007 182.828 101.378C183.033 100.743 183.326 100.206 183.707 99.7662C184.087 99.3268 184.546 98.9947 185.083 98.7701C185.625 98.5406 186.238 98.4259 186.922 98.4259C187.796 98.4259 188.519 98.5724 189.09 98.8653C189.666 99.1534 190.11 99.5538 190.423 100.066C190.735 100.579 190.933 101.165 191.016 101.824H189.214C189.156 101.453 189.041 101.121 188.87 100.828C188.704 100.535 188.465 100.306 188.152 100.14C187.845 99.9688 187.444 99.8834 186.951 99.8834C186.526 99.8834 186.153 99.964 185.831 100.125C185.508 100.286 185.24 100.523 185.025 100.836C184.815 101.148 184.656 101.529 184.549 101.978C184.441 102.427 184.388 102.94 184.388 103.516V104.271C184.388 104.857 184.449 105.377 184.571 105.831C184.698 106.285 184.878 106.668 185.113 106.981C185.352 107.293 185.643 107.53 185.984 107.691C186.326 107.847 186.712 107.925 187.142 107.925C187.562 107.925 187.906 107.891 188.174 107.823C188.443 107.75 188.655 107.664 188.812 107.566C188.973 107.464 189.097 107.366 189.185 107.274V105.157H186.966V103.787H191.016Z" fill="white"/>
<g clip-path="url(#clip0_11932_445)">
<path d="M65.4647 84.207H45.0457C43.606 84.207 42.2717 84.6598 41.5167 86.1575C41.1656 86.854 41.5694 87.7422 42.2365 87.7422H68.2739C68.9411 87.7422 69.3449 86.854 68.9938 86.1575C68.2388 84.6598 66.9044 84.207 65.4647 84.207Z" fill="#09C93A"/>
<path d="M76.2801 93.9766C75.2968 92.0088 73.5587 90.8246 71.6976 90.8246H39.0061C38.7251 90.8246 38.532 90.8072 38.2335 90.8942L37.7244 91.0858C36.4603 91.5734 35.3015 92.4093 34.6343 93.5761C34.6343 93.5761 34.6343 93.5935 34.6343 93.6109C34.5465 93.7328 34.4939 93.8547 34.4236 93.9766C34.09 94.6035 34.2656 95.3872 34.687 95.7703C34.8274 95.8922 35.003 95.9793 35.1786 96.0141C35.2313 96.0489 35.2839 96.0489 35.3542 96.0489H75.3671C76.2274 96.0489 76.7716 94.8821 76.2976 93.9766H76.2801Z" fill="#09C93A"/>
<path d="M77.4739 62.7181L66.5358 46.9058C66.29 46.5575 65.8861 46.3485 65.4648 46.3485H64.3587C64.3587 46.3485 64.3587 46.3485 64.3411 46.3485C63.5861 46.1221 63.0594 45.4429 63.0419 44.6593C63.0419 44.6593 63.0419 44.6419 63.0419 44.6245L65.1487 39.731C65.3945 39.1911 65.1663 38.5468 64.6396 38.2682C63.4106 37.6413 59.4953 38.0418 57.8976 38.1463C49.6984 38.6861 41.5694 43.0397 37.4259 50.1797C32.0007 59.4964 34.7045 69.1092 36.1793 78.9658C36.3022 79.7843 36.9167 80.4983 37.7419 80.5854C38.6198 80.6899 39.8137 80.2022 39.6381 78.9832C39.445 77.6771 39.2343 76.789 39.006 75.3958C37.5839 66.6886 35.9862 56.832 41.7801 49.8488C45.3442 45.5648 52.4549 42.1516 57.9854 42.0819C58.0029 42.0819 58.0381 42.0819 58.0732 42.0819C58.7755 42.1516 59.3197 42.7263 59.3197 43.4229C59.3197 44.1194 58.7052 44.7812 57.9503 44.7812L56.4052 45.0076C55.7205 45.1121 55.0533 45.234 54.3862 45.3907C53.8243 45.5126 53.2274 45.6519 53.2098 45.6519C47.9602 46.9754 43.3778 50.9111 41.5518 55.6652C39.5503 60.907 40.3404 65.8353 41.5167 73.3235C41.8152 75.2391 42.061 76.8064 42.3946 79.14C42.5701 80.8466 43.8869 81.4561 45.3617 81.4735H64.5518C66.2724 81.4735 67.6945 80.1152 67.7648 78.4086C67.7999 77.4333 67.519 76.493 66.9571 75.6919L59.8113 65.5741C59.3197 64.7556 60.1274 63.763 61.0403 64.0764L65.6052 65.6437C65.8686 65.7656 66.0617 66.0094 66.1319 66.2881L66.5182 67.7683C66.5884 68.0469 66.7991 68.2907 67.0625 68.4126L72.5052 70.7636C72.8915 70.9552 73.3655 70.8681 73.664 70.5546L76.8243 67.8205C77.0174 67.6116 77.1403 67.3329 77.193 67.0195L77.5792 63.2231C77.5441 63.0838 77.4915 62.8923 77.4563 62.7529L77.4739 62.7181Z" fill="#09C93A"/>
</g>
</g>
<defs>
<filter id="filter0_d_11932_445" x="10.75" y="9.48642" width="232.5" height="126.386" filterUnits="userSpaceOnUse" color-interpolation-filters="sRGB">
<feFlood flood-opacity="0" result="BackgroundImageFix"/>
<feColorMatrix in="SourceAlpha" type="matrix" values="0 0 0 0 0 0 0 0 0 0 0 0 0 0 0 0 0 0 127 0" result="hardAlpha"/>
<feOffset dy="5"/>
<feGaussianBlur stdDeviation="2.5"/>
<feComposite in2="hardAlpha" operator="out"/>
<feColorMatrix type="matrix" values="0 0 0 0 0 0 0 0 0 0 0 0 0 0 0 0 0 0 0.25 0"/>
<feBlend mode="normal" in2="BackgroundImageFix" result="effect1_dropShadow_11932_445"/>
<feBlend mode="normal" in="SourceGraphic" in2="effect1_dropShadow_11932_445" result="shape"/>
</filter>
<filter id="filter1_d_11932_445" x="0.75" y="0.73642" width="110" height="145.136" filterUnits="userSpaceOnUse" color-interpolation-filters="sRGB">
<feFlood flood-opacity="0" result="BackgroundImageFix"/>
<feColorMatrix in="SourceAlpha" type="matrix" values="0 0 0 0 0 0 0 0 0 0 0 0 0 0 0 0 0 0 127 0" result="hardAlpha"/>
<feOffset dy="5"/>
<feGaussianBlur stdDeviation="7.5"/>
<feComposite in2="hardAlpha" operator="out"/>
<feColorMatrix type="matrix" values="0 0 0 0 0.0141021 0 0 0 0 0.163044 0 0 0 0 0.267253 0 0 0 0.05 0"/>
<feBlend mode="normal" in2="BackgroundImageFix" result="effect1_dropShadow_11932_445"/>
<feBlend mode="normal" in="SourceGraphic" in2="effect1_dropShadow_11932_445" result="shape"/>
</filter>
<clipPath id="clip0_11932_445">
<rect width="60" height="60" fill="white" transform="translate(25.75 36.9864)"/>
</clipPath>
</defs>
</svg>
