<svg width="320" height="166" viewBox="0 0 320 166" fill="none" xmlns="http://www.w3.org/2000/svg">
<g filter="url(#filter0_d_11932_445)">
<path d="M247.079 142L247.079 12L307.149 63.4291C315.478 70.5596 315.478 83.4404 307.149 90.5709L247.079 142ZM247.079 142L35.8652 142C25.9985 142 18 134.001 18 124.135L18 29.8652C18 19.9985 25.9985 12 35.8652 12L247.079 12L247.079 142Z" fill="#2E7D32"/>
<g filter="url(#filter1_d_11932_445)">
<path d="M18 26.8876C18 18.6654 24.6654 12 32.8876 12H107.984V141.879H32.8877C24.6654 141.879 18 135.213 18 126.991V26.8876Z" fill="white"/>
</g>
<path d="M179.899 44.8652H182.08C182.01 45.6968 181.778 46.4383 181.382 47.0896C180.987 47.7351 180.431 48.244 179.716 48.6162C179.001 48.9884 178.131 49.1745 177.108 49.1745C176.323 49.1745 175.616 49.0349 174.988 48.7557C174.36 48.4708 173.822 48.0695 173.374 47.5519C172.927 47.0286 172.583 46.3976 172.345 45.659C172.112 44.9204 171.996 44.0946 171.996 43.1816V42.1261C171.996 41.2131 172.115 40.3873 172.354 39.6487C172.598 38.9101 172.947 38.2792 173.401 37.7558C173.854 37.2266 174.398 36.8224 175.032 36.5432C175.671 36.2641 176.39 36.1245 177.186 36.1245C178.198 36.1245 179.053 36.3106 179.751 36.6828C180.449 37.055 180.99 37.5697 181.374 38.2268C181.763 38.884 182.002 39.6371 182.089 40.4861H179.908C179.85 39.9395 179.722 39.4713 179.524 39.0817C179.332 38.6921 179.047 38.3955 178.669 38.1919C178.291 37.9826 177.797 37.8779 177.186 37.8779C176.686 37.8779 176.25 37.9709 175.878 38.157C175.506 38.3431 175.195 38.6165 174.945 38.977C174.694 39.3376 174.505 39.7825 174.378 40.3117C174.255 40.8351 174.194 41.4341 174.194 42.1087V43.1816C174.194 43.8213 174.25 44.4029 174.36 44.9263C174.476 45.4438 174.651 45.8887 174.883 46.2609C175.122 46.6331 175.424 46.921 175.791 47.1245C176.157 47.328 176.596 47.4298 177.108 47.4298C177.73 47.4298 178.233 47.331 178.617 47.1332C179.007 46.9355 179.3 46.6476 179.498 46.2696C179.702 45.8858 179.835 45.4177 179.899 44.8652ZM192.025 47.2641V49H185.648V47.2641H192.025ZM186.259 36.299V49H184.069V36.299H186.259ZM196.055 36.299V49H193.865V36.299H196.055ZM206.278 44.8652H208.459C208.389 45.6968 208.157 46.4383 207.761 47.0896C207.366 47.7351 206.81 48.244 206.095 48.6162C205.38 48.9884 204.51 49.1745 203.487 49.1745C202.702 49.1745 201.995 49.0349 201.367 48.7557C200.739 48.4708 200.201 48.0695 199.753 47.5519C199.306 47.0286 198.962 46.3976 198.724 45.659C198.491 44.9204 198.375 44.0946 198.375 43.1816V42.1261C198.375 41.2131 198.494 40.3873 198.733 39.6487C198.977 38.9101 199.326 38.2792 199.78 37.7558C200.233 37.2266 200.777 36.8224 201.411 36.5432C202.05 36.2641 202.769 36.1245 203.565 36.1245C204.577 36.1245 205.432 36.3106 206.13 36.6828C206.828 37.055 207.369 37.5697 207.753 38.2268C208.142 38.884 208.381 39.6371 208.468 40.4861H206.287C206.229 39.9395 206.101 39.4713 205.903 39.0817C205.711 38.6921 205.426 38.3955 205.048 38.1919C204.67 37.9826 204.176 37.8779 203.565 37.8779C203.065 37.8779 202.629 37.9709 202.257 38.157C201.885 38.3431 201.574 38.6165 201.324 38.977C201.073 39.3376 200.884 39.7825 200.757 40.3117C200.634 40.8351 200.573 41.4341 200.573 42.1087V43.1816C200.573 43.8213 200.629 44.4029 200.739 44.9263C200.855 45.4438 201.03 45.8887 201.262 46.2609C201.501 46.6331 201.803 46.921 202.17 47.1245C202.536 47.328 202.975 47.4298 203.487 47.4298C204.109 47.4298 204.612 47.331 204.996 47.1332C205.386 46.9355 205.679 46.6476 205.877 46.2696C206.081 45.8858 206.214 45.4177 206.278 44.8652ZM212.638 36.299V49H210.448V36.299H212.638ZM220.27 36.299L215.124 42.414L212.193 45.5194L211.809 43.3473L213.902 40.7653L217.601 36.299H220.27ZM217.915 49L213.737 42.981L215.246 41.4893L220.515 49H217.915ZM122.606 57.665L122.729 56.8447C122.78 56.512 122.873 56.1953 123.01 55.8945C123.151 55.5938 123.324 55.3135 123.529 55.0537C123.739 54.7939 123.974 54.5615 124.233 54.3564L124.938 54.876C124.705 55.1676 124.502 55.473 124.329 55.792C124.16 56.1064 124.042 56.4482 123.974 56.8174L123.823 57.665H122.606ZM126.688 55.0469H127.877L129.634 63.1475L134.193 55.0469H135.506L129.853 65H128.875L126.688 55.0469ZM126.257 55.0469H127.357L126.482 61.1582L125.812 65H124.527L126.257 55.0469ZM134.768 55.0469H135.875L134.146 65H132.867L133.551 61.0488L134.768 55.0469ZM140.667 63.7354L141.282 59.9141C141.314 59.6315 141.287 59.3831 141.2 59.1689C141.118 58.9548 140.979 58.7884 140.783 58.6699C140.592 58.5514 140.35 58.4876 140.059 58.4785C139.803 58.474 139.553 58.515 139.307 58.6016C139.065 58.6882 138.855 58.818 138.678 58.9912C138.5 59.1644 138.384 59.3831 138.329 59.6475L137.099 59.6543C137.131 59.2852 137.247 58.9639 137.447 58.6904C137.648 58.4124 137.898 58.1823 138.199 58C138.5 57.8132 138.824 57.6764 139.17 57.5898C139.516 57.4987 139.854 57.4554 140.182 57.46C140.678 57.4691 141.109 57.5762 141.474 57.7812C141.843 57.9818 142.121 58.2643 142.308 58.6289C142.494 58.9935 142.563 59.431 142.513 59.9414L141.945 63.3867C141.904 63.6374 141.879 63.8903 141.87 64.1455C141.866 64.3962 141.895 64.6423 141.959 64.8838L141.945 65L140.694 65.0068C140.644 64.7972 140.619 64.5853 140.619 64.3711C140.624 64.1569 140.64 63.945 140.667 63.7354ZM141.426 60.5156L141.282 61.4043L140.113 61.3975C139.867 61.3975 139.607 61.4157 139.334 61.4521C139.061 61.4886 138.801 61.557 138.555 61.6572C138.309 61.7575 138.101 61.9033 137.933 62.0947C137.764 62.2816 137.661 62.5254 137.625 62.8262C137.598 63.0723 137.627 63.2865 137.714 63.4688C137.805 63.6465 137.942 63.7855 138.124 63.8857C138.306 63.986 138.518 64.0384 138.76 64.043C139.074 64.0475 139.384 63.986 139.689 63.8584C139.995 63.7308 140.261 63.5485 140.489 63.3115C140.717 63.0745 140.874 62.8011 140.961 62.4912L141.412 63.0996C141.326 63.4004 141.184 63.6784 140.988 63.9336C140.792 64.1842 140.56 64.4007 140.291 64.583C140.027 64.7653 139.742 64.9066 139.437 65.0068C139.131 65.1071 138.826 65.1549 138.521 65.1504C138.106 65.1413 137.73 65.0479 137.393 64.8701C137.06 64.6924 136.796 64.444 136.6 64.125C136.408 63.8014 136.326 63.4255 136.354 62.9971C136.381 62.5277 136.504 62.1335 136.723 61.8145C136.941 61.4954 137.222 61.2402 137.563 61.0488C137.91 60.8574 138.288 60.7207 138.698 60.6387C139.108 60.5521 139.514 60.5088 139.915 60.5088L141.426 60.5156ZM145.924 63.7969L148.836 57.6035H150.142L146.402 65H145.534L145.924 63.7969ZM145.24 57.6035L146.293 63.9541L146.259 65H145.466L144.017 57.6035H145.24ZM153.095 65.1367C152.589 65.1276 152.149 65.0273 151.775 64.8359C151.406 64.64 151.103 64.3779 150.866 64.0498C150.634 63.7171 150.467 63.3389 150.367 62.915C150.267 62.4912 150.237 62.0469 150.278 61.582L150.306 61.2881C150.351 60.8141 150.467 60.3493 150.654 59.8936C150.841 59.4333 151.09 59.0186 151.399 58.6494C151.714 58.2803 152.083 57.9886 152.507 57.7744C152.935 57.5557 153.409 57.4531 153.929 57.4668C154.444 57.4759 154.872 57.5853 155.214 57.7949C155.556 58.0046 155.822 58.2826 156.014 58.6289C156.21 58.9707 156.337 59.3558 156.396 59.7842C156.456 60.208 156.46 60.6432 156.41 61.0898L156.335 61.6572H150.969L151.133 60.625L155.228 60.6318L155.248 60.5225C155.294 60.1943 155.275 59.8776 155.193 59.5723C155.111 59.2669 154.961 59.0163 154.742 58.8203C154.528 58.6198 154.239 58.515 153.874 58.5059C153.496 58.4922 153.168 58.5697 152.89 58.7383C152.612 58.9023 152.379 59.1257 152.192 59.4082C152.006 59.6862 151.857 59.9915 151.748 60.3242C151.643 60.6523 151.57 60.9736 151.529 61.2881L151.502 61.5752C151.475 61.8669 151.484 62.1608 151.529 62.457C151.575 62.7533 151.661 63.0244 151.789 63.2705C151.921 63.512 152.104 63.7103 152.336 63.8652C152.568 64.0156 152.855 64.0954 153.197 64.1045C153.612 64.1136 153.983 64.0247 154.312 63.8379C154.644 63.6465 154.947 63.4049 155.221 63.1133L155.925 63.7148C155.711 64.0293 155.455 64.2936 155.159 64.5078C154.863 64.722 154.539 64.8815 154.188 64.9863C153.838 65.0911 153.473 65.1413 153.095 65.1367ZM159.479 58.8203L158.406 65H157.169L158.454 57.6035H159.657L159.479 58.8203ZM161.879 57.542L161.763 58.7314C161.667 58.7132 161.569 58.6973 161.469 58.6836C161.373 58.6699 161.277 58.6631 161.182 58.6631C160.885 58.6585 160.619 58.7041 160.382 58.7998C160.149 58.891 159.942 59.0208 159.76 59.1895C159.582 59.3581 159.429 59.5563 159.302 59.7842C159.179 60.012 159.081 60.2581 159.008 60.5225L158.618 60.7275C158.668 60.3584 158.75 59.9801 158.864 59.5928C158.983 59.2054 159.145 58.8477 159.35 58.5195C159.559 58.1914 159.821 57.9271 160.136 57.7266C160.455 57.526 160.838 57.4326 161.284 57.4463C161.384 57.4463 161.482 57.4554 161.578 57.4736C161.678 57.4919 161.779 57.5146 161.879 57.542ZM164.401 57.6035L163.116 65H161.879L163.164 57.6035H164.401ZM163.41 55.6621C163.41 55.4479 163.476 55.2702 163.608 55.1289C163.745 54.9831 163.921 54.9079 164.135 54.9033C164.349 54.8988 164.524 54.9648 164.661 55.1016C164.802 55.2383 164.871 55.4115 164.866 55.6211C164.866 55.8307 164.796 56.0062 164.654 56.1475C164.518 56.2842 164.344 56.3548 164.135 56.3594C163.925 56.3639 163.752 56.3024 163.615 56.1748C163.479 56.0426 163.41 55.8717 163.41 55.6621ZM168.168 64.1045C168.469 64.109 168.749 64.0521 169.009 63.9336C169.269 63.8151 169.49 63.6465 169.672 63.4277C169.854 63.209 169.984 62.9561 170.062 62.6689L171.237 62.6621C171.164 63.1589 170.971 63.5941 170.656 63.9678C170.346 64.3415 169.966 64.6331 169.515 64.8428C169.068 65.0479 168.601 65.1458 168.113 65.1367C167.594 65.1276 167.152 65.0205 166.787 64.8154C166.427 64.6058 166.138 64.3278 165.919 63.9814C165.7 63.6351 165.55 63.2454 165.468 62.8125C165.386 62.375 165.368 61.9261 165.413 61.4658L165.44 61.1719C165.495 60.6751 165.616 60.2035 165.803 59.7568C165.99 59.3057 166.238 58.9069 166.548 58.5605C166.862 58.2096 167.234 57.9362 167.662 57.7402C168.09 57.5443 168.571 57.4531 169.104 57.4668C169.624 57.4759 170.075 57.599 170.458 57.8359C170.841 58.0684 171.137 58.3851 171.347 58.7861C171.556 59.1872 171.661 59.6429 171.661 60.1533L170.499 60.1465C170.494 59.8548 170.438 59.5859 170.328 59.3398C170.219 59.0938 170.057 58.8955 169.843 58.7451C169.629 58.5947 169.364 58.5127 169.05 58.499C168.672 58.4899 168.341 58.5605 168.059 58.7109C167.781 58.8613 167.544 59.0687 167.348 59.333C167.156 59.5928 167.004 59.8822 166.89 60.2012C166.78 60.5202 166.705 60.8438 166.664 61.1719L166.63 61.459C166.603 61.7507 166.598 62.0492 166.616 62.3545C166.639 62.6598 166.703 62.9447 166.808 63.209C166.912 63.4688 167.074 63.6807 167.293 63.8447C167.512 64.0088 167.803 64.0954 168.168 64.1045ZM175.264 54.5L173.438 65H172.194L174.02 54.5H175.264ZM179.16 57.6035L175.496 60.9941L173.288 62.9834L173.438 61.5205L174.915 60.0166L177.547 57.6035H179.16ZM176.747 65L174.751 61.4043L175.537 60.3447L178.101 65H176.747ZM188.3 62.4365C188.341 62.1357 188.311 61.8851 188.211 61.6846C188.111 61.4795 187.965 61.3086 187.773 61.1719C187.582 61.0306 187.368 60.9144 187.131 60.8232C186.894 60.7275 186.657 60.6387 186.42 60.5566C186.078 60.4382 185.741 60.2992 185.408 60.1396C185.08 59.9801 184.784 59.7887 184.52 59.5654C184.255 59.3376 184.048 59.0687 183.897 58.7588C183.752 58.4489 183.695 58.0866 183.727 57.6719C183.763 57.2116 183.893 56.8083 184.116 56.4619C184.34 56.111 184.624 55.8193 184.971 55.5869C185.317 55.3545 185.698 55.1813 186.112 55.0674C186.527 54.9535 186.946 54.901 187.37 54.9102C187.958 54.9238 188.484 55.056 188.949 55.3066C189.414 55.5527 189.776 55.8991 190.036 56.3457C190.296 56.7923 190.41 57.3187 190.378 57.9248L189.093 57.918C189.125 57.5215 189.075 57.182 188.942 56.8994C188.81 56.6123 188.605 56.3913 188.327 56.2363C188.054 56.0814 187.716 55.9993 187.315 55.9902C186.951 55.9811 186.602 56.0358 186.27 56.1543C185.941 56.2728 185.663 56.4574 185.436 56.708C185.208 56.9541 185.069 57.2708 185.019 57.6582C184.982 57.9271 185.019 58.1572 185.128 58.3486C185.237 58.54 185.388 58.7018 185.579 58.834C185.775 58.9661 185.987 59.0778 186.215 59.1689C186.447 59.2601 186.668 59.3398 186.878 59.4082C187.243 59.5312 187.593 59.6771 187.931 59.8457C188.272 60.0098 188.573 60.2103 188.833 60.4473C189.097 60.6797 189.298 60.9577 189.435 61.2812C189.576 61.6048 189.628 61.9854 189.592 62.4229C189.551 62.8968 189.416 63.307 189.188 63.6533C188.961 63.9997 188.669 64.2845 188.313 64.5078C187.958 64.7266 187.568 64.8883 187.145 64.9932C186.721 65.098 186.295 65.1458 185.866 65.1367C185.42 65.1322 184.996 65.0615 184.595 64.9248C184.198 64.7835 183.847 64.583 183.542 64.3232C183.237 64.0635 183.002 63.749 182.838 63.3799C182.674 63.0062 182.603 62.5824 182.626 62.1084L183.904 62.1152C183.882 62.4342 183.916 62.7145 184.007 62.9561C184.098 63.1976 184.235 63.4004 184.417 63.5645C184.604 63.724 184.825 63.847 185.08 63.9336C185.335 64.0156 185.616 64.0589 185.921 64.0635C186.281 64.0726 186.632 64.0225 186.974 63.9131C187.32 63.8037 187.614 63.6283 187.855 63.3867C188.097 63.1452 188.245 62.8285 188.3 62.4365ZM195.067 63.7354L195.683 59.9141C195.715 59.6315 195.687 59.3831 195.601 59.1689C195.519 58.9548 195.38 58.7884 195.184 58.6699C194.992 58.5514 194.751 58.4876 194.459 58.4785C194.204 58.474 193.953 58.515 193.707 58.6016C193.465 58.6882 193.256 58.818 193.078 58.9912C192.9 59.1644 192.784 59.3831 192.729 59.6475L191.499 59.6543C191.531 59.2852 191.647 58.9639 191.848 58.6904C192.048 58.4124 192.299 58.1823 192.6 58C192.9 57.8132 193.224 57.6764 193.57 57.5898C193.917 57.4987 194.254 57.4554 194.582 57.46C195.079 57.4691 195.509 57.5762 195.874 57.7812C196.243 57.9818 196.521 58.2643 196.708 58.6289C196.895 58.9935 196.963 59.431 196.913 59.9414L196.346 63.3867C196.305 63.6374 196.28 63.8903 196.271 64.1455C196.266 64.3962 196.296 64.6423 196.359 64.8838L196.346 65L195.095 65.0068C195.045 64.7972 195.02 64.5853 195.02 64.3711C195.024 64.1569 195.04 63.945 195.067 63.7354ZM195.826 60.5156L195.683 61.4043L194.514 61.3975C194.268 61.3975 194.008 61.4157 193.734 61.4521C193.461 61.4886 193.201 61.557 192.955 61.6572C192.709 61.7575 192.502 61.9033 192.333 62.0947C192.164 62.2816 192.062 62.5254 192.025 62.8262C191.998 63.0723 192.028 63.2865 192.114 63.4688C192.205 63.6465 192.342 63.7855 192.524 63.8857C192.707 63.986 192.919 64.0384 193.16 64.043C193.475 64.0475 193.785 63.986 194.09 63.8584C194.395 63.7308 194.662 63.5485 194.89 63.3115C195.118 63.0745 195.275 62.8011 195.361 62.4912L195.812 63.0996C195.726 63.4004 195.585 63.6784 195.389 63.9336C195.193 64.1842 194.96 64.4007 194.691 64.583C194.427 64.7653 194.142 64.9066 193.837 65.0068C193.532 65.1071 193.226 65.1549 192.921 65.1504C192.506 65.1413 192.13 65.0479 191.793 64.8701C191.46 64.6924 191.196 64.444 191 64.125C190.809 63.8014 190.727 63.4255 190.754 62.9971C190.781 62.5277 190.904 62.1335 191.123 61.8145C191.342 61.4954 191.622 61.2402 191.964 61.0488C192.31 60.8574 192.688 60.7207 193.099 60.6387C193.509 60.5521 193.914 60.5088 194.315 60.5088L195.826 60.5156ZM199.832 65H198.595L199.989 56.8311C200.053 56.3343 200.199 55.8991 200.427 55.5254C200.655 55.1471 200.958 54.8532 201.336 54.6436C201.714 54.4339 202.163 54.3314 202.683 54.3359C202.833 54.3405 202.983 54.3542 203.134 54.377C203.284 54.3952 203.432 54.4202 203.578 54.4521L203.428 55.4912C203.323 55.4684 203.214 55.4502 203.1 55.4365C202.99 55.4229 202.881 55.4137 202.771 55.4092C202.48 55.4092 202.227 55.4707 202.013 55.5938C201.799 55.7122 201.625 55.8786 201.493 56.0928C201.366 56.3024 201.279 56.5462 201.233 56.8242L199.832 65ZM202.642 57.6035L202.471 58.5742H198.574L198.752 57.6035H202.642ZM205.69 65.1367C205.185 65.1276 204.745 65.0273 204.371 64.8359C204.002 64.64 203.699 64.3779 203.462 64.0498C203.229 63.7171 203.063 63.3389 202.963 62.915C202.863 62.4912 202.833 62.0469 202.874 61.582L202.901 61.2881C202.947 60.8141 203.063 60.3493 203.25 59.8936C203.437 59.4333 203.685 59.0186 203.995 58.6494C204.31 58.2803 204.679 57.9886 205.103 57.7744C205.531 57.5557 206.005 57.4531 206.524 57.4668C207.039 57.4759 207.468 57.5853 207.81 57.7949C208.151 58.0046 208.418 58.2826 208.609 58.6289C208.805 58.9707 208.933 59.3558 208.992 59.7842C209.051 60.208 209.056 60.6432 209.006 61.0898L208.931 61.6572H203.564L203.729 60.625L207.823 60.6318L207.844 60.5225C207.889 60.1943 207.871 59.8776 207.789 59.5723C207.707 59.2669 207.557 59.0163 207.338 58.8203C207.124 58.6198 206.834 58.515 206.47 58.5059C206.091 58.4922 205.763 58.5697 205.485 58.7383C205.207 58.9023 204.975 59.1257 204.788 59.4082C204.601 59.6862 204.453 59.9915 204.344 60.3242C204.239 60.6523 204.166 60.9736 204.125 61.2881L204.098 61.5752C204.07 61.8669 204.079 62.1608 204.125 62.457C204.171 62.7533 204.257 63.0244 204.385 63.2705C204.517 63.512 204.699 63.7103 204.932 63.8652C205.164 64.0156 205.451 64.0954 205.793 64.1045C206.208 64.1136 206.579 64.0247 206.907 63.8379C207.24 63.6465 207.543 63.4049 207.816 63.1133L208.521 63.7148C208.306 64.0293 208.051 64.2936 207.755 64.5078C207.459 64.722 207.135 64.8815 206.784 64.9863C206.433 65.0911 206.069 65.1413 205.69 65.1367ZM218.979 62.4365C219.021 62.1357 218.991 61.8851 218.891 61.6846C218.79 61.4795 218.645 61.3086 218.453 61.1719C218.262 61.0306 218.048 60.9144 217.811 60.8232C217.574 60.7275 217.337 60.6387 217.1 60.5566C216.758 60.4382 216.421 60.2992 216.088 60.1396C215.76 59.9801 215.464 59.7887 215.199 59.5654C214.935 59.3376 214.728 59.0687 214.577 58.7588C214.431 58.4489 214.374 58.0866 214.406 57.6719C214.443 57.2116 214.573 56.8083 214.796 56.4619C215.019 56.111 215.304 55.8193 215.65 55.5869C215.997 55.3545 216.377 55.1813 216.792 55.0674C217.207 54.9535 217.626 54.901 218.05 54.9102C218.638 54.9238 219.164 55.056 219.629 55.3066C220.094 55.5527 220.456 55.8991 220.716 56.3457C220.976 56.7923 221.09 57.3187 221.058 57.9248L219.772 57.918C219.804 57.5215 219.754 57.182 219.622 56.8994C219.49 56.6123 219.285 56.3913 219.007 56.2363C218.733 56.0814 218.396 55.9993 217.995 55.9902C217.631 55.9811 217.282 56.0358 216.949 56.1543C216.621 56.2728 216.343 56.4574 216.115 56.708C215.887 56.9541 215.748 57.2708 215.698 57.6582C215.662 57.9271 215.698 58.1572 215.808 58.3486C215.917 58.54 216.067 58.7018 216.259 58.834C216.455 58.9661 216.667 59.0778 216.895 59.1689C217.127 59.2601 217.348 59.3398 217.558 59.4082C217.922 59.5312 218.273 59.6771 218.61 59.8457C218.952 60.0098 219.253 60.2103 219.513 60.4473C219.777 60.6797 219.978 60.9577 220.114 61.2812C220.256 61.6048 220.308 61.9854 220.271 62.4229C220.23 62.8968 220.096 63.307 219.868 63.6533C219.64 63.9997 219.349 64.2845 218.993 64.5078C218.638 64.7266 218.248 64.8883 217.824 64.9932C217.4 65.098 216.974 65.1458 216.546 65.1367C216.099 65.1322 215.675 65.0615 215.274 64.9248C214.878 64.7835 214.527 64.583 214.222 64.3232C213.916 64.0635 213.682 63.749 213.518 63.3799C213.354 63.0062 213.283 62.5824 213.306 62.1084L214.584 62.1152C214.561 62.4342 214.595 62.7145 214.687 62.9561C214.778 63.1976 214.914 63.4004 215.097 63.5645C215.284 63.724 215.505 63.847 215.76 63.9336C216.015 64.0156 216.295 64.0589 216.601 64.0635C216.961 64.0726 217.312 64.0225 217.653 63.9131C218 63.8037 218.294 63.6283 218.535 63.3867C218.777 63.1452 218.925 62.8285 218.979 62.4365ZM224.407 65.1367C223.901 65.1276 223.462 65.0273 223.088 64.8359C222.719 64.64 222.416 64.3779 222.179 64.0498C221.946 63.7171 221.78 63.3389 221.68 62.915C221.579 62.4912 221.55 62.0469 221.591 61.582L221.618 61.2881C221.664 60.8141 221.78 60.3493 221.967 59.8936C222.154 59.4333 222.402 59.0186 222.712 58.6494C223.026 58.2803 223.396 57.9886 223.819 57.7744C224.248 57.5557 224.722 57.4531 225.241 57.4668C225.756 57.4759 226.185 57.5853 226.526 57.7949C226.868 58.0046 227.135 58.2826 227.326 58.6289C227.522 58.9707 227.65 59.3558 227.709 59.7842C227.768 60.208 227.773 60.6432 227.723 61.0898L227.647 61.6572H222.281L222.445 60.625L226.54 60.6318L226.561 60.5225C226.606 60.1943 226.588 59.8776 226.506 59.5723C226.424 59.2669 226.273 59.0163 226.055 58.8203C225.84 58.6198 225.551 58.515 225.187 58.5059C224.808 58.4922 224.48 58.5697 224.202 58.7383C223.924 58.9023 223.692 59.1257 223.505 59.4082C223.318 59.6862 223.17 59.9915 223.061 60.3242C222.956 60.6523 222.883 60.9736 222.842 61.2881L222.814 61.5752C222.787 61.8669 222.796 62.1608 222.842 62.457C222.887 62.7533 222.974 63.0244 223.102 63.2705C223.234 63.512 223.416 63.7103 223.648 63.8652C223.881 64.0156 224.168 64.0954 224.51 64.1045C224.924 64.1136 225.296 64.0247 225.624 63.8379C225.957 63.6465 226.26 63.4049 226.533 63.1133L227.237 63.7148C227.023 64.0293 226.768 64.2936 226.472 64.5078C226.175 64.722 225.852 64.8815 225.501 64.9863C225.15 65.0911 224.785 65.1413 224.407 65.1367ZM232.781 57.6035L232.61 58.5742H228.721L228.892 57.6035H232.781ZM230.519 55.8057H231.749L230.498 63.1816C230.484 63.3411 230.489 63.4847 230.512 63.6123C230.535 63.7399 230.589 63.8424 230.676 63.9199C230.762 63.9928 230.895 64.0316 231.072 64.0361C231.173 64.0361 231.271 64.0293 231.366 64.0156C231.466 63.9974 231.567 63.9814 231.667 63.9678L231.578 65.0068C231.432 65.0479 231.282 65.0775 231.127 65.0957C230.977 65.1185 230.826 65.1276 230.676 65.123C230.298 65.1185 230.001 65.0228 229.787 64.8359C229.573 64.6491 229.427 64.4076 229.35 64.1113C229.272 63.8151 229.249 63.4984 229.281 63.1611L230.519 55.8057ZM237.628 63.2227L238.599 57.6035H239.843L238.558 65H237.375L237.628 63.2227ZM238.093 61.7324L238.599 61.7119C238.539 62.1768 238.435 62.6188 238.284 63.0381C238.134 63.4528 237.929 63.8219 237.669 64.1455C237.414 64.4645 237.095 64.7152 236.712 64.8975C236.334 65.0752 235.885 65.1572 235.365 65.1436C234.96 65.1299 234.62 65.0479 234.347 64.8975C234.078 64.7471 233.866 64.5443 233.711 64.2891C233.556 64.0339 233.453 63.7422 233.403 63.4141C233.353 63.0859 233.346 62.7396 233.383 62.375L234.183 57.6035H235.42L234.62 62.3955C234.602 62.596 234.6 62.7943 234.613 62.9902C234.627 63.1816 234.668 63.3571 234.736 63.5166C234.805 63.6761 234.91 63.806 235.051 63.9062C235.197 64.002 235.388 64.0544 235.625 64.0635C236.117 64.0817 236.534 63.9906 236.876 63.79C237.218 63.585 237.489 63.3024 237.689 62.9424C237.89 62.5824 238.024 62.179 238.093 61.7324ZM242.68 59.1006L241.162 67.8438H239.918L241.695 57.6035H242.83L242.68 59.1006ZM247.13 61.1992L247.116 61.3428C247.057 61.7894 246.948 62.2406 246.788 62.6963C246.633 63.1475 246.421 63.5599 246.152 63.9336C245.883 64.3073 245.553 64.6058 245.161 64.8291C244.774 65.0524 244.318 65.1572 243.794 65.1436C243.334 65.1344 242.939 65.0342 242.611 64.8428C242.283 64.6468 242.019 64.3893 241.818 64.0703C241.618 63.7467 241.474 63.3867 241.388 62.9902C241.306 62.5892 241.278 62.179 241.306 61.7598L241.401 61.001C241.479 60.5544 241.609 60.1191 241.791 59.6953C241.978 59.2669 242.215 58.8818 242.502 58.54C242.789 58.1982 243.129 57.9316 243.521 57.7402C243.917 57.5443 244.366 57.4531 244.867 57.4668C245.373 57.4805 245.783 57.6035 246.098 57.8359C246.417 58.0638 246.658 58.3623 246.822 58.7314C246.991 59.096 247.096 59.4948 247.137 59.9277C247.178 60.3561 247.175 60.7799 247.13 61.1992ZM245.872 61.3359L245.893 61.1855C245.924 60.9121 245.931 60.6227 245.913 60.3174C245.899 60.012 245.842 59.7272 245.742 59.4629C245.646 59.194 245.494 58.973 245.284 58.7998C245.079 58.6266 244.799 58.5355 244.443 58.5264C244.161 58.5173 243.892 58.5651 243.637 58.6699C243.386 58.7702 243.158 58.9137 242.953 59.1006C242.748 59.2829 242.573 59.4948 242.427 59.7363C242.281 59.9733 242.174 60.224 242.105 60.4883L241.812 62.2725C241.807 62.596 241.878 62.8968 242.023 63.1748C242.169 63.4482 242.368 63.6693 242.618 63.8379C242.873 64.0065 243.163 64.0954 243.486 64.1045C243.865 64.1136 244.193 64.0384 244.471 63.8789C244.753 63.7148 244.99 63.4961 245.182 63.2227C245.373 62.9447 245.526 62.6416 245.64 62.3135C245.754 61.9808 245.831 61.6549 245.872 61.3359ZM248.189 64.3506C248.189 64.1273 248.26 63.9404 248.401 63.79C248.547 63.6396 248.732 63.5622 248.955 63.5576C249.178 63.5531 249.361 63.6214 249.502 63.7627C249.648 63.904 249.718 64.0863 249.714 64.3096C249.714 64.5329 249.641 64.7174 249.495 64.8633C249.354 65.0091 249.172 65.0843 248.948 65.0889C248.729 65.0934 248.547 65.0273 248.401 64.8906C248.256 64.7539 248.185 64.5739 248.189 64.3506ZM254.759 65.1367C254.253 65.1276 253.813 65.0273 253.439 64.8359C253.07 64.64 252.767 64.3779 252.53 64.0498C252.298 63.7171 252.132 63.3389 252.031 62.915C251.931 62.4912 251.901 62.0469 251.942 61.582L251.97 61.2881C252.015 60.8141 252.132 60.3493 252.318 59.8936C252.505 59.4333 252.754 59.0186 253.063 58.6494C253.378 58.2803 253.747 57.9886 254.171 57.7744C254.599 57.5557 255.073 57.4531 255.593 57.4668C256.108 57.4759 256.536 57.5853 256.878 57.7949C257.22 58.0046 257.486 58.2826 257.678 58.6289C257.874 58.9707 258.001 59.3558 258.061 59.7842C258.12 60.208 258.124 60.6432 258.074 61.0898L257.999 61.6572H252.633L252.797 60.625L256.892 60.6318L256.912 60.5225C256.958 60.1943 256.939 59.8776 256.857 59.5723C256.775 59.2669 256.625 59.0163 256.406 58.8203C256.192 58.6198 255.903 58.515 255.538 58.5059C255.16 58.4922 254.832 58.5697 254.554 58.7383C254.276 58.9023 254.043 59.1257 253.856 59.4082C253.67 59.6862 253.521 59.9915 253.412 60.3242C253.307 60.6523 253.234 60.9736 253.193 61.2881L253.166 61.5752C253.139 61.8669 253.148 62.1608 253.193 62.457C253.239 62.7533 253.326 63.0244 253.453 63.2705C253.585 63.512 253.768 63.7103 254 63.8652C254.232 64.0156 254.52 64.0954 254.861 64.1045C255.276 64.1136 255.647 64.0247 255.976 63.8379C256.308 63.6465 256.611 63.4049 256.885 63.1133L257.589 63.7148C257.375 64.0293 257.119 64.2936 256.823 64.5078C256.527 64.722 256.203 64.8815 255.853 64.9863C255.502 65.0911 255.137 65.1413 254.759 65.1367ZM260.863 57.6035L262.005 60.29L264.015 57.6035H265.539L262.572 61.3154L264.377 65H263.03L261.807 62.2314L259.722 65H258.211L261.26 61.1924L259.517 57.6035H260.863ZM268.567 65.1367C268.062 65.1276 267.622 65.0273 267.248 64.8359C266.879 64.64 266.576 64.3779 266.339 64.0498C266.106 63.7171 265.94 63.3389 265.84 62.915C265.74 62.4912 265.71 62.0469 265.751 61.582L265.778 61.2881C265.824 60.8141 265.94 60.3493 266.127 59.8936C266.314 59.4333 266.562 59.0186 266.872 58.6494C267.187 58.2803 267.556 57.9886 267.979 57.7744C268.408 57.5557 268.882 57.4531 269.401 57.4668C269.916 57.4759 270.345 57.5853 270.687 57.7949C271.028 58.0046 271.295 58.2826 271.486 58.6289C271.682 58.9707 271.81 59.3558 271.869 59.7842C271.928 60.208 271.933 60.6432 271.883 61.0898L271.808 61.6572H266.441L266.605 60.625L270.7 60.6318L270.721 60.5225C270.766 60.1943 270.748 59.8776 270.666 59.5723C270.584 59.2669 270.434 59.0163 270.215 58.8203C270.001 58.6198 269.711 58.515 269.347 58.5059C268.968 58.4922 268.64 58.5697 268.362 58.7383C268.084 58.9023 267.852 59.1257 267.665 59.4082C267.478 59.6862 267.33 59.9915 267.221 60.3242C267.116 60.6523 267.043 60.9736 267.002 61.2881L266.975 61.5752C266.947 61.8669 266.956 62.1608 267.002 62.457C267.048 62.7533 267.134 63.0244 267.262 63.2705C267.394 63.512 267.576 63.7103 267.809 63.8652C268.041 64.0156 268.328 64.0954 268.67 64.1045C269.085 64.1136 269.456 64.0247 269.784 63.8379C270.117 63.6465 270.42 63.4049 270.693 63.1133L271.397 63.7148C271.183 64.0293 270.928 64.2936 270.632 64.5078C270.336 64.722 270.012 64.8815 269.661 64.9863C269.31 65.0911 268.946 65.1413 268.567 65.1367ZM275.164 54.5L275.027 55.3682C274.977 55.7008 274.882 56.0176 274.74 56.3184C274.604 56.6191 274.43 56.8994 274.221 57.1592C274.016 57.4189 273.785 57.6514 273.53 57.8564L272.812 57.3369C273.049 57.0452 273.252 56.7422 273.421 56.4277C273.594 56.1087 273.715 55.7646 273.783 55.3955L273.94 54.5H275.164ZM193.036 89.299V102H190.864V89.299H193.036ZM197.023 89.299V91.0436H186.913V89.299H197.023ZM208.581 95.3006V95.9984C208.581 96.958 208.456 97.8187 208.206 98.5805C207.956 99.3423 207.598 99.9907 207.133 100.526C206.674 101.061 206.121 101.471 205.476 101.756C204.83 102.035 204.115 102.174 203.33 102.174C202.551 102.174 201.838 102.035 201.193 101.756C200.553 101.471 199.998 101.061 199.527 100.526C199.056 99.9907 198.689 99.3423 198.427 98.5805C198.172 97.8187 198.044 96.958 198.044 95.9984V95.3006C198.044 94.341 198.172 93.4832 198.427 92.7272C198.683 91.9654 199.044 91.317 199.509 90.7819C199.98 90.2411 200.536 89.8311 201.175 89.552C201.821 89.267 202.533 89.1245 203.312 89.1245C204.098 89.1245 204.813 89.267 205.458 89.552C206.104 89.8311 206.659 90.2411 207.124 90.7819C207.59 91.317 207.947 91.9654 208.197 92.7272C208.453 93.4832 208.581 94.341 208.581 95.3006ZM206.392 95.9984V95.2831C206.392 94.5736 206.322 93.9485 206.182 93.4076C206.049 92.861 205.848 92.4044 205.58 92.0381C205.319 91.6659 204.996 91.3867 204.612 91.2006C204.228 91.0087 203.795 90.9128 203.312 90.9128C202.83 90.9128 202.399 91.0087 202.021 91.2006C201.643 91.3867 201.321 91.6659 201.053 92.0381C200.791 92.4044 200.591 92.861 200.451 93.4076C200.312 93.9485 200.242 94.5736 200.242 95.2831V95.9984C200.242 96.7079 200.312 97.336 200.451 97.8826C200.591 98.4293 200.794 98.8916 201.062 99.2696C201.335 99.6418 201.661 99.9239 202.039 100.116C202.417 100.302 202.847 100.395 203.33 100.395C203.818 100.395 204.252 100.302 204.63 100.116C205.008 99.9239 205.328 99.6418 205.589 99.2696C205.851 98.8916 206.049 98.4293 206.182 97.8826C206.322 97.336 206.392 96.7079 206.392 95.9984ZM166.753 110.299V123H164.564V110.299H166.753ZM179.55 110.299V123H177.361L171.665 113.902V123H169.475V110.299H171.665L177.378 119.415V110.299H179.55ZM188.841 119.729C188.841 119.467 188.8 119.234 188.718 119.031C188.643 118.827 188.506 118.641 188.308 118.473C188.111 118.304 187.832 118.141 187.471 117.984C187.116 117.821 186.663 117.656 186.11 117.487C185.505 117.301 184.947 117.094 184.435 116.868C183.929 116.635 183.487 116.367 183.109 116.065C182.731 115.757 182.438 115.405 182.228 115.01C182.019 114.608 181.914 114.146 181.914 113.623C181.914 113.105 182.022 112.634 182.237 112.209C182.458 111.785 182.769 111.418 183.171 111.11C183.578 110.796 184.057 110.555 184.61 110.386C185.162 110.212 185.773 110.125 186.442 110.125C187.384 110.125 188.195 110.299 188.876 110.648C189.562 110.997 190.088 111.465 190.454 112.052C190.827 112.64 191.013 113.288 191.013 113.998H188.841C188.841 113.579 188.75 113.21 188.57 112.89C188.396 112.564 188.128 112.308 187.768 112.122C187.413 111.936 186.962 111.843 186.416 111.843C185.898 111.843 185.468 111.922 185.125 112.079C184.781 112.236 184.526 112.448 184.357 112.715C184.188 112.983 184.104 113.285 184.104 113.623C184.104 113.861 184.159 114.079 184.27 114.277C184.38 114.469 184.549 114.649 184.776 114.818C185.002 114.98 185.287 115.135 185.63 115.28C185.974 115.425 186.378 115.565 186.843 115.699C187.547 115.908 188.16 116.141 188.684 116.397C189.207 116.647 189.643 116.932 189.992 117.251C190.341 117.571 190.603 117.935 190.777 118.342C190.952 118.743 191.039 119.2 191.039 119.711C191.039 120.246 190.931 120.729 190.716 121.159C190.501 121.584 190.193 121.947 189.791 122.25C189.396 122.546 188.919 122.776 188.361 122.939C187.808 123.096 187.192 123.174 186.512 123.174C185.901 123.174 185.299 123.093 184.706 122.93C184.118 122.767 183.583 122.52 183.101 122.189C182.618 121.851 182.234 121.433 181.949 120.933C181.664 120.427 181.522 119.836 181.522 119.162H183.711C183.711 119.575 183.781 119.927 183.921 120.217C184.066 120.508 184.267 120.746 184.523 120.933C184.778 121.113 185.075 121.247 185.412 121.334C185.755 121.421 186.122 121.465 186.512 121.465C187.023 121.465 187.451 121.392 187.794 121.247C188.143 121.101 188.404 120.898 188.579 120.636C188.753 120.374 188.841 120.072 188.841 119.729ZM198.201 110.299V123H196.029V110.299H198.201ZM202.187 110.299V112.044H192.077V110.299H202.187ZM207.971 111.991L204.176 123H201.882L206.662 110.299H208.128L207.971 111.991ZM211.146 123L207.343 111.991L207.177 110.299H208.651L213.449 123H211.146ZM210.963 118.289V120.025H204.054V118.289H210.963ZM222.826 121.264V123H216.45V121.264H222.826ZM217.06 110.299V123H214.871V110.299H217.06ZM232.474 121.264V123H226.098V121.264H232.474ZM226.708 110.299V123H224.519V110.299H226.708Z" fill="white"/>
<path d="M73.3624 95.3687H51.582C50.0464 95.3687 48.6231 95.8516 47.8178 97.4491C47.4432 98.1921 47.874 99.1395 48.5856 99.1395H76.3588C77.0704 99.1395 77.5012 98.1921 77.1266 97.4491C76.3213 95.8516 74.898 95.3687 73.3624 95.3687Z" fill="#09C93A"/>
<path d="M84.8987 105.79C83.85 103.69 81.9959 102.427 80.0108 102.427H45.1398C44.8401 102.427 44.6341 102.409 44.3158 102.502L43.7727 102.706C42.4243 103.226 41.1882 104.118 40.4766 105.362C40.4766 105.362 40.4766 105.381 40.4766 105.399C40.3829 105.529 40.3268 105.659 40.2519 105.79C39.896 106.458 40.0833 107.294 40.5328 107.703C40.6826 107.833 40.8699 107.926 41.0571 107.963C41.1133 108 41.1695 108 41.2444 108H83.9249C84.8425 108 85.4231 106.755 84.9174 105.79H84.8987Z" fill="#09C93A"/>
<path d="M86.1721 72.4471L74.5048 55.5806C74.2426 55.2091 73.8118 54.9862 73.3624 54.9862H72.1825C72.1825 54.9862 72.1825 54.9862 72.1638 54.9862C71.3585 54.7447 70.7967 54.0203 70.778 53.1844C70.778 53.1844 70.778 53.1658 70.778 53.1472L73.0253 47.9275C73.2875 47.3517 73.044 46.6644 72.4822 46.3672C71.1712 45.6985 66.995 46.1257 65.2907 46.2372C56.5449 46.813 47.874 51.4569 43.4542 59.0728C37.6674 69.0107 40.5515 79.2643 42.1246 89.778C42.2557 90.6511 42.9111 91.4127 43.7913 91.5055C44.7277 91.617 46.0012 91.0969 45.8139 89.7966C45.6079 88.4034 45.3832 87.4561 45.1397 85.9701C43.6228 76.6823 41.9186 66.1686 48.0987 58.7199C51.9004 54.1503 59.4852 50.5095 65.3844 50.4352C65.4031 50.4352 65.4406 50.4352 65.478 50.4352C66.2271 50.5095 66.8077 51.1225 66.8077 51.8655C66.8077 52.6086 66.1522 53.3144 65.3469 53.3144L63.6989 53.5559C62.9685 53.6674 62.2569 53.7974 61.5452 53.9646C60.9459 54.0946 60.3092 54.2432 60.2904 54.2432C54.6909 55.6549 49.8029 59.853 47.8553 64.9241C45.7203 70.5153 46.563 75.7721 47.8178 83.7596C48.1362 85.8029 48.3984 87.4747 48.7542 89.9638C48.9415 91.7842 50.346 92.4343 51.9192 92.4529H72.3885C74.2239 92.4529 75.7408 91.004 75.8157 89.1836C75.8532 88.1434 75.5535 87.1403 74.9542 86.2858L67.3321 75.4935C66.8077 74.6205 67.6692 73.5617 68.643 73.896L73.5122 75.5678C73.7931 75.6978 73.9991 75.9579 74.074 76.2551L74.486 77.834C74.561 78.1312 74.7857 78.3913 75.0666 78.5213L80.8722 81.029C81.2842 81.2333 81.7898 81.1404 82.1082 80.8061L85.4792 77.8897C85.6852 77.6668 85.8163 77.3696 85.8725 77.0353L86.2845 72.9858C86.247 72.8372 86.1909 72.6329 86.1534 72.4843L86.1721 72.4471Z" fill="#09C93A"/>
</g>
<defs>
<filter id="filter0_d_11932_445" x="12.0449" y="12" width="307.306" height="141.91" filterUnits="userSpaceOnUse" color-interpolation-filters="sRGB">
<feFlood flood-opacity="0" result="BackgroundImageFix"/>
<feColorMatrix in="SourceAlpha" type="matrix" values="0 0 0 0 0 0 0 0 0 0 0 0 0 0 0 0 0 0 127 0" result="hardAlpha"/>
<feOffset dy="5.95506"/>
<feGaussianBlur stdDeviation="2.97753"/>
<feComposite in2="hardAlpha" operator="out"/>
<feColorMatrix type="matrix" values="0 0 0 0 0 0 0 0 0 0 0 0 0 0 0 0 0 0 0.25 0"/>
<feBlend mode="normal" in2="BackgroundImageFix" result="effect1_dropShadow_11932_445"/>
<feBlend mode="normal" in="SourceGraphic" in2="effect1_dropShadow_11932_445" result="shape"/>
</filter>
<filter id="filter1_d_11932_445" x="0.13483" y="0.0898871" width="125.715" height="165.609" filterUnits="userSpaceOnUse" color-interpolation-filters="sRGB">
<feFlood flood-opacity="0" result="BackgroundImageFix"/>
<feColorMatrix in="SourceAlpha" type="matrix" values="0 0 0 0 0 0 0 0 0 0 0 0 0 0 0 0 0 0 127 0" result="hardAlpha"/>
<feOffset dy="5.95506"/>
<feGaussianBlur stdDeviation="8.93258"/>
<feComposite in2="hardAlpha" operator="out"/>
<feColorMatrix type="matrix" values="0 0 0 0 0.0141021 0 0 0 0 0.163044 0 0 0 0 0.267253 0 0 0 0.05 0"/>
<feBlend mode="normal" in2="BackgroundImageFix" result="effect1_dropShadow_11932_445"/>
<feBlend mode="normal" in="SourceGraphic" in2="effect1_dropShadow_11932_445" result="shape"/>
</filter>
</defs>
</svg>
