<svg width="186" height="497" viewBox="0 0 186 497" fill="none" xmlns="http://www.w3.org/2000/svg">
<g filter="url(#filter0_d_12359_231)">
<path d="M166.195 120.29L91.8177 120.571L17.4406 120.853L76.2984 27.952C83.3345 16.8464 99.5157 16.7851 106.636 27.8371L166.195 120.29ZM166.195 120.29L167.456 453.567C167.494 463.508 159.465 471.597 149.524 471.635L36.7699 472.062C26.8288 472.099 18.7395 464.071 18.7019 454.13L17.4406 120.853L91.8177 120.571L166.195 120.29Z" fill="#2E7D32"/>
<g filter="url(#filter1_d_12359_231)">
<path d="M33.7699 472.073C25.4857 472.104 18.7446 465.414 18.7133 457.13L18.3553 362.534L167.109 361.971L167.467 456.567C167.499 464.851 160.809 471.592 152.524 471.624L33.7699 472.073Z" fill="white"/>
</g>
<path d="M104.822 439.311H78.6021C76.7534 439.311 75.04 439.893 74.0706 441.816C73.6197 442.71 74.1382 443.85 74.9949 443.85H108.429C109.285 443.85 109.804 442.71 109.353 441.816C108.384 439.893 106.67 439.311 104.822 439.311Z" fill="#09C93A"/>
<path d="M118.709 451.856C117.447 449.329 115.215 447.808 112.825 447.808H70.8468C70.4861 447.808 70.2381 447.786 69.8548 447.898L69.201 448.144C67.5778 448.77 66.0898 449.843 65.2331 451.342C65.2331 451.342 65.2331 451.364 65.2331 451.386C65.1204 451.543 65.0528 451.699 64.9626 451.856C64.5343 452.661 64.7597 453.667 65.3008 454.159C65.4811 454.316 65.7066 454.427 65.932 454.472C65.9997 454.517 66.0673 454.517 66.1575 454.517H117.537C118.642 454.517 119.34 453.019 118.732 451.856H118.709Z" fill="#09C93A"/>
<path d="M120.242 411.718L106.197 391.414C105.881 390.966 105.363 390.698 104.822 390.698H103.401C103.401 390.698 103.401 390.698 103.379 390.698C102.409 390.407 101.733 389.535 101.71 388.529C101.71 388.529 101.71 388.507 101.71 388.484L104.416 382.201C104.731 381.508 104.438 380.68 103.762 380.322C102.184 379.517 97.1564 380.032 95.1048 380.166C84.5764 380.859 74.1382 386.449 68.8177 395.618C61.8514 407.581 65.3232 419.924 67.217 432.581C67.3748 433.632 68.1639 434.549 69.2235 434.661C70.3507 434.795 71.8838 434.169 71.6583 432.603C71.4103 430.926 71.1398 429.786 70.8467 427.997C69.0206 416.816 66.969 404.16 74.4088 395.193C78.9853 389.692 88.1159 385.309 95.2175 385.22C95.2401 385.22 95.2852 385.22 95.3302 385.22C96.232 385.309 96.9309 386.047 96.9309 386.941C96.9309 387.836 96.1419 388.686 95.1724 388.686L93.1885 388.976C92.3093 389.11 91.4526 389.267 90.5959 389.468C89.8744 389.625 89.1079 389.804 89.0854 389.804C82.3445 391.503 76.4603 396.557 74.1157 402.661C71.5456 409.392 72.5601 415.721 74.0706 425.336C74.4538 427.796 74.7695 429.808 75.1978 432.805C75.4233 434.996 77.1141 435.779 79.0079 435.801H103.649C105.859 435.801 107.685 434.057 107.775 431.865C107.82 430.613 107.459 429.406 106.738 428.377L97.5622 415.385C96.9309 414.334 97.968 413.06 99.1403 413.462L105.002 415.475C105.34 415.631 105.588 415.944 105.678 416.302L106.174 418.203C106.264 418.56 106.535 418.873 106.873 419.03L113.862 422.049C114.358 422.295 114.967 422.183 115.35 421.78L119.408 418.27C119.656 418.001 119.814 417.644 119.881 417.241L120.377 412.366C120.332 412.187 120.265 411.941 120.22 411.763L120.242 411.718Z" fill="#09C93A"/>
<path d="M78.2812 91.2969H80.2344C80.1719 92.0417 79.9635 92.7057 79.6094 93.2891C79.2552 93.8672 78.7578 94.3229 78.1172 94.6562C77.4766 94.9896 76.6979 95.1562 75.7812 95.1562C75.0781 95.1562 74.4453 95.0312 73.8828 94.7812C73.3203 94.526 72.8385 94.1667 72.4375 93.7031C72.0365 93.2344 71.7292 92.6693 71.5156 92.0078C71.3073 91.3464 71.2031 90.6068 71.2031 89.7891V88.8438C71.2031 88.026 71.3099 87.2865 71.5234 86.625C71.7422 85.9635 72.0547 85.3984 72.4609 84.9297C72.8672 84.4557 73.3542 84.0938 73.9219 83.8438C74.4948 83.5938 75.138 83.4688 75.8516 83.4688C76.7578 83.4688 77.5234 83.6354 78.1484 83.9688C78.7734 84.3021 79.2578 84.763 79.6016 85.3516C79.9505 85.9401 80.1641 86.6146 80.2422 87.375H78.2891C78.237 86.8854 78.1224 86.4661 77.9453 86.1172C77.7734 85.7682 77.5182 85.5026 77.1797 85.3203C76.8411 85.1328 76.3984 85.0391 75.8516 85.0391C75.4036 85.0391 75.013 85.1224 74.6797 85.2891C74.3464 85.4557 74.0677 85.7005 73.8438 86.0234C73.6198 86.3464 73.4505 86.7448 73.3359 87.2188C73.2266 87.6875 73.1719 88.224 73.1719 88.8281V89.7891C73.1719 90.362 73.2214 90.8828 73.3203 91.3516C73.4245 91.8151 73.5807 92.2135 73.7891 92.5469C74.0026 92.8802 74.2734 93.138 74.6016 93.3203C74.9297 93.5026 75.3229 93.5938 75.7812 93.5938C76.3385 93.5938 76.7891 93.5052 77.1328 93.3281C77.4818 93.151 77.7448 92.8932 77.9219 92.5547C78.1042 92.2109 78.224 91.7917 78.2812 91.2969ZM89.1406 93.4453V95H83.4297V93.4453H89.1406ZM83.9766 83.625V95H82.0156V83.625H83.9766ZM92.75 83.625V95H90.7891V83.625H92.75ZM101.906 91.2969H103.859C103.797 92.0417 103.589 92.7057 103.234 93.2891C102.88 93.8672 102.383 94.3229 101.742 94.6562C101.102 94.9896 100.323 95.1562 99.4062 95.1562C98.7031 95.1562 98.0703 95.0312 97.5078 94.7812C96.9453 94.526 96.4635 94.1667 96.0625 93.7031C95.6615 93.2344 95.3542 92.6693 95.1406 92.0078C94.9323 91.3464 94.8281 90.6068 94.8281 89.7891V88.8438C94.8281 88.026 94.9349 87.2865 95.1484 86.625C95.3672 85.9635 95.6797 85.3984 96.0859 84.9297C96.4922 84.4557 96.9792 84.0938 97.5469 83.8438C98.1198 83.5938 98.763 83.4688 99.4766 83.4688C100.383 83.4688 101.148 83.6354 101.773 83.9688C102.398 84.3021 102.883 84.763 103.227 85.3516C103.576 85.9401 103.789 86.6146 103.867 87.375H101.914C101.862 86.8854 101.747 86.4661 101.57 86.1172C101.398 85.7682 101.143 85.5026 100.805 85.3203C100.466 85.1328 100.023 85.0391 99.4766 85.0391C99.0286 85.0391 98.638 85.1224 98.3047 85.2891C97.9714 85.4557 97.6927 85.7005 97.4688 86.0234C97.2448 86.3464 97.0755 86.7448 96.9609 87.2188C96.8516 87.6875 96.7969 88.224 96.7969 88.8281V89.7891C96.7969 90.362 96.8464 90.8828 96.9453 91.3516C97.0495 91.8151 97.2057 92.2135 97.4141 92.5469C97.6276 92.8802 97.8984 93.138 98.2266 93.3203C98.5547 93.5026 98.9479 93.5938 99.4062 93.5938C99.9635 93.5938 100.414 93.5052 100.758 93.3281C101.107 93.151 101.37 92.8932 101.547 92.5547C101.729 92.2109 101.849 91.7917 101.906 91.2969ZM107.602 83.625V95H105.641V83.625H107.602ZM114.438 83.625L109.828 89.1016L107.203 91.8828L106.859 89.9375L108.734 87.625L112.047 83.625H114.438ZM112.328 95L108.586 89.6094L109.938 88.2734L114.656 95H112.328ZM62.8203 102.625V114H60.875V102.625H62.8203ZM66.3906 102.625V104.188H57.3359V102.625H66.3906ZM76.7422 108V108.625C76.7422 109.484 76.6302 110.255 76.4062 110.938C76.1823 111.62 75.862 112.201 75.4453 112.68C75.0339 113.159 74.5391 113.526 73.9609 113.781C73.3828 114.031 72.7422 114.156 72.0391 114.156C71.3411 114.156 70.7031 114.031 70.125 113.781C69.5521 113.526 69.0547 113.159 68.6328 112.68C68.2109 112.201 67.8828 111.62 67.6484 110.938C67.4193 110.255 67.3047 109.484 67.3047 108.625V108C67.3047 107.141 67.4193 106.372 67.6484 105.695C67.8776 105.013 68.2005 104.432 68.6172 103.953C69.0391 103.469 69.5365 103.102 70.1094 102.852C70.6875 102.596 71.3255 102.469 72.0234 102.469C72.7266 102.469 73.3672 102.596 73.9453 102.852C74.5234 103.102 75.0208 103.469 75.4375 103.953C75.8542 104.432 76.1745 105.013 76.3984 105.695C76.6276 106.372 76.7422 107.141 76.7422 108ZM74.7812 108.625V107.984C74.7812 107.349 74.7188 106.789 74.5938 106.305C74.474 105.815 74.2943 105.406 74.0547 105.078C73.8203 104.745 73.5312 104.495 73.1875 104.328C72.8438 104.156 72.4557 104.07 72.0234 104.07C71.5911 104.07 71.2057 104.156 70.8672 104.328C70.5286 104.495 70.2396 104.745 70 105.078C69.7656 105.406 69.5859 105.815 69.4609 106.305C69.3359 106.789 69.2734 107.349 69.2734 107.984V108.625C69.2734 109.26 69.3359 109.823 69.4609 110.312C69.5859 110.802 69.7682 111.216 70.0078 111.555C70.2526 111.888 70.5443 112.141 70.8828 112.312C71.2214 112.479 71.6068 112.562 72.0391 112.562C72.4766 112.562 72.8646 112.479 73.2031 112.312C73.5417 112.141 73.8281 111.888 74.0625 111.555C74.2969 111.216 74.474 110.802 74.5938 110.312C74.7188 109.823 74.7812 109.26 74.7812 108.625ZM87.7734 108V108.625C87.7734 109.484 87.6615 110.255 87.4375 110.938C87.2135 111.62 86.8932 112.201 86.4766 112.68C86.0651 113.159 85.5703 113.526 84.9922 113.781C84.4141 114.031 83.7734 114.156 83.0703 114.156C82.3724 114.156 81.7344 114.031 81.1562 113.781C80.5833 113.526 80.0859 113.159 79.6641 112.68C79.2422 112.201 78.9141 111.62 78.6797 110.938C78.4505 110.255 78.3359 109.484 78.3359 108.625V108C78.3359 107.141 78.4505 106.372 78.6797 105.695C78.9089 105.013 79.2318 104.432 79.6484 103.953C80.0703 103.469 80.5677 103.102 81.1406 102.852C81.7188 102.596 82.3568 102.469 83.0547 102.469C83.7578 102.469 84.3984 102.596 84.9766 102.852C85.5547 103.102 86.0521 103.469 86.4688 103.953C86.8854 104.432 87.2057 105.013 87.4297 105.695C87.6589 106.372 87.7734 107.141 87.7734 108ZM85.8125 108.625V107.984C85.8125 107.349 85.75 106.789 85.625 106.305C85.5052 105.815 85.3255 105.406 85.0859 105.078C84.8516 104.745 84.5625 104.495 84.2188 104.328C83.875 104.156 83.487 104.07 83.0547 104.07C82.6224 104.07 82.237 104.156 81.8984 104.328C81.5599 104.495 81.2708 104.745 81.0312 105.078C80.7969 105.406 80.6172 105.815 80.4922 106.305C80.3672 106.789 80.3047 107.349 80.3047 107.984V108.625C80.3047 109.26 80.3672 109.823 80.4922 110.312C80.6172 110.802 80.7995 111.216 81.0391 111.555C81.2839 111.888 81.5755 112.141 81.9141 112.312C82.2526 112.479 82.638 112.562 83.0703 112.562C83.5078 112.562 83.8958 112.479 84.2344 112.312C84.5729 112.141 84.8594 111.888 85.0938 111.555C85.3281 111.216 85.5052 110.802 85.625 110.312C85.75 109.823 85.8125 109.26 85.8125 108.625ZM96.8594 112.445V114H91.1484V112.445H96.8594ZM91.6953 102.625V114H89.7344V102.625H91.6953ZM102.641 108.859H99.7422L99.7266 107.43H102.258C102.685 107.43 103.047 107.367 103.344 107.242C103.646 107.112 103.875 106.927 104.031 106.688C104.188 106.443 104.266 106.148 104.266 105.805C104.266 105.424 104.193 105.115 104.047 104.875C103.901 104.635 103.677 104.461 103.375 104.352C103.078 104.242 102.698 104.188 102.234 104.188H100.336V114H98.375V102.625H102.234C102.859 102.625 103.417 102.685 103.906 102.805C104.401 102.924 104.82 103.112 105.164 103.367C105.513 103.617 105.776 103.935 105.953 104.32C106.135 104.706 106.227 105.164 106.227 105.695C106.227 106.164 106.115 106.594 105.891 106.984C105.667 107.37 105.336 107.685 104.898 107.93C104.461 108.174 103.917 108.32 103.266 108.367L102.641 108.859ZM102.555 114H99.125L100.008 112.445H102.555C102.997 112.445 103.367 112.372 103.664 112.227C103.961 112.076 104.182 111.87 104.328 111.609C104.479 111.344 104.555 111.034 104.555 110.68C104.555 110.31 104.49 109.99 104.359 109.719C104.229 109.443 104.023 109.232 103.742 109.086C103.461 108.935 103.094 108.859 102.641 108.859H100.438L100.453 107.43H103.32L103.766 107.969C104.391 107.99 104.904 108.128 105.305 108.383C105.711 108.638 106.013 108.969 106.211 109.375C106.409 109.781 106.508 110.219 106.508 110.688C106.508 111.411 106.349 112.018 106.031 112.508C105.719 112.997 105.268 113.37 104.68 113.625C104.091 113.875 103.383 114 102.555 114ZM112.914 104.141L109.516 114H107.461L111.742 102.625H113.055L112.914 104.141ZM115.758 114L112.352 104.141L112.203 102.625H113.523L117.82 114H115.758ZM115.594 109.781V111.336H109.406V109.781H115.594ZM119.094 102.625H123.117C123.982 102.625 124.719 102.755 125.328 103.016C125.938 103.276 126.404 103.661 126.727 104.172C127.055 104.677 127.219 105.302 127.219 106.047C127.219 106.615 127.115 107.115 126.906 107.547C126.698 107.979 126.404 108.344 126.023 108.641C125.643 108.932 125.19 109.159 124.664 109.32L124.07 109.609H120.453L120.438 108.055H123.148C123.617 108.055 124.008 107.971 124.32 107.805C124.633 107.638 124.867 107.411 125.023 107.125C125.185 106.833 125.266 106.505 125.266 106.141C125.266 105.745 125.188 105.401 125.031 105.109C124.88 104.812 124.646 104.586 124.328 104.43C124.01 104.268 123.607 104.188 123.117 104.188H121.055V114H119.094V102.625ZM125.586 114L122.914 108.891L124.969 108.883L127.68 113.898V114H125.586ZM50.1406 143.703V142.641C50.1406 142.312 50.1979 141.974 50.3125 141.625C50.4323 141.271 50.5964 140.935 50.8047 140.617C51.0182 140.294 51.2604 140.018 51.5312 139.789L52.4688 140.375C52.2604 140.703 52.0885 141.049 51.9531 141.414C51.8229 141.773 51.7578 142.18 51.7578 142.633V143.703H50.1406ZM57.3125 152H54.8828L54.8984 150.445H57.3125C58.0156 150.445 58.6042 150.292 59.0781 149.984C59.5573 149.677 59.9167 149.237 60.1562 148.664C60.401 148.091 60.5234 147.409 60.5234 146.617V146C60.5234 145.385 60.4531 144.841 60.3125 144.367C60.1771 143.893 59.974 143.495 59.7031 143.172C59.4375 142.849 59.1094 142.604 58.7188 142.438C58.3333 142.271 57.888 142.188 57.3828 142.188H54.8359V140.625H57.3828C58.138 140.625 58.8281 140.753 59.4531 141.008C60.0781 141.258 60.6172 141.62 61.0703 142.094C61.5286 142.568 61.8802 143.135 62.125 143.797C62.3698 144.458 62.4922 145.198 62.4922 146.016V146.617C62.4922 147.435 62.3698 148.174 62.125 148.836C61.8802 149.497 61.5286 150.065 61.0703 150.539C60.612 151.008 60.0651 151.37 59.4297 151.625C58.7995 151.875 58.0938 152 57.3125 152ZM55.9688 140.625V152H54.0078V140.625H55.9688ZM63.9141 147.867V147.688C63.9141 147.078 64.0026 146.513 64.1797 145.992C64.3568 145.466 64.612 145.01 64.9453 144.625C65.2839 144.234 65.6953 143.932 66.1797 143.719C66.6693 143.5 67.2214 143.391 67.8359 143.391C68.4557 143.391 69.0078 143.5 69.4922 143.719C69.9818 143.932 70.3958 144.234 70.7344 144.625C71.0729 145.01 71.3307 145.466 71.5078 145.992C71.6849 146.513 71.7734 147.078 71.7734 147.688V147.867C71.7734 148.477 71.6849 149.042 71.5078 149.562C71.3307 150.083 71.0729 150.539 70.7344 150.93C70.3958 151.315 69.9844 151.617 69.5 151.836C69.0156 152.049 68.4661 152.156 67.8516 152.156C67.2318 152.156 66.6771 152.049 66.1875 151.836C65.7031 151.617 65.2917 151.315 64.9531 150.93C64.6146 150.539 64.3568 150.083 64.1797 149.562C64.0026 149.042 63.9141 148.477 63.9141 147.867ZM65.7969 147.688V147.867C65.7969 148.247 65.8359 148.607 65.9141 148.945C65.9922 149.284 66.1146 149.581 66.2812 149.836C66.4479 150.091 66.6615 150.292 66.9219 150.438C67.1823 150.583 67.4922 150.656 67.8516 150.656C68.2005 150.656 68.5026 150.583 68.7578 150.438C69.0182 150.292 69.2318 150.091 69.3984 149.836C69.5651 149.581 69.6875 149.284 69.7656 148.945C69.849 148.607 69.8906 148.247 69.8906 147.867V147.688C69.8906 147.312 69.849 146.958 69.7656 146.625C69.6875 146.286 69.5625 145.987 69.3906 145.727C69.224 145.466 69.0104 145.263 68.75 145.117C68.4948 144.966 68.1901 144.891 67.8359 144.891C67.4818 144.891 67.1745 144.966 66.9141 145.117C66.6589 145.263 66.4479 145.466 66.2812 145.727C66.1146 145.987 65.9922 146.286 65.9141 146.625C65.8359 146.958 65.7969 147.312 65.7969 147.688ZM75.6484 150.125L77.6016 143.547H78.8047L78.4766 145.516L76.5078 152H75.4297L75.6484 150.125ZM74.5 143.547L76.0234 150.156L76.1484 152H74.9453L72.6562 143.547H74.5ZM80.6328 150.078L82.1094 143.547H83.9453L81.6641 152H80.4609L80.6328 150.078ZM79.0078 143.547L80.9375 150.047L81.1797 152H80.1016L78.1094 145.508L77.7812 143.547H79.0078ZM87.0938 145.352V152H85.2109V143.547H86.9844L87.0938 145.352ZM86.7578 147.461L86.1484 147.453C86.1536 146.854 86.237 146.305 86.3984 145.805C86.5651 145.305 86.7943 144.875 87.0859 144.516C87.3828 144.156 87.737 143.88 88.1484 143.688C88.5599 143.49 89.0182 143.391 89.5234 143.391C89.9297 143.391 90.2969 143.448 90.625 143.562C90.9583 143.672 91.2422 143.852 91.4766 144.102C91.7161 144.352 91.8984 144.677 92.0234 145.078C92.1484 145.474 92.2109 145.961 92.2109 146.539V152H90.3203V146.531C90.3203 146.125 90.2604 145.805 90.1406 145.57C90.026 145.331 89.8568 145.161 89.6328 145.062C89.4141 144.958 89.1406 144.906 88.8125 144.906C88.4896 144.906 88.2005 144.974 87.9453 145.109C87.6901 145.245 87.474 145.43 87.2969 145.664C87.125 145.898 86.9922 146.169 86.8984 146.477C86.8047 146.784 86.7578 147.112 86.7578 147.461ZM96.1484 140V152H94.2578V140H96.1484ZM97.8516 147.867V147.688C97.8516 147.078 97.9401 146.513 98.1172 145.992C98.2943 145.466 98.5495 145.01 98.8828 144.625C99.2214 144.234 99.6328 143.932 100.117 143.719C100.607 143.5 101.159 143.391 101.773 143.391C102.393 143.391 102.945 143.5 103.43 143.719C103.919 143.932 104.333 144.234 104.672 144.625C105.01 145.01 105.268 145.466 105.445 145.992C105.622 146.513 105.711 147.078 105.711 147.688V147.867C105.711 148.477 105.622 149.042 105.445 149.562C105.268 150.083 105.01 150.539 104.672 150.93C104.333 151.315 103.922 151.617 103.438 151.836C102.953 152.049 102.404 152.156 101.789 152.156C101.169 152.156 100.615 152.049 100.125 151.836C99.6406 151.617 99.2292 151.315 98.8906 150.93C98.5521 150.539 98.2943 150.083 98.1172 149.562C97.9401 149.042 97.8516 148.477 97.8516 147.867ZM99.7344 147.688V147.867C99.7344 148.247 99.7734 148.607 99.8516 148.945C99.9297 149.284 100.052 149.581 100.219 149.836C100.385 150.091 100.599 150.292 100.859 150.438C101.12 150.583 101.43 150.656 101.789 150.656C102.138 150.656 102.44 150.583 102.695 150.438C102.956 150.292 103.169 150.091 103.336 149.836C103.503 149.581 103.625 149.284 103.703 148.945C103.786 148.607 103.828 148.247 103.828 147.867V147.688C103.828 147.312 103.786 146.958 103.703 146.625C103.625 146.286 103.5 145.987 103.328 145.727C103.161 145.466 102.948 145.263 102.688 145.117C102.432 144.966 102.128 144.891 101.773 144.891C101.419 144.891 101.112 144.966 100.852 145.117C100.596 145.263 100.385 145.466 100.219 145.727C100.052 145.987 99.9297 146.286 99.8516 146.625C99.7734 146.958 99.7344 147.312 99.7344 147.688ZM112.055 150.305V146.273C112.055 145.971 112 145.711 111.891 145.492C111.781 145.273 111.615 145.104 111.391 144.984C111.172 144.865 110.896 144.805 110.562 144.805C110.255 144.805 109.99 144.857 109.766 144.961C109.542 145.065 109.367 145.206 109.242 145.383C109.117 145.56 109.055 145.76 109.055 145.984H107.18C107.18 145.651 107.26 145.328 107.422 145.016C107.583 144.703 107.818 144.424 108.125 144.18C108.432 143.935 108.799 143.742 109.227 143.602C109.654 143.461 110.133 143.391 110.664 143.391C111.299 143.391 111.862 143.497 112.352 143.711C112.846 143.924 113.234 144.247 113.516 144.68C113.802 145.107 113.945 145.643 113.945 146.289V150.047C113.945 150.432 113.971 150.779 114.023 151.086C114.081 151.388 114.161 151.651 114.266 151.875V152H112.336C112.247 151.797 112.177 151.539 112.125 151.227C112.078 150.909 112.055 150.602 112.055 150.305ZM112.328 146.859L112.344 148.023H110.992C110.643 148.023 110.336 148.057 110.07 148.125C109.805 148.188 109.583 148.281 109.406 148.406C109.229 148.531 109.096 148.682 109.008 148.859C108.919 149.036 108.875 149.237 108.875 149.461C108.875 149.685 108.927 149.891 109.031 150.078C109.135 150.26 109.286 150.404 109.484 150.508C109.688 150.612 109.932 150.664 110.219 150.664C110.604 150.664 110.94 150.586 111.227 150.43C111.518 150.268 111.747 150.073 111.914 149.844C112.081 149.609 112.169 149.388 112.18 149.18L112.789 150.016C112.727 150.229 112.62 150.458 112.469 150.703C112.318 150.948 112.12 151.182 111.875 151.406C111.635 151.625 111.346 151.805 111.008 151.945C110.674 152.086 110.289 152.156 109.852 152.156C109.299 152.156 108.807 152.047 108.375 151.828C107.943 151.604 107.604 151.305 107.359 150.93C107.115 150.549 106.992 150.12 106.992 149.641C106.992 149.193 107.076 148.797 107.242 148.453C107.414 148.104 107.664 147.812 107.992 147.578C108.326 147.344 108.732 147.167 109.211 147.047C109.69 146.922 110.237 146.859 110.852 146.859H112.328ZM121.07 150.25V140H122.961V152H121.25L121.07 150.25ZM115.57 147.867V147.703C115.57 147.062 115.646 146.479 115.797 145.953C115.948 145.422 116.167 144.966 116.453 144.586C116.74 144.201 117.089 143.906 117.5 143.703C117.911 143.495 118.375 143.391 118.891 143.391C119.401 143.391 119.849 143.49 120.234 143.688C120.62 143.885 120.948 144.169 121.219 144.539C121.49 144.904 121.706 145.341 121.867 145.852C122.029 146.357 122.143 146.919 122.211 147.539V148.062C122.143 148.667 122.029 149.219 121.867 149.719C121.706 150.219 121.49 150.651 121.219 151.016C120.948 151.38 120.617 151.661 120.227 151.859C119.841 152.057 119.391 152.156 118.875 152.156C118.365 152.156 117.904 152.049 117.492 151.836C117.086 151.622 116.74 151.323 116.453 150.938C116.167 150.552 115.948 150.099 115.797 149.578C115.646 149.052 115.57 148.482 115.57 147.867ZM117.453 147.703V147.867C117.453 148.253 117.487 148.612 117.555 148.945C117.628 149.279 117.74 149.573 117.891 149.828C118.042 150.078 118.237 150.276 118.477 150.422C118.721 150.562 119.013 150.633 119.352 150.633C119.779 150.633 120.13 150.539 120.406 150.352C120.682 150.164 120.898 149.911 121.055 149.594C121.216 149.271 121.326 148.911 121.383 148.516V147.102C121.352 146.794 121.286 146.508 121.188 146.242C121.094 145.977 120.966 145.745 120.805 145.547C120.643 145.344 120.443 145.188 120.203 145.078C119.969 144.964 119.69 144.906 119.367 144.906C119.023 144.906 118.732 144.979 118.492 145.125C118.253 145.271 118.055 145.471 117.898 145.727C117.747 145.982 117.635 146.279 117.562 146.617C117.49 146.956 117.453 147.318 117.453 147.703ZM129.672 149.711C129.672 149.523 129.625 149.354 129.531 149.203C129.438 149.047 129.258 148.906 128.992 148.781C128.732 148.656 128.346 148.542 127.836 148.438C127.388 148.339 126.977 148.221 126.602 148.086C126.232 147.945 125.914 147.776 125.648 147.578C125.383 147.38 125.177 147.146 125.031 146.875C124.885 146.604 124.812 146.292 124.812 145.938C124.812 145.594 124.888 145.268 125.039 144.961C125.19 144.654 125.406 144.383 125.688 144.148C125.969 143.914 126.31 143.729 126.711 143.594C127.117 143.458 127.57 143.391 128.07 143.391C128.779 143.391 129.385 143.51 129.891 143.75C130.401 143.984 130.792 144.305 131.062 144.711C131.333 145.112 131.469 145.565 131.469 146.07H129.586C129.586 145.846 129.529 145.638 129.414 145.445C129.305 145.247 129.138 145.089 128.914 144.969C128.69 144.844 128.409 144.781 128.07 144.781C127.747 144.781 127.479 144.833 127.266 144.938C127.057 145.036 126.901 145.167 126.797 145.328C126.698 145.49 126.648 145.667 126.648 145.859C126.648 146 126.674 146.128 126.727 146.242C126.784 146.352 126.878 146.453 127.008 146.547C127.138 146.635 127.315 146.719 127.539 146.797C127.768 146.875 128.055 146.951 128.398 147.023C129.044 147.159 129.599 147.333 130.062 147.547C130.531 147.755 130.891 148.026 131.141 148.359C131.391 148.688 131.516 149.104 131.516 149.609C131.516 149.984 131.435 150.328 131.273 150.641C131.117 150.948 130.888 151.216 130.586 151.445C130.284 151.669 129.922 151.844 129.5 151.969C129.083 152.094 128.615 152.156 128.094 152.156C127.328 152.156 126.68 152.021 126.148 151.75C125.617 151.474 125.214 151.122 124.938 150.695C124.667 150.263 124.531 149.815 124.531 149.352H126.352C126.372 149.701 126.469 149.979 126.641 150.188C126.818 150.391 127.036 150.539 127.297 150.633C127.562 150.721 127.836 150.766 128.117 150.766C128.456 150.766 128.74 150.721 128.969 150.633C129.198 150.539 129.372 150.414 129.492 150.258C129.612 150.096 129.672 149.914 129.672 149.711ZM134.953 140V141.102C134.953 141.43 134.893 141.771 134.773 142.125C134.659 142.474 134.497 142.81 134.289 143.133C134.081 143.451 133.841 143.727 133.57 143.961L132.625 143.367C132.839 143.044 133.01 142.703 133.141 142.344C133.276 141.979 133.344 141.57 133.344 141.117V140H134.953ZM77.0625 159.625V171H75.1016V159.625H77.0625ZM86.2188 167.297H88.1719C88.1094 168.042 87.901 168.706 87.5469 169.289C87.1927 169.867 86.6953 170.323 86.0547 170.656C85.4141 170.99 84.6354 171.156 83.7188 171.156C83.0156 171.156 82.3828 171.031 81.8203 170.781C81.2578 170.526 80.776 170.167 80.375 169.703C79.974 169.234 79.6667 168.669 79.4531 168.008C79.2448 167.346 79.1406 166.607 79.1406 165.789V164.844C79.1406 164.026 79.2474 163.286 79.4609 162.625C79.6797 161.964 79.9922 161.398 80.3984 160.93C80.8047 160.456 81.2917 160.094 81.8594 159.844C82.4323 159.594 83.0755 159.469 83.7891 159.469C84.6953 159.469 85.4609 159.635 86.0859 159.969C86.7109 160.302 87.1953 160.763 87.5391 161.352C87.888 161.94 88.1016 162.615 88.1797 163.375H86.2266C86.1745 162.885 86.0599 162.466 85.8828 162.117C85.7109 161.768 85.4557 161.503 85.1172 161.32C84.7786 161.133 84.3359 161.039 83.7891 161.039C83.3411 161.039 82.9505 161.122 82.6172 161.289C82.2839 161.456 82.0052 161.701 81.7812 162.023C81.5573 162.346 81.388 162.745 81.2734 163.219C81.1641 163.688 81.1094 164.224 81.1094 164.828V165.789C81.1094 166.362 81.1589 166.883 81.2578 167.352C81.362 167.815 81.5182 168.214 81.7266 168.547C81.9401 168.88 82.2109 169.138 82.5391 169.32C82.8672 169.503 83.2604 169.594 83.7188 169.594C84.276 169.594 84.7266 169.505 85.0703 169.328C85.4193 169.151 85.6823 168.893 85.8594 168.555C86.0417 168.211 86.1615 167.792 86.2188 167.297ZM99.0234 165V165.625C99.0234 166.484 98.9115 167.255 98.6875 167.938C98.4635 168.62 98.1432 169.201 97.7266 169.68C97.3151 170.159 96.8203 170.526 96.2422 170.781C95.6641 171.031 95.0234 171.156 94.3203 171.156C93.6224 171.156 92.9844 171.031 92.4062 170.781C91.8333 170.526 91.3359 170.159 90.9141 169.68C90.4922 169.201 90.1641 168.62 89.9297 167.938C89.7005 167.255 89.5859 166.484 89.5859 165.625V165C89.5859 164.141 89.7005 163.372 89.9297 162.695C90.1589 162.013 90.4818 161.432 90.8984 160.953C91.3203 160.469 91.8177 160.102 92.3906 159.852C92.9688 159.596 93.6068 159.469 94.3047 159.469C95.0078 159.469 95.6484 159.596 96.2266 159.852C96.8047 160.102 97.3021 160.469 97.7188 160.953C98.1354 161.432 98.4557 162.013 98.6797 162.695C98.9089 163.372 99.0234 164.141 99.0234 165ZM97.0625 165.625V164.984C97.0625 164.349 97 163.789 96.875 163.305C96.7552 162.815 96.5755 162.406 96.3359 162.078C96.1016 161.745 95.8125 161.495 95.4688 161.328C95.125 161.156 94.737 161.07 94.3047 161.07C93.8724 161.07 93.487 161.156 93.1484 161.328C92.8099 161.495 92.5208 161.745 92.2812 162.078C92.0469 162.406 91.8672 162.815 91.7422 163.305C91.6172 163.789 91.5547 164.349 91.5547 164.984V165.625C91.5547 166.26 91.6172 166.823 91.7422 167.312C91.8672 167.802 92.0495 168.216 92.2891 168.555C92.5339 168.888 92.8255 169.141 93.1641 169.312C93.5026 169.479 93.888 169.562 94.3203 169.562C94.7578 169.562 95.1458 169.479 95.4844 169.312C95.8229 169.141 96.1094 168.888 96.3438 168.555C96.5781 168.216 96.7552 167.802 96.875 167.312C97 166.823 97.0625 166.26 97.0625 165.625ZM110.008 159.625V171H108.047L102.945 162.852V171H100.984V159.625H102.945L108.062 167.789V159.625H110.008ZM101.201 198.973V202.787H83.6582V198.973H101.201ZM94.4863 191.801V210.434H90.3906V191.801H94.4863ZM78.2812 247.297H80.2344C80.1719 248.042 79.9635 248.706 79.6094 249.289C79.2552 249.867 78.7578 250.323 78.1172 250.656C77.4766 250.99 76.6979 251.156 75.7812 251.156C75.0781 251.156 74.4453 251.031 73.8828 250.781C73.3203 250.526 72.8385 250.167 72.4375 249.703C72.0365 249.234 71.7292 248.669 71.5156 248.008C71.3073 247.346 71.2031 246.607 71.2031 245.789V244.844C71.2031 244.026 71.3099 243.286 71.5234 242.625C71.7422 241.964 72.0547 241.398 72.4609 240.93C72.8672 240.456 73.3542 240.094 73.9219 239.844C74.4948 239.594 75.138 239.469 75.8516 239.469C76.7578 239.469 77.5234 239.635 78.1484 239.969C78.7734 240.302 79.2578 240.763 79.6016 241.352C79.9505 241.94 80.1641 242.615 80.2422 243.375H78.2891C78.237 242.885 78.1224 242.466 77.9453 242.117C77.7734 241.768 77.5182 241.503 77.1797 241.32C76.8411 241.133 76.3984 241.039 75.8516 241.039C75.4036 241.039 75.013 241.122 74.6797 241.289C74.3464 241.456 74.0677 241.701 73.8438 242.023C73.6198 242.346 73.4505 242.745 73.3359 243.219C73.2266 243.688 73.1719 244.224 73.1719 244.828V245.789C73.1719 246.362 73.2214 246.883 73.3203 247.352C73.4245 247.815 73.5807 248.214 73.7891 248.547C74.0026 248.88 74.2734 249.138 74.6016 249.32C74.9297 249.503 75.3229 249.594 75.7812 249.594C76.3385 249.594 76.7891 249.505 77.1328 249.328C77.4818 249.151 77.7448 248.893 77.9219 248.555C78.1042 248.211 78.224 247.792 78.2812 247.297ZM89.1406 249.445V251H83.4297V249.445H89.1406ZM83.9766 239.625V251H82.0156V239.625H83.9766ZM92.75 239.625V251H90.7891V239.625H92.75ZM101.906 247.297H103.859C103.797 248.042 103.589 248.706 103.234 249.289C102.88 249.867 102.383 250.323 101.742 250.656C101.102 250.99 100.323 251.156 99.4062 251.156C98.7031 251.156 98.0703 251.031 97.5078 250.781C96.9453 250.526 96.4635 250.167 96.0625 249.703C95.6615 249.234 95.3542 248.669 95.1406 248.008C94.9323 247.346 94.8281 246.607 94.8281 245.789V244.844C94.8281 244.026 94.9349 243.286 95.1484 242.625C95.3672 241.964 95.6797 241.398 96.0859 240.93C96.4922 240.456 96.9792 240.094 97.5469 239.844C98.1198 239.594 98.763 239.469 99.4766 239.469C100.383 239.469 101.148 239.635 101.773 239.969C102.398 240.302 102.883 240.763 103.227 241.352C103.576 241.94 103.789 242.615 103.867 243.375H101.914C101.862 242.885 101.747 242.466 101.57 242.117C101.398 241.768 101.143 241.503 100.805 241.32C100.466 241.133 100.023 241.039 99.4766 241.039C99.0286 241.039 98.638 241.122 98.3047 241.289C97.9714 241.456 97.6927 241.701 97.4688 242.023C97.2448 242.346 97.0755 242.745 96.9609 243.219C96.8516 243.688 96.7969 244.224 96.7969 244.828V245.789C96.7969 246.362 96.8464 246.883 96.9453 247.352C97.0495 247.815 97.2057 248.214 97.4141 248.547C97.6276 248.88 97.8984 249.138 98.2266 249.32C98.5547 249.503 98.9479 249.594 99.4062 249.594C99.9635 249.594 100.414 249.505 100.758 249.328C101.107 249.151 101.37 248.893 101.547 248.555C101.729 248.211 101.849 247.792 101.906 247.297ZM107.602 239.625V251H105.641V239.625H107.602ZM114.438 239.625L109.828 245.102L107.203 247.883L106.859 245.938L108.734 243.625L112.047 239.625H114.438ZM112.328 251L108.586 245.609L109.938 244.273L114.656 251H112.328ZM25.6909 259.189L25.8052 258.427C25.8517 258.118 25.9385 257.824 26.0654 257.545C26.1966 257.266 26.3574 257.005 26.5479 256.764C26.7425 256.523 26.9604 256.307 27.2017 256.117L27.8555 256.599C27.6396 256.87 27.4513 257.153 27.2905 257.45C27.134 257.742 27.0239 258.059 26.9604 258.402L26.8208 259.189H25.6909ZM29.4805 256.758H30.585L32.2163 264.28L36.4502 256.758H37.6689L32.4194 266H31.5117L29.4805 256.758ZM29.0806 256.758H30.1025L29.29 262.433L28.668 266H27.4746L29.0806 256.758ZM36.9834 256.758H38.0117L36.4058 266H35.2188L35.8535 262.331L36.9834 256.758ZM42.4614 264.826L43.0327 261.277C43.0623 261.015 43.0369 260.784 42.9565 260.585C42.8804 260.387 42.7513 260.232 42.5693 260.122C42.3916 260.012 42.1673 259.953 41.8965 259.944C41.6595 259.94 41.4268 259.978 41.1982 260.059C40.974 260.139 40.7793 260.26 40.6143 260.42C40.4492 260.581 40.3413 260.784 40.2905 261.03L39.1479 261.036C39.1776 260.693 39.2855 260.395 39.4717 260.141C39.6579 259.883 39.8906 259.669 40.1699 259.5C40.4492 259.326 40.7497 259.2 41.0713 259.119C41.3929 259.035 41.7061 258.994 42.0107 258.999C42.472 259.007 42.8719 259.106 43.2104 259.297C43.5532 259.483 43.8114 259.745 43.9849 260.084C44.1584 260.423 44.2218 260.829 44.1753 261.303L43.6484 264.502C43.6104 264.735 43.5871 264.97 43.5786 265.207C43.5744 265.439 43.6019 265.668 43.6611 265.892L43.6484 266L42.4868 266.006C42.4403 265.812 42.417 265.615 42.417 265.416C42.4212 265.217 42.436 265.02 42.4614 264.826ZM43.166 261.836L43.0327 262.661L41.9473 262.655C41.7188 262.655 41.4775 262.672 41.2236 262.706C40.9697 262.739 40.7285 262.803 40.5 262.896C40.2715 262.989 40.0789 263.125 39.9224 263.302C39.7658 263.476 39.6706 263.702 39.6367 263.981C39.6113 264.21 39.6388 264.409 39.7192 264.578C39.8039 264.743 39.9308 264.872 40.1001 264.965C40.2694 265.058 40.4661 265.107 40.6904 265.111C40.9824 265.116 41.2702 265.058 41.5537 264.94C41.8372 264.821 42.0848 264.652 42.2964 264.432C42.508 264.212 42.654 263.958 42.7344 263.67L43.1533 264.235C43.0729 264.515 42.9417 264.773 42.7598 265.01C42.5778 265.243 42.362 265.444 42.1123 265.613C41.8669 265.782 41.6024 265.913 41.3188 266.006C41.0353 266.099 40.7518 266.144 40.4683 266.14C40.0832 266.131 39.734 266.044 39.4209 265.879C39.112 265.714 38.8665 265.484 38.6846 265.188C38.5068 264.887 38.4307 264.538 38.4561 264.14C38.4814 263.704 38.5957 263.338 38.7988 263.042C39.002 262.746 39.2622 262.509 39.5796 262.331C39.9012 262.153 40.2524 262.026 40.6333 261.95C41.0142 261.87 41.3908 261.83 41.7632 261.83L43.166 261.836ZM47.3428 264.883L50.0469 259.132H51.2593L47.7871 266H46.981L47.3428 264.883ZM46.708 259.132L47.6855 265.029L47.6538 266H46.9175L45.5718 259.132H46.708ZM54.0015 266.127C53.5317 266.118 53.1234 266.025 52.7764 265.848C52.4336 265.666 52.1522 265.422 51.9321 265.118C51.7163 264.809 51.5618 264.458 51.4688 264.064C51.3757 263.67 51.3481 263.258 51.3862 262.826L51.4116 262.553C51.4539 262.113 51.5618 261.681 51.7354 261.258C51.9089 260.831 52.1395 260.446 52.4272 260.103C52.7192 259.76 53.062 259.489 53.4556 259.291C53.8534 259.087 54.2935 258.992 54.7759 259.005C55.2541 259.013 55.6519 259.115 55.9692 259.31C56.2866 259.504 56.5342 259.762 56.7119 260.084C56.8939 260.401 57.0124 260.759 57.0674 261.157C57.1224 261.55 57.1266 261.954 57.0801 262.369L57.0103 262.896H52.0273L52.1797 261.938L55.9819 261.944L56.001 261.842C56.0433 261.538 56.0264 261.243 55.9502 260.96C55.874 260.676 55.7344 260.444 55.5312 260.262C55.3324 260.076 55.0636 259.978 54.7251 259.97C54.3739 259.957 54.0692 260.029 53.811 260.186C53.5529 260.338 53.3371 260.545 53.1636 260.808C52.9901 261.066 52.8525 261.349 52.751 261.658C52.6536 261.963 52.5859 262.261 52.5479 262.553L52.5225 262.82C52.4971 263.091 52.5055 263.364 52.5479 263.639C52.5902 263.914 52.6706 264.166 52.7891 264.394C52.9118 264.618 53.0811 264.802 53.2969 264.946C53.5127 265.086 53.7793 265.16 54.0967 265.168C54.4818 265.177 54.8267 265.094 55.1313 264.921C55.4403 264.743 55.7217 264.519 55.9756 264.248L56.6294 264.807C56.4305 265.099 56.1935 265.344 55.9185 265.543C55.6434 265.742 55.3429 265.89 55.0171 265.987C54.6912 266.085 54.3527 266.131 54.0015 266.127ZM59.9302 260.262L58.9336 266H57.7847L58.978 259.132H60.0952L59.9302 260.262ZM62.1582 259.075L62.0503 260.179C61.9614 260.162 61.8704 260.147 61.7773 260.135C61.6885 260.122 61.5996 260.116 61.5107 260.116C61.2357 260.111 60.9881 260.154 60.7681 260.243C60.5522 260.327 60.3597 260.448 60.1904 260.604C60.0254 260.761 59.8836 260.945 59.7651 261.157C59.6509 261.368 59.5599 261.597 59.4922 261.842L59.1304 262.033C59.1769 261.69 59.2531 261.339 59.3589 260.979C59.4689 260.619 59.6191 260.287 59.8096 259.982C60.0042 259.678 60.2476 259.432 60.5396 259.246C60.8358 259.06 61.1912 258.973 61.606 258.986C61.6991 258.986 61.79 258.994 61.8789 259.011C61.972 259.028 62.0651 259.049 62.1582 259.075ZM64.5005 259.132L63.3071 266H62.1582L63.3516 259.132H64.5005ZM63.5801 257.329C63.5801 257.13 63.6414 256.965 63.7642 256.834C63.8911 256.699 64.054 256.629 64.2529 256.625C64.4518 256.62 64.6147 256.682 64.7417 256.809C64.8729 256.936 64.9364 257.096 64.9321 257.291C64.9321 257.486 64.8665 257.649 64.7354 257.78C64.6084 257.907 64.4476 257.972 64.2529 257.977C64.0583 257.981 63.8975 257.924 63.7705 257.805C63.6436 257.682 63.5801 257.524 63.5801 257.329ZM67.998 265.168C68.2773 265.173 68.5376 265.12 68.7788 265.01C69.02 264.9 69.2253 264.743 69.3945 264.54C69.5638 264.337 69.6844 264.102 69.7563 263.835L70.8481 263.829C70.7804 264.29 70.6006 264.694 70.3086 265.042C70.0208 265.389 69.6675 265.659 69.2485 265.854C68.8338 266.044 68.4001 266.135 67.9473 266.127C67.4648 266.118 67.0544 266.019 66.7158 265.829C66.3815 265.634 66.1128 265.376 65.9097 265.054C65.7065 264.733 65.5669 264.371 65.4907 263.969C65.4146 263.562 65.3976 263.146 65.4399 262.718L65.4653 262.445C65.5161 261.984 65.6283 261.546 65.8018 261.131C65.9753 260.712 66.2059 260.342 66.4937 260.021C66.7856 259.695 67.1305 259.441 67.5283 259.259C67.9261 259.077 68.3726 258.992 68.8677 259.005C69.3501 259.013 69.769 259.128 70.1245 259.348C70.48 259.563 70.755 259.858 70.9497 260.23C71.1444 260.602 71.2417 261.026 71.2417 261.5L70.1626 261.493C70.1584 261.222 70.1055 260.973 70.0039 260.744C69.9023 260.516 69.7521 260.332 69.5532 260.192C69.3543 260.052 69.1089 259.976 68.8169 259.963C68.4657 259.955 68.1589 260.021 67.8965 260.16C67.6383 260.3 67.4183 260.492 67.2363 260.738C67.0586 260.979 66.9168 261.248 66.811 261.544C66.7095 261.84 66.6396 262.141 66.6016 262.445L66.5698 262.712C66.5444 262.983 66.5402 263.26 66.5571 263.543C66.5783 263.827 66.6375 264.091 66.7349 264.337C66.8322 264.578 66.9824 264.775 67.1855 264.927C67.3887 265.08 67.6595 265.16 67.998 265.168ZM74.5869 256.25L72.8921 266H71.7368L73.4316 256.25H74.5869ZM78.2051 259.132L74.8027 262.28L72.7524 264.127L72.8921 262.769L74.2632 261.373L76.707 259.132H78.2051ZM75.9644 266L74.1108 262.661L74.8408 261.677L77.2212 266H75.9644ZM83.4927 263.62C83.5308 263.34 83.5033 263.108 83.4102 262.921C83.3171 262.731 83.1816 262.572 83.0039 262.445C82.8262 262.314 82.6273 262.206 82.4072 262.122C82.1872 262.033 81.9671 261.95 81.7471 261.874C81.4297 261.764 81.1165 261.635 80.8076 261.487C80.5029 261.339 80.2279 261.161 79.9824 260.954C79.737 260.742 79.5444 260.492 79.4048 260.205C79.2694 259.917 79.2165 259.58 79.2461 259.195C79.2799 258.768 79.4006 258.393 79.6079 258.072C79.8153 257.746 80.0798 257.475 80.4014 257.259C80.723 257.043 81.0763 256.883 81.4614 256.777C81.8465 256.671 82.2358 256.622 82.6294 256.631C83.1753 256.644 83.6641 256.766 84.0957 256.999C84.5273 257.228 84.8638 257.549 85.105 257.964C85.3462 258.379 85.452 258.867 85.4224 259.43L84.229 259.424C84.2586 259.056 84.2121 258.74 84.0894 258.478C83.9666 258.211 83.7762 258.006 83.5181 257.862C83.2642 257.718 82.951 257.642 82.5786 257.634C82.2401 257.625 81.9163 257.676 81.6074 257.786C81.3027 257.896 81.0446 258.068 80.833 258.3C80.6214 258.529 80.4924 258.823 80.4458 259.183C80.4119 259.432 80.4458 259.646 80.5474 259.824C80.6489 260.001 80.7886 260.152 80.9663 260.274C81.1483 260.397 81.3451 260.501 81.5566 260.585C81.7725 260.67 81.9777 260.744 82.1724 260.808C82.5109 260.922 82.8368 261.057 83.1499 261.214C83.4673 261.366 83.7466 261.552 83.9878 261.772C84.2332 261.988 84.4194 262.246 84.5464 262.547C84.6776 262.847 84.7262 263.201 84.6924 263.607C84.6543 264.047 84.5295 264.428 84.3179 264.75C84.1063 265.071 83.8354 265.336 83.5054 265.543C83.1753 265.746 82.8135 265.896 82.4199 265.994C82.0264 266.091 81.6307 266.135 81.2329 266.127C80.8182 266.123 80.4246 266.057 80.0522 265.93C79.6841 265.799 79.3582 265.613 79.0747 265.372C78.7912 265.13 78.5732 264.838 78.4209 264.496C78.2686 264.149 78.203 263.755 78.2241 263.315L79.4111 263.321C79.39 263.618 79.4217 263.878 79.5063 264.102C79.591 264.326 79.7179 264.515 79.8872 264.667C80.0607 264.815 80.266 264.929 80.5029 265.01C80.7399 265.086 81.0002 265.126 81.2837 265.13C81.618 265.139 81.9438 265.092 82.2612 264.991C82.5828 264.889 82.8558 264.726 83.0801 264.502C83.3044 264.278 83.4419 263.984 83.4927 263.62ZM89.7769 264.826L90.3481 261.277C90.3778 261.015 90.3524 260.784 90.272 260.585C90.1958 260.387 90.0667 260.232 89.8848 260.122C89.707 260.012 89.4827 259.953 89.2119 259.944C88.9749 259.94 88.7422 259.978 88.5137 260.059C88.2894 260.139 88.0947 260.26 87.9297 260.42C87.7646 260.581 87.6567 260.784 87.606 261.03L86.4634 261.036C86.493 260.693 86.6009 260.395 86.7871 260.141C86.9733 259.883 87.2061 259.669 87.4854 259.5C87.7646 259.326 88.0651 259.2 88.3867 259.119C88.7083 259.035 89.0215 258.994 89.3262 258.999C89.7874 259.007 90.1873 259.106 90.5259 259.297C90.8687 259.483 91.1268 259.745 91.3003 260.084C91.4738 260.423 91.5373 260.829 91.4907 261.303L90.9639 264.502C90.9258 264.735 90.9025 264.97 90.894 265.207C90.8898 265.439 90.9173 265.668 90.9766 265.892L90.9639 266L89.8022 266.006C89.7557 265.812 89.7324 265.615 89.7324 265.416C89.7367 265.217 89.7515 265.02 89.7769 264.826ZM90.4814 261.836L90.3481 262.661L89.2627 262.655C89.0342 262.655 88.793 262.672 88.5391 262.706C88.2852 262.739 88.0439 262.803 87.8154 262.896C87.5869 262.989 87.3944 263.125 87.2378 263.302C87.0812 263.476 86.986 263.702 86.9521 263.981C86.9268 264.21 86.9543 264.409 87.0347 264.578C87.1193 264.743 87.2463 264.872 87.4155 264.965C87.5848 265.058 87.7816 265.107 88.0059 265.111C88.2979 265.116 88.5856 265.058 88.8691 264.94C89.1527 264.821 89.4002 264.652 89.6118 264.432C89.8234 264.212 89.9694 263.958 90.0498 263.67L90.4688 264.235C90.3883 264.515 90.2572 264.773 90.0752 265.01C89.8932 265.243 89.6774 265.444 89.4277 265.613C89.1823 265.782 88.9178 265.913 88.6343 266.006C88.3507 266.099 88.0672 266.144 87.7837 266.14C87.3986 266.131 87.0495 266.044 86.7363 265.879C86.4274 265.714 86.182 265.484 86 265.188C85.8223 264.887 85.7461 264.538 85.7715 264.14C85.7969 263.704 85.9111 263.338 86.1143 263.042C86.3174 262.746 86.5776 262.509 86.895 262.331C87.2166 262.153 87.5679 262.026 87.9487 261.95C88.3296 261.87 88.7062 261.83 89.0786 261.83L90.4814 261.836ZM94.2012 266H93.0522L94.3472 258.415C94.4064 257.953 94.5418 257.549 94.7534 257.202C94.965 256.851 95.2464 256.578 95.5977 256.383C95.9489 256.189 96.3657 256.093 96.8481 256.098C96.9878 256.102 97.1274 256.115 97.2671 256.136C97.4067 256.153 97.5443 256.176 97.6797 256.206L97.54 257.17C97.4427 257.149 97.3411 257.132 97.2354 257.12C97.1338 257.107 97.0322 257.098 96.9307 257.094C96.6598 257.094 96.425 257.151 96.2261 257.266C96.0272 257.376 95.8664 257.53 95.7437 257.729C95.6252 257.924 95.5448 258.15 95.5024 258.408L94.2012 266ZM96.8101 259.132L96.6514 260.033H93.0332L93.1982 259.132H96.8101ZM99.6411 266.127C99.1714 266.118 98.763 266.025 98.416 265.848C98.0732 265.666 97.7918 265.422 97.5718 265.118C97.356 264.809 97.2015 264.458 97.1084 264.064C97.0153 263.67 96.9878 263.258 97.0259 262.826L97.0513 262.553C97.0936 262.113 97.2015 261.681 97.375 261.258C97.5485 260.831 97.7791 260.446 98.0669 260.103C98.3589 259.76 98.7017 259.489 99.0952 259.291C99.493 259.087 99.9331 258.992 100.416 259.005C100.894 259.013 101.292 259.115 101.609 259.31C101.926 259.504 102.174 259.762 102.352 260.084C102.534 260.401 102.652 260.759 102.707 261.157C102.762 261.55 102.766 261.954 102.72 262.369L102.65 262.896H97.667L97.8193 261.938L101.622 261.944L101.641 261.842C101.683 261.538 101.666 261.243 101.59 260.96C101.514 260.676 101.374 260.444 101.171 260.262C100.972 260.076 100.703 259.978 100.365 259.97C100.014 259.957 99.7088 260.029 99.4507 260.186C99.1925 260.338 98.9767 260.545 98.8032 260.808C98.6297 261.066 98.4922 261.349 98.3906 261.658C98.2933 261.963 98.2256 262.261 98.1875 262.553L98.1621 262.82C98.1367 263.091 98.1452 263.364 98.1875 263.639C98.2298 263.914 98.3102 264.166 98.4287 264.394C98.5514 264.618 98.7207 264.802 98.9365 264.946C99.1523 265.086 99.4189 265.16 99.7363 265.168C100.121 265.177 100.466 265.094 100.771 264.921C101.08 264.743 101.361 264.519 101.615 264.248L102.269 264.807C102.07 265.099 101.833 265.344 101.558 265.543C101.283 265.742 100.983 265.89 100.657 265.987C100.331 266.085 99.9924 266.131 99.6411 266.127ZM108.782 263.62C108.82 263.34 108.792 263.108 108.699 262.921C108.606 262.731 108.471 262.572 108.293 262.445C108.115 262.314 107.916 262.206 107.696 262.122C107.476 262.033 107.256 261.95 107.036 261.874C106.719 261.764 106.406 261.635 106.097 261.487C105.792 261.339 105.517 261.161 105.271 260.954C105.026 260.742 104.833 260.492 104.694 260.205C104.558 259.917 104.506 259.58 104.535 259.195C104.569 258.768 104.69 258.393 104.897 258.072C105.104 257.746 105.369 257.475 105.69 257.259C106.012 257.043 106.365 256.883 106.75 256.777C107.136 256.671 107.525 256.622 107.918 256.631C108.464 256.644 108.953 256.766 109.385 256.999C109.816 257.228 110.153 257.549 110.394 257.964C110.635 258.379 110.741 258.867 110.711 259.43L109.518 259.424C109.548 259.056 109.501 258.74 109.378 258.478C109.256 258.211 109.065 258.006 108.807 257.862C108.553 257.718 108.24 257.642 107.868 257.634C107.529 257.625 107.205 257.676 106.896 257.786C106.592 257.896 106.334 258.068 106.122 258.3C105.91 258.529 105.781 258.823 105.735 259.183C105.701 259.432 105.735 259.646 105.836 259.824C105.938 260.001 106.078 260.152 106.255 260.274C106.437 260.397 106.634 260.501 106.846 260.585C107.062 260.67 107.267 260.744 107.461 260.808C107.8 260.922 108.126 261.057 108.439 261.214C108.756 261.366 109.036 261.552 109.277 261.772C109.522 261.988 109.708 262.246 109.835 262.547C109.967 262.847 110.015 263.201 109.981 263.607C109.943 264.047 109.819 264.428 109.607 264.75C109.395 265.071 109.125 265.336 108.794 265.543C108.464 265.746 108.103 265.896 107.709 265.994C107.315 266.091 106.92 266.135 106.522 266.127C106.107 266.123 105.714 266.057 105.341 265.93C104.973 265.799 104.647 265.613 104.364 265.372C104.08 265.13 103.862 264.838 103.71 264.496C103.558 264.149 103.492 263.755 103.513 263.315L104.7 263.321C104.679 263.618 104.711 263.878 104.795 264.102C104.88 264.326 105.007 264.515 105.176 264.667C105.35 264.815 105.555 264.929 105.792 265.01C106.029 265.086 106.289 265.126 106.573 265.13C106.907 265.139 107.233 265.092 107.55 264.991C107.872 264.889 108.145 264.726 108.369 264.502C108.593 264.278 108.731 263.984 108.782 263.62ZM113.822 266.127C113.352 266.118 112.944 266.025 112.597 265.848C112.254 265.666 111.972 265.422 111.752 265.118C111.537 264.809 111.382 264.458 111.289 264.064C111.196 263.67 111.168 263.258 111.207 262.826L111.232 262.553C111.274 262.113 111.382 261.681 111.556 261.258C111.729 260.831 111.96 260.446 112.248 260.103C112.54 259.76 112.882 259.489 113.276 259.291C113.674 259.087 114.114 258.992 114.596 259.005C115.074 259.013 115.472 259.115 115.79 259.31C116.107 259.504 116.354 259.762 116.532 260.084C116.714 260.401 116.833 260.759 116.888 261.157C116.943 261.55 116.947 261.954 116.9 262.369L116.831 262.896H111.848L112 261.938L115.802 261.944L115.821 261.842C115.864 261.538 115.847 261.243 115.771 260.96C115.694 260.676 115.555 260.444 115.352 260.262C115.153 260.076 114.884 259.978 114.545 259.97C114.194 259.957 113.889 260.029 113.631 260.186C113.373 260.338 113.157 260.545 112.984 260.808C112.81 261.066 112.673 261.349 112.571 261.658C112.474 261.963 112.406 262.261 112.368 262.553L112.343 262.82C112.317 263.091 112.326 263.364 112.368 263.639C112.41 263.914 112.491 264.166 112.609 264.394C112.732 264.618 112.901 264.802 113.117 264.946C113.333 265.086 113.6 265.16 113.917 265.168C114.302 265.177 114.647 265.094 114.952 264.921C115.261 264.743 115.542 264.519 115.796 264.248L116.45 264.807C116.251 265.099 116.014 265.344 115.739 265.543C115.464 265.742 115.163 265.89 114.837 265.987C114.512 266.085 114.173 266.131 113.822 266.127ZM121.598 259.132L121.439 260.033H117.827L117.986 259.132H121.598ZM119.497 257.462H120.639L119.478 264.312C119.465 264.46 119.469 264.593 119.49 264.711C119.511 264.83 119.562 264.925 119.643 264.997C119.723 265.065 119.846 265.101 120.011 265.105C120.104 265.105 120.195 265.099 120.284 265.086C120.377 265.069 120.47 265.054 120.563 265.042L120.48 266.006C120.345 266.044 120.205 266.072 120.062 266.089C119.922 266.11 119.782 266.118 119.643 266.114C119.291 266.11 119.016 266.021 118.817 265.848C118.618 265.674 118.483 265.45 118.411 265.175C118.339 264.9 118.318 264.606 118.348 264.292L119.497 257.462ZM126.098 264.35L127 259.132H128.155L126.961 266H125.863L126.098 264.35ZM126.53 262.966L127 262.947C126.944 263.378 126.847 263.789 126.708 264.178C126.568 264.563 126.377 264.906 126.136 265.207C125.899 265.503 125.603 265.736 125.248 265.905C124.896 266.07 124.479 266.146 123.997 266.133C123.62 266.121 123.305 266.044 123.051 265.905C122.802 265.765 122.605 265.577 122.461 265.34C122.317 265.103 122.222 264.832 122.175 264.527C122.129 264.223 122.122 263.901 122.156 263.562L122.899 259.132H124.048L123.305 263.582C123.288 263.768 123.286 263.952 123.299 264.134C123.312 264.312 123.35 264.474 123.413 264.623C123.477 264.771 123.574 264.891 123.705 264.984C123.84 265.073 124.018 265.122 124.238 265.13C124.695 265.147 125.083 265.063 125.4 264.876C125.717 264.686 125.969 264.424 126.155 264.089C126.341 263.755 126.466 263.381 126.53 262.966ZM130.789 260.522L129.38 268.641H128.225L129.875 259.132H130.929L130.789 260.522ZM134.921 262.471L134.909 262.604C134.854 263.019 134.752 263.438 134.604 263.861C134.46 264.28 134.263 264.663 134.014 265.01C133.764 265.357 133.457 265.634 133.093 265.841C132.734 266.049 132.31 266.146 131.824 266.133C131.396 266.125 131.03 266.032 130.726 265.854C130.421 265.672 130.175 265.433 129.989 265.137C129.803 264.836 129.67 264.502 129.589 264.134C129.513 263.761 129.488 263.381 129.513 262.991L129.602 262.287C129.674 261.872 129.795 261.468 129.964 261.074C130.137 260.676 130.357 260.319 130.624 260.001C130.891 259.684 131.206 259.437 131.57 259.259C131.938 259.077 132.355 258.992 132.82 259.005C133.29 259.018 133.671 259.132 133.963 259.348C134.259 259.559 134.483 259.836 134.636 260.179C134.792 260.518 134.89 260.888 134.928 261.29C134.966 261.688 134.964 262.081 134.921 262.471ZM133.753 262.598L133.772 262.458C133.802 262.204 133.808 261.935 133.792 261.652C133.779 261.368 133.726 261.104 133.633 260.858C133.544 260.609 133.402 260.403 133.208 260.243C133.017 260.082 132.757 259.997 132.427 259.989C132.164 259.98 131.915 260.025 131.678 260.122C131.445 260.215 131.233 260.348 131.043 260.522C130.853 260.691 130.69 260.888 130.554 261.112C130.419 261.332 130.319 261.565 130.256 261.811L129.983 263.467C129.979 263.768 130.044 264.047 130.18 264.305C130.315 264.559 130.499 264.764 130.732 264.921C130.969 265.077 131.238 265.16 131.538 265.168C131.889 265.177 132.194 265.107 132.452 264.959C132.715 264.807 132.935 264.604 133.112 264.35C133.29 264.091 133.432 263.81 133.538 263.505C133.643 263.196 133.715 262.894 133.753 262.598ZM135.905 265.397C135.905 265.19 135.971 265.016 136.102 264.876C136.237 264.737 136.409 264.665 136.616 264.661C136.824 264.656 136.993 264.72 137.124 264.851C137.259 264.982 137.325 265.152 137.321 265.359C137.321 265.566 137.253 265.738 137.118 265.873C136.986 266.008 136.817 266.078 136.61 266.083C136.407 266.087 136.237 266.025 136.102 265.898C135.967 265.771 135.901 265.604 135.905 265.397ZM142.005 266.127C141.536 266.118 141.127 266.025 140.78 265.848C140.438 265.666 140.156 265.422 139.936 265.118C139.72 264.809 139.566 264.458 139.473 264.064C139.38 263.67 139.352 263.258 139.39 262.826L139.416 262.553C139.458 262.113 139.566 261.681 139.739 261.258C139.913 260.831 140.143 260.446 140.431 260.103C140.723 259.76 141.066 259.489 141.459 259.291C141.857 259.087 142.297 258.992 142.78 259.005C143.258 259.013 143.656 259.115 143.973 259.31C144.291 259.504 144.538 259.762 144.716 260.084C144.898 260.401 145.016 260.759 145.071 261.157C145.126 261.55 145.131 261.954 145.084 262.369L145.014 262.896H140.031L140.184 261.938L143.986 261.944L144.005 261.842C144.047 261.538 144.03 261.243 143.954 260.96C143.878 260.676 143.738 260.444 143.535 260.262C143.336 260.076 143.068 259.978 142.729 259.97C142.378 259.957 142.073 260.029 141.815 260.186C141.557 260.338 141.341 260.545 141.167 260.808C140.994 261.066 140.856 261.349 140.755 261.658C140.658 261.963 140.59 262.261 140.552 262.553L140.526 262.82C140.501 263.091 140.509 263.364 140.552 263.639C140.594 263.914 140.674 264.166 140.793 264.394C140.916 264.618 141.085 264.802 141.301 264.946C141.517 265.086 141.783 265.16 142.101 265.168C142.486 265.177 142.831 265.094 143.135 264.921C143.444 264.743 143.726 264.519 143.979 264.248L144.633 264.807C144.434 265.099 144.197 265.344 143.922 265.543C143.647 265.742 143.347 265.89 143.021 265.987C142.695 266.085 142.357 266.131 142.005 266.127ZM147.674 259.132L148.734 261.626L150.6 259.132H152.016L149.261 262.579L150.937 266H149.686L148.55 263.429L146.614 266H145.211L148.042 262.464L146.423 259.132H147.674ZM154.828 266.127C154.358 266.118 153.95 266.025 153.603 265.848C153.26 265.666 152.978 265.422 152.758 265.118C152.542 264.809 152.388 264.458 152.295 264.064C152.202 263.67 152.174 263.258 152.212 262.826L152.238 262.553C152.28 262.113 152.388 261.681 152.562 261.258C152.735 260.831 152.966 260.446 153.253 260.103C153.545 259.76 153.888 259.489 154.282 259.291C154.68 259.087 155.12 258.992 155.602 259.005C156.08 259.013 156.478 259.115 156.795 259.31C157.113 259.504 157.36 259.762 157.538 260.084C157.72 260.401 157.839 260.759 157.894 261.157C157.949 261.55 157.953 261.954 157.906 262.369L157.836 262.896H152.854L153.006 261.938L156.808 261.944L156.827 261.842C156.869 261.538 156.853 261.243 156.776 260.96C156.7 260.676 156.561 260.444 156.357 260.262C156.159 260.076 155.89 259.978 155.551 259.97C155.2 259.957 154.895 260.029 154.637 260.186C154.379 260.338 154.163 260.545 153.99 260.808C153.816 261.066 153.679 261.349 153.577 261.658C153.48 261.963 153.412 262.261 153.374 262.553L153.349 262.82C153.323 263.091 153.332 263.364 153.374 263.639C153.416 263.914 153.497 264.166 153.615 264.394C153.738 264.618 153.907 264.802 154.123 264.946C154.339 265.086 154.605 265.16 154.923 265.168C155.308 265.177 155.653 265.094 155.958 264.921C156.266 264.743 156.548 264.519 156.802 264.248L157.456 264.807C157.257 265.099 157.02 265.344 156.745 265.543C156.47 265.742 156.169 265.89 155.843 265.987C155.517 266.085 155.179 266.131 154.828 266.127ZM160.953 256.25L160.826 257.056C160.78 257.365 160.691 257.659 160.56 257.938C160.433 258.218 160.272 258.478 160.077 258.719C159.887 258.96 159.673 259.176 159.436 259.367L158.77 258.884C158.99 258.613 159.178 258.332 159.334 258.04C159.495 257.744 159.607 257.424 159.671 257.082L159.817 256.25H160.953ZM89.8594 292.625V304H87.9141V292.625H89.8594ZM93.4297 292.625V294.188H84.375V292.625H93.4297ZM103.781 298V298.625C103.781 299.484 103.669 300.255 103.445 300.938C103.221 301.62 102.901 302.201 102.484 302.68C102.073 303.159 101.578 303.526 101 303.781C100.422 304.031 99.7812 304.156 99.0781 304.156C98.3802 304.156 97.7422 304.031 97.1641 303.781C96.5911 303.526 96.0938 303.159 95.6719 302.68C95.25 302.201 94.9219 301.62 94.6875 300.938C94.4583 300.255 94.3438 299.484 94.3438 298.625V298C94.3438 297.141 94.4583 296.372 94.6875 295.695C94.9167 295.013 95.2396 294.432 95.6562 293.953C96.0781 293.469 96.5755 293.102 97.1484 292.852C97.7266 292.596 98.3646 292.469 99.0625 292.469C99.7656 292.469 100.406 292.596 100.984 292.852C101.562 293.102 102.06 293.469 102.477 293.953C102.893 294.432 103.214 295.013 103.438 295.695C103.667 296.372 103.781 297.141 103.781 298ZM101.82 298.625V297.984C101.82 297.349 101.758 296.789 101.633 296.305C101.513 295.815 101.333 295.406 101.094 295.078C100.859 294.745 100.57 294.495 100.227 294.328C99.8828 294.156 99.4948 294.07 99.0625 294.07C98.6302 294.07 98.2448 294.156 97.9062 294.328C97.5677 294.495 97.2786 294.745 97.0391 295.078C96.8047 295.406 96.625 295.815 96.5 296.305C96.375 296.789 96.3125 297.349 96.3125 297.984V298.625C96.3125 299.26 96.375 299.823 96.5 300.312C96.625 300.802 96.8073 301.216 97.0469 301.555C97.2917 301.888 97.5833 302.141 97.9219 302.312C98.2604 302.479 98.6458 302.562 99.0781 302.562C99.5156 302.562 99.9036 302.479 100.242 302.312C100.581 302.141 100.867 301.888 101.102 301.555C101.336 301.216 101.513 300.802 101.633 300.312C101.758 299.823 101.82 299.26 101.82 298.625ZM64.5156 311.625V323H62.5547V311.625H64.5156ZM75.9766 311.625V323H74.0156L68.9141 314.852V323H66.9531V311.625H68.9141L74.0312 319.789V311.625H75.9766ZM84.2969 320.07C84.2969 319.836 84.2604 319.628 84.1875 319.445C84.1198 319.263 83.9974 319.096 83.8203 318.945C83.6432 318.794 83.3932 318.648 83.0703 318.508C82.7526 318.362 82.3464 318.214 81.8516 318.062C81.3099 317.896 80.8099 317.711 80.3516 317.508C79.8984 317.299 79.5026 317.06 79.1641 316.789C78.8255 316.513 78.5625 316.198 78.375 315.844C78.1875 315.484 78.0938 315.07 78.0938 314.602C78.0938 314.138 78.1901 313.716 78.3828 313.336C78.5807 312.956 78.8594 312.628 79.2188 312.352C79.5833 312.07 80.013 311.854 80.5078 311.703C81.0026 311.547 81.5495 311.469 82.1484 311.469C82.9922 311.469 83.7188 311.625 84.3281 311.938C84.9427 312.25 85.4141 312.669 85.7422 313.195C86.0755 313.721 86.2422 314.302 86.2422 314.938H84.2969C84.2969 314.562 84.2161 314.232 84.0547 313.945C83.8984 313.654 83.6589 313.424 83.3359 313.258C83.0182 313.091 82.6146 313.008 82.125 313.008C81.6615 313.008 81.276 313.078 80.9688 313.219C80.6615 313.359 80.4323 313.549 80.2812 313.789C80.1302 314.029 80.0547 314.299 80.0547 314.602C80.0547 314.815 80.1042 315.01 80.2031 315.188C80.3021 315.359 80.4531 315.521 80.6562 315.672C80.8594 315.818 81.1146 315.956 81.4219 316.086C81.7292 316.216 82.0911 316.341 82.5078 316.461C83.138 316.648 83.6875 316.857 84.1562 317.086C84.625 317.31 85.0156 317.565 85.3281 317.852C85.6406 318.138 85.875 318.464 86.0312 318.828C86.1875 319.188 86.2656 319.596 86.2656 320.055C86.2656 320.534 86.1693 320.966 85.9766 321.352C85.7839 321.732 85.5078 322.057 85.1484 322.328C84.7943 322.594 84.3672 322.799 83.8672 322.945C83.3724 323.086 82.8203 323.156 82.2109 323.156C81.6641 323.156 81.125 323.083 80.5938 322.938C80.0677 322.792 79.5885 322.57 79.1562 322.273C78.724 321.971 78.3802 321.596 78.125 321.148C77.8698 320.695 77.7422 320.167 77.7422 319.562H79.7031C79.7031 319.932 79.7656 320.247 79.8906 320.508C80.0208 320.768 80.2005 320.982 80.4297 321.148C80.6589 321.31 80.9245 321.43 81.2266 321.508C81.5339 321.586 81.862 321.625 82.2109 321.625C82.6693 321.625 83.0521 321.56 83.3594 321.43C83.6719 321.299 83.9062 321.117 84.0625 320.883C84.2188 320.648 84.2969 320.378 84.2969 320.07ZM92.6797 311.625V323H90.7344V311.625H92.6797ZM96.25 311.625V313.188H87.1953V311.625H96.25ZM101.43 313.141L98.0312 323H95.9766L100.258 311.625H101.57L101.43 313.141ZM104.273 323L100.867 313.141L100.719 311.625H102.039L106.336 323H104.273ZM104.109 318.781V320.336H97.9219V318.781H104.109ZM114.734 321.445V323H109.023V321.445H114.734ZM109.57 311.625V323H107.609V311.625H109.57ZM123.375 321.445V323H117.664V321.445H123.375ZM118.211 311.625V323H116.25V311.625H118.211Z" fill="white"/>
</g>
<defs>
<filter id="filter0_d_12359_231" x="13" y="0" width="158.524" height="484" filterUnits="userSpaceOnUse" color-interpolation-filters="sRGB">
<feFlood flood-opacity="0" result="BackgroundImageFix"/>
<feColorMatrix in="SourceAlpha" type="matrix" values="0 0 0 0 0 0 0 0 0 0 0 0 0 0 0 0 0 0 127 0" result="hardAlpha"/>
<feOffset dy="4"/>
<feGaussianBlur stdDeviation="2"/>
<feComposite in2="hardAlpha" operator="out"/>
<feColorMatrix type="matrix" values="0 0 0 0 0 0 0 0 0 0 0 0 0 0 0 0 0 0 0.25 0"/>
<feBlend mode="normal" in2="BackgroundImageFix" result="effect1_dropShadow_12359_231"/>
<feBlend mode="normal" in="SourceGraphic" in2="effect1_dropShadow_12359_231" result="shape"/>
</filter>
<filter id="filter1_d_12359_231" x="0.355286" y="349.971" width="185.112" height="146.102" filterUnits="userSpaceOnUse" color-interpolation-filters="sRGB">
<feFlood flood-opacity="0" result="BackgroundImageFix"/>
<feColorMatrix in="SourceAlpha" type="matrix" values="0 0 0 0 0 0 0 0 0 0 0 0 0 0 0 0 0 0 127 0" result="hardAlpha"/>
<feOffset dy="6"/>
<feGaussianBlur stdDeviation="9"/>
<feComposite in2="hardAlpha" operator="out"/>
<feColorMatrix type="matrix" values="0 0 0 0 0.0141021 0 0 0 0 0.163044 0 0 0 0 0.267253 0 0 0 0.05 0"/>
<feBlend mode="normal" in2="BackgroundImageFix" result="effect1_dropShadow_12359_231"/>
<feBlend mode="normal" in="SourceGraphic" in2="effect1_dropShadow_12359_231" result="shape"/>
</filter>
</defs>
</svg>
